<svg xmlns="http://www.w3.org/2000/svg" xmlns:xlink="http://www.w3.org/1999/xlink" viewBox="0 0 240 200"><style>.moon { fill: #CFE5FC; } .sun { fill: #FCEE88; } .glow { filter: url(#glow); } .snow { fill: #C4DFFF; } .light { opacity: 0.4 } .med { opacity: 0.8 } .cloud {fill: url(#clouded);} .rain { fill: #91CBF5; } .lightning { fill: #FCEEC7; }</style><defs><linearGradient id="clouded" gradientUnits="objectBoundingBox" y1="1" x2="0"><stop offset="0" stop-color="#404040"/><stop offset="1" stop-color="#BFBFBF"/></linearGradient><filter id="glow"><feGaussianBlur stdDeviation="2" result="blur"/><feMerge><feMergeNode in="blur"/><feMergeNode in="SourceGraphic"/></feMerge></filter><path id="cloud-1" class="cloud" d="M33 16c.1-.56.15-1.13.15-1.72 0-5.52-4.5-10-10-10-4.6 0-8.4 3.07-9.6 7.25-.5-.1-1-.1-1.4-.1-3 0-5.5 2.1-6.3 4.8-.5-.2-1-.3-1.6-.3-2.3 0-4.2 1.9-4.2 4.2.1 2.3 2 4.2 4.3 4.2h27.6c2.3 0 4.2-1.9 4.2-4.2 0-1.9-1.4-3.6-3.2-4.1z"/><use id="cloud-2" transform="scale(.5)" xlink:href="#cloud-1"/><use id="cloud-3" transform="translate(15 15)" xlink:href="#cloud-2"/><use id="cloud-4" transform="translate(18 3)" xlink:href="#cloud-2"/><path id="moon" class="moon glow" d="M21.8 5.12c3.33 2.15 5.53 5.88 5.53 10.13 0 6.68-5.4 12.08-12.08 12.08-4.25 0-7.98-2.2-10.13-5.52C6.02 29.3 12.32 35 20 35c8.28 0 15-6.7 15-15 0-7.6-5.76-13.9-13.2-14.8z"/><use id="moon-2" transform="scale(.6)" xlink:href="#moon"/><circle id="sun" class="sun glow" cx="20" cy="20" r="14"/><use id="sun-2" transform="scale(.6)" xlink:href="#sun"/><path id="snow" class="snow" d="M1 1l1 1.5H.4v.55H2l-1 1.5.5.33 1-1.5 1 1.5.5-.33-1-1.5h1.6V2.5H3L4 1 3.5.67l-1 1.5-1-1.5z"/><path id="rain" class="rain" d="M5 5c.7 1.2.9 2.37.5 2.6-.42.25-1.32-.52-2-1.72C2.24 3.7 1.75 1.1.5-1.05 1.75 1.1 3.75 2.85 5 5z"/><g id="hail"><path class="snow light" d="M.78.66L1.22.4l2.5 4.4-.44.3z"/><circle class="snow" cx="4.5" cy="6.6" r="1"/></g><g id="snow-1"><use x="5" y="25" xlink:href="#snow"/><use x="12" y="31" xlink:href="#snow"/><use x="20" y="27" xlink:href="#snow"/><use x="27" y="29" xlink:href="#snow"/></g><use id="snow-2" xlink:href="#snow-1" transform="translate(5 -1)"/><g id="rain-1"><use x="5" y="25" xlink:href="#rain"/><use x="12" y="31" xlink:href="#rain"/><use x="20" y="27" xlink:href="#rain"/><use x="27" y="29" xlink:href="#rain"/></g><use id="rain-2" xlink:href="#rain-1" transform="translate(5 -1)"/><g id="hail-1"><use x="5" y="25" xlink:href="#hail"/><use x="12" y="31" xlink:href="#hail"/><use x="20" y="27" xlink:href="#hail"/><use x="27" y="29" xlink:href="#hail"/></g><path id="lightning-1" class="lightning glow" d="M25 14.5h3.6l-2.8 11h1L23.5 36l1.2-10.5h-1z"/></defs><use xlink:href="#moon" id="clearNight"/><use xlink:href="#sun" x="40" id="sunnyDay"/><g id="cloudyNight" transform="translate(80)"><use xlink:href="#moon-2"/><use xlink:href="#cloud-1" class="light"/></g><g id="cloudyDay" transform="translate(120)"><use xlink:href="#sun-2"/><use xlink:href="#cloud-1" class="light"/></g><g id="mist" transform="translate(160)" class="med cloud"><use xlink:href="#cloud-1"/><use xlink:href="#cloud-2"/><path d="M5 28.5h30v2H5zM5 35h30v2H5z"/></g><g id="fog" transform="translate(200)" class="med cloud"><use xlink:href="#cloud-1"/><use xlink:href="#cloud-2"/><use xlink:href="#cloud-3"/><path d="M5 28h30v2H5zm0 3h30v2H5zm0 3h30v2H5z"/></g><g id="cloudy" transform="translate(0 40)"><use xlink:href="#cloud-1" class="med"/><use xlink:href="#cloud-2" class="med"/></g><g id="overcast" transform="translate(40 40)"><use xlink:href="#cloud-1"/><use xlink:href="#cloud-2"/><use xlink:href="#cloud-3"/></g><g id="lightRainNight" transform="translate(80 40)"><use xlink:href="#moon-2"/><use xlink:href="#cloud-1" class="light"/><use xlink:href="#rain-1" class="light"/></g><g id="LightRainDay" transform="translate(120 40)"><use xlink:href="#sun-2"/><use xlink:href="#cloud-1" class="light"/><use xlink:href="#rain-1" class="light"/></g><g id="drizzle" transform="translate(160 40)"><use xlink:href="#cloud-1"/><use xlink:href="#cloud-2"/><use xlink:href="#cloud-3"/><use xlink:href="#rain-1" class="light"/></g><g id="lightRain" transform="translate(200 40)"><use xlink:href="#cloud-1" class="med"/><use xlink:href="#cloud-2" class="med"/><use xlink:href="#rain-1" class="light"/></g><g id="heavyRainNight" transform="translate(0 80)"><use xlink:href="#moon-2"/><use xlink:href="#cloud-1"/><use xlink:href="#cloud-2"/><use xlink:href="#cloud-3"/><use xlink:href="#rain-1"/><use xlink:href="#rain-2"/></g><g id="heavyRainDay" transform="translate(40 80)"><use xlink:href="#sun-2"/><use xlink:href="#cloud-1"/><use xlink:href="#cloud-2"/><use xlink:href="#cloud-3"/><use xlink:href="#rain-1"/><use xlink:href="#rain-2"/></g><g id="heavyRain" transform="translate(80 80)"><use xlink:href="#cloud-1"/><use xlink:href="#cloud-2"/><use xlink:href="#cloud-3"/><use xlink:href="#cloud-4"/><use xlink:href="#rain-1"/><use xlink:href="#rain-2"/></g><g id="sleetNight" transform="translate(120 80)"><use xlink:href="#moon-2"/><use xlink:href="#cloud-1" class="light"/><use xlink:href="#snow-2"/><use xlink:href="#rain-1" class="light"/></g><g id="sleetDay" transform="translate(160 80)"><use xlink:href="#sun-2"/><use xlink:href="#cloud-1" class="light"/><use xlink:href="#rain-1" class="light"/></g><g id="sleet" transform="translate(200 80)"><use xlink:href="#cloud-1" class="light"/><use xlink:href="#snow-2"/><use xlink:href="#rain-1" class="light"/></g><g id="hailNight" transform="translate(0 120)"><use xlink:href="#moon-2"/><use xlink:href="#cloud-1"/><use xlink:href="#cloud-2"/><use xlink:href="#cloud-3"/><use xlink:href="#hail-1"/><use xlink:href="#rain-2"/></g><g id="hailDay" transform="translate(40 120)"><use xlink:href="#sun-2"/><use xlink:href="#cloud-1"/><use xlink:href="#cloud-2"/><use xlink:href="#cloud-3"/><use xlink:href="#hail-1"/><use xlink:href="#rain-2"/></g><g id="hail" transform="translate(80 120)"><use xlink:href="#cloud-1"/><use xlink:href="#cloud-2"/><use xlink:href="#cloud-3"/><use xlink:href="#cloud-4"/><use xlink:href="#hail-1"/><use xlink:href="#rain-2"/></g><g id="lightSnowNight" transform="translate(120 120)"><use xlink:href="#moon-2"/><use xlink:href="#cloud-1" class="light"/><use xlink:href="#snow-1"/></g><g id="lightSnowDay" transform="translate(160 120)"><use xlink:href="#sun-2"/><use xlink:href="#cloud-1" class="light"/><use xlink:href="#snow-1"/></g><g id="lightSnow" transform="translate(200 120)"><use xlink:href="#cloud-1" class="med"/><use xlink:href="#cloud-2" class="med"/><use xlink:href="#snow-1"/></g><g id="heavySnowNight" transform="translate(0 160)"><use xlink:href="#moon-2"/><use xlink:href="#cloud-1"/><use xlink:href="#cloud-2"/><use xlink:href="#cloud-3"/><use xlink:href="#snow-1"/><use xlink:href="#snow-2"/></g><g id="heavySnowDay" transform="translate(40 160)"><use xlink:href="#sun-2"/><use xlink:href="#cloud-1"/><use xlink:href="#cloud-2"/><use xlink:href="#cloud-3"/><use xlink:href="#snow-1"/><use xlink:href="#snow-2"/></g><g id="heavySnow" transform="translate(80 160)"><use xlink:href="#cloud-1"/><use xlink:href="#cloud-2"/><use xlink:href="#cloud-3"/><use xlink:href="#cloud-4"/><use xlink:href="#snow-1"/><use xlink:href="#snow-2"/></g><g id="thunderNight" transform="translate(120 160)"><use xlink:href="#moon-2"/><use xlink:href="#cloud-1"/><use xlink:href="#cloud-2"/><use xlink:href="#cloud-3"/><use xlink:href="#cloud-4"/><use xlink:href="#rain-1"/><use xlink:href="#rain-2"/><use xlink:href="#lightning-1"/></g><g id="thunderDay" transform="translate(160 160)"><use xlink:href="#sun-2"/><use xlink:href="#cloud-1"/><use xlink:href="#cloud-2"/><use xlink:href="#cloud-3"/><use xlink:href="#cloud-4"/><use xlink:href="#rain-1"/><use xlink:href="#rain-2"/><use xlink:href="#lightning-1"/></g><g id="thunder" transform="translate(200 160)"><use xlink:href="#cloud-1"/><use xlink:href="#cloud-2"/><use xlink:href="#cloud-3"/><use xlink:href="#cloud-4"/><use xlink:href="#rain-1"/><use xlink:href="#rain-2"/><use xlink:href="#lightning-1"/></g></svg>
