<?xml version="1.0" encoding="utf-8"?>
  <!-- Generator: Adobe Illustrator 19.0.0, SVG Export Plug-In . SVG Version: 6.00 Build 0)  -->
  <svg version="1.1" id="Layer_1" xmlns="http://www.w3.org/2000/svg" xmlns:xlink="http://www.w3.org/1999/xlink" x="0px" y="0px" viewBox="0 0 240 200" style="enable-background:new 0 0 240 200;" xml:space="preserve">
    <style type="text/css">
      .moon { fill: #CFE5FC; }
      .sun { fill: #FCEE88; }
      .glow { filter: url(#glow); }
      .snow { fill: #C4DFFF; }
      .light { opacity: 0.4 }
      .med { opacity: 0.8 }
      .cloud {fill: url(#clouded);}
      .rain { fill: #91CBF5; }
      .lightning { fill: #FCEEC7; }
     </style>

    <filter id="glow">
      <feGaussianBlur stdDeviation="1" result="blur"></feGaussianBlur>
      <feMerge>
        <feMergeNode in="blur"></feMergeNode>
        <feMergeNode in="SourceGraphic"></feMergeNode>
      </feMerge>
    </filter>
    <linearGradient id="clouded" gradientUnits="objectBoundingBox" x1="0" y1="1" x2="0" y2="0">
      <stop offset="0" style="stop-color:#404040" />
      <stop offset="1" style="stop-color:#BFBFBF" />
    </linearGradient>
    <g id="clearNight">
      <path id="XMLID_13_" class="moon glow" d="M141.81299,5.12006c3.3194,2.15265,5.52032,5.88348,5.52032,10.1344
		c0,6.67096-5.4079,12.07886-12.07886,12.07886c-4.25092,0-7.98169-2.20093-10.13434-5.52026C126.01685,29.2406,132.33063,35,140,35
		c8.2843,0,15-6.71576,15-15C155,12.33057,149.2406,6.01672,141.81299,5.12006z" />
    </g>
    <g id="clearDay">
      <circle id="XMLID_3_" class="sun glow" cx="20" cy="20" r="15" />
    </g>
      <g id="lightSnowNight">
        <path id="XMLID_308_" class="moon glow" d="M215.12863,82c2.21295,1.4351,3.68024,3.92233,3.68024,6.75626
			c0,4.44731-3.60529,8.05257-8.05261,8.05257c-2.83395,0-5.32115-1.46729-6.75626-3.68018
			c0.59782,4.9517,4.80704,8.7913,9.91997,8.7913c5.5229,0,10.00006-4.47717,10.00006-10
			C223.92003,86.80701,220.0804,82.59778,215.12863,82z" />
        <g id="XMLID_246_">
          <rect id="XMLID_249_" x="202.968" y="110.88703" class="snow" width="4" height="0.5" />
          <rect id="XMLID_248_" x="202.968" y="110.88703" transform="matrix(-0.5 -0.86603 0.86603 -0.5 211.20451 344.21304)" class="snow" width="4" height="0.5" />

          <rect id="XMLID_247_" x="202.968" y="110.88703" transform="matrix(0.5 -0.86603 0.86603 0.5 6.23651 233.07602)" class="snow" width="4" height="0.5" />
        </g>
        <g id="XMLID_242_">
          <rect id="XMLID_245_" x="213.968" y="109.74408" class="snow" width="4" height="0.5" />

          <rect id="XMLID_244_" x="213.968" y="109.74408" transform="matrix(-0.5 -0.86603 0.86603 -0.5 228.69434 352.0249)" class="snow" width="4" height="0.5" />

          <rect id="XMLID_243_" x="213.968" y="109.74408" transform="matrix(0.5 -0.86603 0.86603 0.5 12.72633 242.03082)" class="snow" width="4" height="0.5" />
        </g>
        <g id="XMLID_238_">
          <rect id="XMLID_241_" x="219.61125" y="115.7551" class="snow" width="4" height="0.5" />

          <rect id="XMLID_240_" x="219.61125" y="115.7551" transform="matrix(-0.5 -0.86603 0.86603 -0.5 231.95351 365.92862)" class="snow" width="4" height="0.5" />

          <rect id="XMLID_239_" x="219.61125" y="115.7551" transform="matrix(0.5 -0.86603 0.86603 0.5 10.34227 249.92352)" class="snow" width="4" height="0.5" />
        </g>
        <g id="XMLID_234_">
          <rect id="XMLID_237_" x="231.35017" y="112.66218" class="snow" width="4" height="0.5" />

          <rect id="XMLID_236_" x="231.35017" y="112.66218" transform="matrix(-0.5 -0.86603 0.86603 -0.5 252.24045 371.45544)" class="snow" width="4" height="0.5" />

          <rect id="XMLID_235_" x="231.35017" y="112.66218" transform="matrix(0.5 -0.86603 0.86603 0.5 18.89027 258.54327)" class="snow" width="4" height="0.5" />
        </g>
        <path id="XMLID_233_" class="cloud light" d="M234.83612,96.85361c0.09784-0.5614,0.15887-1.1355,0.15887-1.72491
			c0-5.52008-4.47491-9.99493-9.995-9.99493c-4.56415,0-8.4057,3.06244-9.60211,7.24225
			c-0.45056-0.09967-0.9173-0.15619-1.39789-0.15619c-2.9881,0-5.49451,2.03424-6.22821,4.79132
			c-0.48273-0.19263-1.00629-0.30554-1.55774-0.30554c-2.32733,0-4.21405,1.88672-4.21405,4.21411
			c0,2.32733,1.88672,4.15221,4.21405,4.15221c0.03424,0,0.06586-0.07191,0.09985-0.07191h27.37219
			c0.034,0,0.06561,0.07191,0.09985,0.07191c2.32733,0,4.21405-1.8558,4.21405-4.18313
			C238,98.9262,236.65216,97.32242,234.83612,96.85361z" />
      </g>
      <g id="lightSnowDay">
        <circle id="XMLID_178_" class="sun glow" cx="95.96828" cy="92" r="10" />
        <g id="XMLID_174_">
          <rect id="XMLID_177_" x="82.968" y="110.88703" class="snow" width="4" height="0.5" />

          <rect id="XMLID_176_" x="82.968" y="110.88703" transform="matrix(-0.5 -0.86603 0.86603 -0.5 31.20451 240.28999)" class="snow" width="4" height="0.5" />

          <rect id="XMLID_175_" x="82.968" y="110.88703" transform="matrix(0.5 -0.86603 0.86603 0.5 -53.76349 129.15297)" class="snow" width="4" height="0.5" />
        </g>
        <g id="XMLID_170_">
          <rect id="XMLID_173_" x="93.968" y="109.74408" class="snow" width="4" height="0.5" />

          <rect id="XMLID_172_" x="93.968" y="109.74408" transform="matrix(-0.5 -0.86603 0.86603 -0.5 48.69434 248.10185)" class="snow" width="4" height="0.5" />

          <rect id="XMLID_171_" x="93.968" y="109.74408" transform="matrix(0.5 -0.86603 0.86603 0.5 -47.27367 138.10777)" class="snow" width="4" height="0.5" />
        </g>
        <g id="XMLID_158_">
          <rect id="XMLID_161_" x="99.61124" y="115.7551" class="snow" width="4" height="0.5" />

          <rect id="XMLID_160_" x="99.61124" y="115.7551" transform="matrix(-0.5 -0.86603 0.86603 -0.5 51.95351 262.00555)" class="snow" width="4" height="0.5" />

          <rect id="XMLID_159_" x="99.61124" y="115.7551" transform="matrix(0.5 -0.86603 0.86603 0.5 -49.65773 146.00047)" class="snow" width="4" height="0.5" />
        </g>
        <g id="XMLID_154_">
          <rect id="XMLID_157_" x="111.35017" y="112.66218" class="snow" width="4" height="0.5" />

          <rect id="XMLID_156_" x="111.35017" y="112.66218" transform="matrix(-0.5 -0.86603 0.86603 -0.5 72.24045 267.53238)" class="snow" width="4" height="0.5" />

          <rect id="XMLID_155_" x="111.35017" y="112.66218" transform="matrix(0.5 -0.86603 0.86603 0.5 -41.10973 154.62022)" class="snow" width="4" height="0.5" />
        </g>
        <path id="XMLID_153_" class="cloud light" d="M114.83612,96.85361c0.09784-0.5614,0.15887-1.1355,0.15887-1.72491
			c0-5.52008-4.47491-9.99493-9.995-9.99493c-4.56415,0-8.4057,3.06244-9.60211,7.24225
			c-0.45056-0.09967-0.9173-0.15619-1.39789-0.15619c-2.9881,0-5.49451,2.03424-6.22821,4.79132
			c-0.48273-0.19263-1.00629-0.30554-1.55774-0.30554C83.88672,96.7056,82,98.59232,82,100.91971
			c0,2.32733,1.88672,4.15221,4.21405,4.15221c0.03424,0,0.06586-0.07191,0.09985-0.07191h27.37219
			c0.034,0,0.06561,0.07191,0.09985,0.07191c2.32733,0,4.21405-1.8558,4.21405-4.18313
			C118,98.9262,116.65216,97.32242,114.83612,96.85361z" />
      </g>
      <g id="lightRainNight">
        <path id="XMLID_250_" class="moon glow" d="M215.12863,42c2.21295,1.4351,3.68024,3.92232,3.68024,6.75627
			c0,4.4473-3.60529,8.05257-8.05261,8.05257c-2.83395,0-5.32115-1.46729-6.75626-3.68018
			c0.59782,4.9517,4.80704,8.7913,9.91997,8.7913c5.5229,0,10.00006-4.47717,10.00006-10
			C223.92003,46.80701,220.0804,42.59778,215.12863,42z" />
        <path id="XMLID_305_" class="cloud light" d="M234.83612,56.79708c0.09784-0.5614,0.15887-1.1355,0.15887-1.72491
			c0-5.52008-4.47491-9.99493-9.995-9.99493c-4.56415,0-8.4057,3.06244-9.60211,7.24225
			c-0.45056-0.09967-0.9173-0.15619-1.39789-0.15619c-2.9881,0-5.49451,2.03424-6.22821,4.79132
			c-0.48273-0.19263-1.00629-0.30554-1.55774-0.30554c-2.32733,0-4.21405,1.88672-4.21405,4.21411
			c0,2.32733,1.88672,4.18047,4.21405,4.18047c0.03424,0,0.06586-0.04366,0.09985-0.04366h27.37219
			c0.034,0,0.06561,0.04366,0.09985,0.04366c2.32733,0,4.21405-1.86993,4.21405-4.19727
			C238,58.8838,236.65216,57.26589,234.83612,56.79708z" />
        <path id="XMLID_304_" class="rain light" d="M212.38277,72.88428c0.69037,1.19573,0.91074,2.36094,0.49223,2.60256
			c-0.4185,0.24163-1.31741-0.53183-2.00777-1.72756c-1.25-2.16506-1.74167-4.76666-2.99223-6.93269
			C209.12556,68.99262,211.13277,70.71922,212.38277,72.88428z" />
        <path id="XMLID_303_" class="rain light" d="M232.38277,72.88428c0.69037,1.19573,0.91074,2.36094,0.49223,2.60256
			c-0.4185,0.24163-1.31741-0.53183-2.00777-1.72756c-1.25-2.16506-1.74167-4.76666-2.99223-6.93269
			C229.12556,68.99262,231.13277,70.71922,232.38277,72.88428z" />
        <path id="XMLID_302_" class="rain light" d="M222.38277,75.88428c0.69037,1.19573,0.91074,2.36094,0.49223,2.60256
			c-0.4185,0.24163-1.31741-0.53183-2.00777-1.72756c-1.25-2.16506-1.74167-4.76666-2.99223-6.93269
			C219.12556,71.99262,221.13277,73.71922,222.38277,75.88428z" />
      </g>
      <g id="LightRainDay">
        <circle id="XMLID_30_" class="sun glow" cx="94.65578" cy="52" r="10" />
        <path id="XMLID_29_" class="cloud light" d="M114.83612,56.79708c0.09784-0.5614,0.15887-1.1355,0.15887-1.72491
			c0-5.52008-4.47491-9.99493-9.995-9.99493c-4.56415,0-8.4057,3.06244-9.60211,7.24225
			c-0.45056-0.09967-0.9173-0.15619-1.39789-0.15619c-2.9881,0-5.49451,2.03424-6.22821,4.79132
			c-0.48273-0.19263-1.00629-0.30554-1.55774-0.30554C83.88672,56.64907,82,58.53579,82,60.86318
			c0,2.32733,1.88672,4.18047,4.21405,4.18047C86.24829,65.04366,86.27991,65,86.3139,65h27.37219
			c0.034,0,0.06561,0.04366,0.09985,0.04366c2.32733,0,4.21405-1.86993,4.21405-4.19727
			C118,58.8838,116.65216,57.26589,114.83612,56.79708z" />
        <path id="XMLID_28_" class="rain light" d="M92.38277,72.88428c0.69035,1.19573,0.91073,2.36094,0.49223,2.60256
			c-0.4185,0.24163-1.31741-0.53183-2.00777-1.72756c-1.25-2.16506-1.74167-4.76666-2.99223-6.93269
			C89.12556,68.99262,91.13277,70.71922,92.38277,72.88428z" />
        <path id="XMLID_27_" class="rain light" d="M112.38277,72.88428c0.69035,1.19573,0.91073,2.36094,0.49223,2.60256
			c-0.4185,0.24163-1.31741-0.53183-2.00777-1.72756c-1.25-2.16506-1.74167-4.76666-2.99223-6.93269
			C109.12556,68.99262,111.13277,70.71922,112.38277,72.88428z" />
        <path id="XMLID_26_" class="rain light" d="M102.38277,75.88428c0.69035,1.19573,0.91073,2.36094,0.49223,2.60256
			c-0.4185,0.24163-1.31741-0.53183-2.00777-1.72756c-1.25-2.16506-1.74167-4.76666-2.99223-6.93269
			C99.12556,71.99262,101.13277,73.71922,102.38277,75.88428z" />
      </g>
      <g id="sleetDay">
        <circle id="XMLID_66_" class="sun glow" cx="15.96828" cy="52" r="10" />
        <path id="XMLID_65_" class="cloud light" d="M34.83612,56.7663c0.09784-0.5614,0.15887-1.1355,0.15887-1.72491
			c0-5.52008-4.47491-9.99493-9.995-9.99493c-4.56415,0-8.4057,3.06244-9.60211,7.24225
			c-0.45056-0.09967-0.9173-0.15619-1.39789-0.15619c-2.9881,0-5.49451,2.03424-6.22821,4.79132
			c-0.48273-0.19263-1.00629-0.30554-1.55774-0.30554C3.88672,56.61829,2,58.50501,2,60.83241
			c0,2.32733,1.88672,4.19586,4.21405,4.19586C6.24829,65.02827,6.27991,65,6.3139,65H33.6861
			c0.034,0,0.06561,0.02827,0.09985,0.02827c2.32733,0,4.21405-1.87762,4.21405-4.20496
			C38,58.86073,36.65216,57.23512,34.83612,56.7663z" />
        <path id="XMLID_63_" class="rain light" d="M13.38277,75.85351c0.69036,1.19573,0.91073,2.36094,0.49223,2.60257
			c-0.41851,0.24162-1.31742-0.53184-2.00777-1.72757c-1.25-2.16506-1.74167-4.76665-2.99223-6.93269
			C10.12556,71.96185,12.13277,73.68845,13.38277,75.85351z" />
        <path id="XMLID_62_" class="rain light" d="M32.38277,73.85351c0.69036,1.19573,0.91074,2.36094,0.49223,2.60257
			c-0.41851,0.24162-1.31742-0.53184-2.00777-1.72757c-1.25-2.16506-1.74167-4.76665-2.99223-6.93269
			C29.12556,69.96185,31.13277,71.68845,32.38277,73.85351z" />
        <path id="XMLID_61_" class="rain light" d="M24.38277,75.85351c0.69036,1.19573,0.91073,2.36094,0.49223,2.60257
			c-0.41851,0.24162-1.31742-0.53184-2.00777-1.72757c-1.25-2.16506-1.74167-4.76665-2.99223-6.93269
			C21.12556,71.96185,23.13277,73.68845,24.38277,75.85351z" />
        <g id="XMLID_68_">
          <rect id="XMLID_36_" x="2.96827" y="70.88703" class="snow" width="4" height="0.5" />

          <rect id="XMLID_64_" x="2.96827" y="70.88703" transform="matrix(-0.5 -0.86603 0.86603 -0.5 -54.15407 111.0082)" class="snow" width="4" height="0.5" />

          <rect id="XMLID_67_" x="2.96827" y="70.88703" transform="matrix(0.5 -0.86603 0.86603 0.5 -59.12234 39.87117)" class="snow" width="4" height="0.5" />
        </g>
        <g id="XMLID_70_">
          <rect id="XMLID_73_" x="13.96828" y="69.74408" class="snow" width="4" height="0.5" />

          <rect id="XMLID_72_" x="13.96828" y="69.74408" transform="matrix(-0.5 -0.86603 0.86603 -0.5 -36.66424 118.82005)" class="snow" width="4" height="0.5" />

          <rect id="XMLID_71_" x="13.96828" y="69.74408" transform="matrix(0.5 -0.86603 0.86603 0.5 -52.63251 48.82597)" class="snow" width="4" height="0.5" />
        </g>
        <g id="XMLID_60_">
          <rect id="XMLID_77_" x="23.7072" y="71.65116" class="snow" width="4" height="0.5" />

          <rect id="XMLID_75_" x="23.7072" y="71.65116" transform="matrix(-0.5 -0.86603 0.86603 -0.5 -23.70743 130.11484)" class="snow" width="4" height="0.5" />

          <rect id="XMLID_74_" x="23.7072" y="71.65116" transform="matrix(0.5 -0.86603 0.86603 0.5 -49.41463 58.21367)" class="snow" width="4" height="0.5" />
        </g>
      </g>
      <g id="cloudyNight">
        <path id="XMLID_15_" class="moon glow" d="M175.12863,2c2.21295,1.4351,3.68024,3.92232,3.68024,6.75627
			c0,4.44731-3.60529,8.05257-8.05261,8.05257c-2.83395,0-5.32115-1.46729-6.75626-3.68018
			c0.59782,4.9517,4.80704,8.7913,9.91997,8.7913c5.5229,0,10.00006-4.47717,10.00006-10
			C183.92003,6.80701,180.0804,2.59778,175.12863,2z" />
        <path id="XMLID_14_" class="cloud light" d="M194.83612,16.62761c0.09784-0.5614,0.15887-1.1355,0.15887-1.72492
			c0-5.52008-4.47491-9.99493-9.995-9.99493c-4.56415,0-8.4057,3.06244-9.60211,7.24225
			c-0.45056-0.09967-0.9173-0.15619-1.39789-0.15619c-2.9881,0-5.49451,2.03424-6.22821,4.79132
			c-0.48273-0.19263-1.00629-0.30554-1.55774-0.30554c-2.32733,0-4.21405,1.88672-4.21405,4.21411
			c0,2.32733,1.88672,4.2652,4.21405,4.2652c0.03424,0,0.06586,0.04108,0.09985,0.04108h27.37219
			c0.034,0,0.06561-0.04108,0.09985-0.04108c2.32733,0,4.21405-1.91229,4.21405-4.23963
			C198,18.75671,196.65216,17.09643,194.83612,16.62761z" />
      </g>
      <g id="cloudyDay">
        <circle id="XMLID_31_" class="sun glow" cx="55.96828" cy="12" r="10" />
        <path id="XMLID_17_" class="cloud light" d="M74.83612,16.68286c0.09784-0.5614,0.15887-1.1355,0.15887-1.72491
			c0-5.52008-4.47491-9.99493-9.995-9.99493c-4.56415,0-8.4057,3.06244-9.60211,7.24225
			c-0.45056-0.09967-0.9173-0.15619-1.39789-0.15619c-2.9881,0-5.49451,2.03424-6.22821,4.79132
			c-0.48273-0.19263-1.00629-0.30554-1.55774-0.30554C43.88672,16.53485,42,18.42157,42,20.74896
			c0,2.32733,1.88672,4.23758,4.21405,4.23758C46.24829,24.98654,46.27991,25,46.3139,25H73.6861
			c0.034,0,0.06561-0.01346,0.09985-0.01346c2.32733,0,4.21405-1.89848,4.21405-4.22581
			C78,18.79814,76.65216,17.15167,74.83612,16.68286z" />
      </g>
      <g id="sleetNight">
        <path id="XMLID_295_" class="moon glow" d="M135.12863,42c2.21295,1.4351,3.68024,3.92232,3.68024,6.75627
			c0,4.4473-3.60529,8.05257-8.05261,8.05257c-2.83395,0-5.32115-1.46729-6.75626-3.68018
			c0.59782,4.9517,4.80704,8.7913,9.91997,8.7913c5.5229,0,10.00006-4.47717,10.00006-10
			C143.92003,46.80701,140.0804,42.59778,135.12863,42z" />
        <path id="XMLID_294_" class="cloud light" d="M154.83612,56.7663c0.09784-0.5614,0.15887-1.1355,0.15887-1.72491
			c0-5.52008-4.47491-9.99493-9.995-9.99493c-4.56415,0-8.4057,3.06244-9.60211,7.24225
			c-0.45056-0.09967-0.9173-0.15619-1.39789-0.15619c-2.9881,0-5.49451,2.03424-6.22821,4.79132
			c-0.48273-0.19263-1.00629-0.30554-1.55774-0.30554c-2.32733,0-4.21405,1.88672-4.21405,4.21411
			c0,2.32733,1.88672,4.19586,4.21405,4.19586c0.03424,0,0.06586-0.02827,0.09985-0.02827h27.37219
			c0.034,0,0.06561,0.02827,0.09985,0.02827c2.32733,0,4.21405-1.87762,4.21405-4.20496
			C158,58.86073,156.65216,57.23512,154.83612,56.7663z" />
        <path id="XMLID_293_" class="rain med" d="M133.38277,75.85351c0.69037,1.19573,0.91074,2.36094,0.49223,2.60257
			c-0.4185,0.24162-1.31741-0.53184-2.00777-1.72757c-1.25-2.16506-1.74167-4.76665-2.99223-6.93269
			C130.12556,71.96185,132.13277,73.68845,133.38277,75.85351z" />
        <path id="XMLID_292_" class="rain med" d="M152.38277,73.85351c0.69037,1.19573,0.91074,2.36094,0.49223,2.60257
			c-0.4185,0.24162-1.31741-0.53184-2.00777-1.72757c-1.25-2.16506-1.74167-4.76665-2.99223-6.93269
			C149.12556,69.96185,151.13277,71.68845,152.38277,73.85351z" />
        <path id="XMLID_291_" class="rain med" d="M144.38277,75.85351c0.69037,1.19573,0.91074,2.36094,0.49223,2.60257
			c-0.4185,0.24162-1.31741-0.53184-2.00777-1.72757c-1.25-2.16506-1.74167-4.76665-2.99223-6.93269
			C141.12556,71.96185,143.13277,73.68845,144.38277,75.85351z" />
        <g id="XMLID_287_">
          <rect id="XMLID_290_" x="122.96828" y="70.88703" class="snow" width="4" height="0.5" />

          <rect id="XMLID_289_" x="122.96828" y="70.88703" transform="matrix(-0.5 -0.86603 0.86603 -0.5 125.84593 214.93124)" class="snow" width="4" height="0.5" />

          <rect id="XMLID_288_" x="122.96828" y="70.88703" transform="matrix(0.5 -0.86603 0.86603 0.5 0.87766 143.79422)" class="snow" width="4" height="0.5" />
        </g>
        <g id="XMLID_283_">
          <rect id="XMLID_286_" x="133.96828" y="69.74408" class="snow" width="4" height="0.5" />

          <rect id="XMLID_285_" x="133.96828" y="69.74408" transform="matrix(-0.5 -0.86603 0.86603 -0.5 143.33577 222.7431)" class="snow" width="4" height="0.5" />

          <rect id="XMLID_284_" x="133.96828" y="69.74408" transform="matrix(0.5 -0.86603 0.86603 0.5 7.36749 152.74902)" class="snow" width="4" height="0.5" />
        </g>
        <g id="XMLID_279_">
          <rect id="XMLID_282_" x="143.7072" y="71.65116" class="snow" width="4" height="0.5" />

          <rect id="XMLID_281_" x="143.7072" y="71.65116" transform="matrix(-0.5 -0.86603 0.86603 -0.5 156.29257 234.03789)" class="snow" width="4" height="0.5" />

          <rect id="XMLID_280_" x="143.7072" y="71.65116" transform="matrix(0.5 -0.86603 0.86603 0.5 10.58537 162.13672)" class="snow" width="4" height="0.5" />
        </g>
      </g>

      <g id="mist">
        <path id="XMLID_340_" class="cloud med" d="M234.83612,136.85361c0.09784-0.5614,0.15887-1.1355,0.15887-1.72491
			c0-5.52008-4.47491-9.99493-9.995-9.99493c-4.56415,0-8.4057,3.06244-9.60211,7.24225
			c-0.45056-0.09967-0.9173-0.15619-1.39789-0.15619c-2.9881,0-5.49451,2.03424-6.22821,4.79132
			c-0.48273-0.19263-1.00629-0.30554-1.55774-0.30554c-2.32733,0-4.21405,1.88672-4.21405,4.21411
			c0,2.32733,1.88672,4.15221,4.21405,4.15221c0.03424,0,0.06586-0.07191,0.09985-0.07191h27.37219
			c0.034,0,0.06561,0.07191,0.09985,0.07191c2.32733,0,4.21405-1.85579,4.21405-4.18312
			C238,138.92621,236.65216,137.32242,234.83612,136.85361z" />
        <path id="XMLID_339_" class="cloud med" d="M221.1416,129.18893c0.06001-0.34436,0.09746-0.69652,0.09746-1.05806
			c0-3.38601-2.7449-6.13087-6.13091-6.13087c-2.79964,0-5.15604,1.87849-5.88992,4.44238
			c-0.27637-0.06114-0.56267-0.09581-0.85745-0.09581c-1.8329,0-3.37032,1.2478-3.82037,2.93898
			c-0.29611-0.11815-0.61725-0.18741-0.95552-0.18741c-1.42758,0-2.58488,1.1573-2.58488,2.58493
			c0,1.42757,1.1573,2.45399,2.58488,2.45399c0.02101,0,0.04041-0.13707,0.06125-0.13707h16.79005
			c0.02084,0,0.04024,0.13707,0.06125,0.13707c1.42758,0,2.58488-1.09187,2.58488-2.51944
			C223.08232,130.41377,222.25555,129.4765,221.1416,129.18893z" />
        <rect id="XMLID_341_" x="205" y="148.5" class="cloud med" width="30" height="2" />
        <rect id="XMLID_343_" x="205" y="155" class="cloud med" width="30" height="2" />
      </g>
      <g id="lightSnow">
        <path id="XMLID_310_" class="cloud med" d="M194.83612,136.85361c0.09784-0.5614,0.15887-1.1355,0.15887-1.72491
			c0-5.52008-4.47491-9.99493-9.995-9.99493c-4.56415,0-8.4057,3.06244-9.60211,7.24225
			c-0.45056-0.09967-0.9173-0.15619-1.39789-0.15619c-2.9881,0-5.49451,2.03424-6.22821,4.79132
			c-0.48273-0.19263-1.00629-0.30554-1.55774-0.30554c-2.32733,0-4.21405,1.88672-4.21405,4.21411
			c0,2.32733,1.88672,4.15221,4.21405,4.15221c0.03424,0,0.06586-0.07191,0.09985-0.07191h27.37219
			c0.034,0,0.06561,0.07191,0.09985,0.07191c2.32733,0,4.21405-1.85579,4.21405-4.18312
			C198,138.92621,196.65216,137.32242,194.83612,136.85361z" />
        <path id="XMLID_309_" class="cloud med" d="M181.1416,129.18893c0.06001-0.34436,0.09746-0.69652,0.09746-1.05806
			c0-3.38601-2.7449-6.13087-6.13091-6.13087c-2.79964,0-5.15604,1.87849-5.88992,4.44238
			c-0.27637-0.06114-0.56267-0.09581-0.85745-0.09581c-1.8329,0-3.37032,1.2478-3.82037,2.93898
			c-0.29611-0.11815-0.61725-0.18741-0.95552-0.18741c-1.42758,0-2.58488,1.1573-2.58488,2.58493
			c0,1.42757,1.1573,2.45399,2.58488,2.45399c0.02101,0,0.04041-0.13707,0.06125-0.13707h16.79005
			c0.02084,0,0.04024,0.13707,0.06125,0.13707c1.42758,0,2.58488-1.09187,2.58488-2.51944
			C183.08232,130.41377,182.25555,129.4765,181.1416,129.18893z" />
        <g id="XMLID_322_">
          <rect id="XMLID_325_" x="162.968" y="150.88701" class="snow" width="4" height="0.5" />
          <rect id="XMLID_324_" x="162.968" y="150.88701" transform="matrix(-0.5 -0.86603 0.86603 -0.5 116.56351 369.57199)" class="snow" width="4" height="0.5" />
          <rect id="XMLID_323_" x="162.968" y="150.88701" transform="matrix(0.5 -0.86603 0.86603 0.5 -48.40448 218.43498)" class="snow" width="4" height="0.5" />
        </g>
        <g id="XMLID_318_">
          <rect id="XMLID_321_" x="173.968" y="149.74405" class="snow" width="4" height="0.5" />
          <rect id="XMLID_320_" x="173.968" y="149.74405" transform="matrix(-0.5 -0.86603 0.86603 -0.5 134.05334 377.38385)" class="snow" width="4" height="0.5" />

          <rect id="XMLID_319_" x="173.968" y="149.74405" transform="matrix(0.5 -0.86603 0.86603 0.5 -41.91466 227.38979)" class="snow" width="4" height="0.5" />
        </g>
        <g id="XMLID_314_">
          <rect id="XMLID_317_" x="179.61125" y="155.75507" class="snow" width="4" height="0.5" />

          <rect id="XMLID_316_" x="179.61125" y="155.75507" transform="matrix(-0.5 -0.86603 0.86603 -0.5 137.31252 391.28754)" class="snow" width="4" height="0.5" />

          <rect id="XMLID_315_" x="179.61125" y="155.75507" transform="matrix(0.5 -0.86603 0.86603 0.5 -44.29873 235.28249)" class="snow" width="4" height="0.5" />
        </g>
        <g id="XMLID_217_">
          <rect id="XMLID_313_" x="191.35017" y="152.66214" class="snow" width="4" height="0.5" />

          <rect id="XMLID_312_" x="191.35017" y="152.66214" transform="matrix(-0.5 -0.86603 0.86603 -0.5 157.59946 396.81439)" class="snow" width="4" height="0.5" />

          <rect id="XMLID_311_" x="191.35017" y="152.66214" transform="matrix(0.5 -0.86603 0.86603 0.5 -35.75072 243.90224)" class="snow" width="4" height="0.5" />
        </g>
      </g>
      <g id="cloudy">
        <path id="XMLID_12_" class="cloud med" d="M114.83612,136.85361c0.09784-0.5614,0.15887-1.1355,0.15887-1.72491
			c0-5.52008-4.47491-9.99493-9.995-9.99493c-4.56415,0-8.4057,3.06244-9.60211,7.24225
			c-0.45056-0.09967-0.9173-0.15619-1.39789-0.15619c-2.9881,0-5.49451,2.03424-6.22821,4.79132
			c-0.48273-0.19263-1.00629-0.30554-1.55774-0.30554c-2.32733,0-4.21405,1.88672-4.21405,4.21411
			c0,2.32733,1.88672,4.15221,4.21405,4.15221c0.03424,0,0.06586-0.07191,0.09985-0.07191h27.37219
			c0.034,0,0.06561,0.07191,0.09985,0.07191c2.32733,0,4.21405-1.85579,4.21405-4.18312
			C118,138.92621,116.65216,137.32242,114.83612,136.85361z" />
        <path id="XMLID_23_" class="cloud med" d="M101.14161,129.18893c0.06001-0.34436,0.09745-0.69652,0.09745-1.05806
			c0-3.38601-2.7449-6.13087-6.13091-6.13087c-2.79964,0-5.15604,1.87849-5.88992,4.44238
			c-0.27637-0.06114-0.56267-0.09581-0.85747-0.09581c-1.83289,0-3.37032,1.2478-3.82037,2.93898
			c-0.2961-0.11815-0.61726-0.18741-0.95551-0.18741c-1.42758,0-2.58489,1.1573-2.58489,2.58493
			c0,1.42757,1.15731,2.45399,2.58489,2.45399c0.021,0,0.04039-0.13707,0.06125-0.13707h16.79005
			c0.02085,0,0.04025,0.13707,0.06125,0.13707c1.42757,0,2.58488-1.09187,2.58488-2.51944
			C103.08232,130.41377,102.25556,129.4765,101.14161,129.18893z" />
      </g>
      <g id="lightRain">
        <path id="XMLID_21_" class="cloud med" d="M74.83612,136.85361c0.09784-0.5614,0.15887-1.1355,0.15887-1.72491
			c0-5.52008-4.47491-9.99493-9.995-9.99493c-4.56415,0-8.4057,3.06244-9.60211,7.24225
			c-0.45056-0.09967-0.9173-0.15619-1.39789-0.15619c-2.9881,0-5.49451,2.03424-6.22821,4.79132
			c-0.48273-0.19263-1.00629-0.30554-1.55774-0.30554c-2.32733,0-4.21405,1.88672-4.21405,4.21411
			c0,2.32733,1.88672,4.15221,4.21405,4.15221c0.03424,0,0.06586-0.07191,0.09985-0.07191H73.6861
			c0.034,0,0.06561,0.07191,0.09985,0.07191c2.32733,0,4.21405-1.85579,4.21405-4.18312
			C78,138.92621,76.65216,137.32242,74.83612,136.85361z" />
        <path id="XMLID_20_" class="cloud med" d="M61.14161,129.18893c0.06002-0.34436,0.09745-0.69652,0.09745-1.05806
			c0-3.38601-2.7449-6.13087-6.13091-6.13087c-2.79964,0-5.15604,1.87849-5.88992,4.44238
			c-0.27637-0.06114-0.56267-0.09581-0.85746-0.09581c-1.83289,0-3.37032,1.2478-3.82037,2.93898
			c-0.2961-0.11815-0.61726-0.18741-0.95552-0.18741c-1.42758,0-2.58489,1.1573-2.58489,2.58493
			c0,1.42757,1.15731,2.45399,2.58489,2.45399c0.021,0,0.0404-0.13707,0.06125-0.13707h16.79004
			c0.02085,0,0.04025,0.13707,0.06125,0.13707c1.42758,0,2.58489-1.09187,2.58489-2.51944
			C63.08232,130.41377,62.25556,129.4765,61.14161,129.18893z" />
        <path id="XMLID_10_" class="rain light" d="M52.38277,152.85352c0.69036,1.19572,0.91074,2.36093,0.49223,2.60255
			s-1.31742-0.53183-2.00777-1.72755c-1.25-2.16507-1.74167-4.76666-2.99223-6.93269
			C49.12556,148.96185,51.13277,150.68845,52.38277,152.85352z" />
        <path id="XMLID_24_" class="rain light" d="M72.38277,152.85352c0.69035,1.19572,0.91073,2.36093,0.49223,2.60255
			s-1.31741-0.53183-2.00777-1.72755c-1.25-2.16507-1.74167-4.76666-2.99223-6.93269
			C69.12556,148.96185,71.13277,150.68845,72.38277,152.85352z" />
        <path id="XMLID_25_" class="rain light" d="M62.38277,155.85352c0.69036,1.19572,0.91074,2.36093,0.49223,2.60255
			s-1.31742-0.53183-2.00777-1.72755c-1.25-2.16507-1.74167-4.76666-2.99223-6.93269
			C59.12556,151.96185,61.13277,153.68845,62.38277,155.85352z" />
      </g>
      <g id="sleet">
        <path id="XMLID_95_" class="cloud med" d="M21.14161,129.18893c0.06001-0.34436,0.09745-0.69652,0.09745-1.05806
			c0-3.38601-2.7449-6.13087-6.13091-6.13087c-2.79964,0-5.15604,1.87849-5.88992,4.44238
			c-0.27637-0.06114-0.56267-0.09581-0.85746-0.09581c-1.83289,0-3.37032,1.2478-3.82037,2.93898
			c-0.2961-0.11815-0.61725-0.18741-0.95551-0.18741c-1.42758,0-2.58489,1.1573-2.58489,2.58493
			c0,1.42757,1.15731,2.45399,2.58489,2.45399c0.021,0,0.0404-0.13707,0.06125-0.13707h16.79004
			c0.02085,0,0.04025,0.13707,0.06125,0.13707c1.42758,0,2.58489-1.09187,2.58489-2.51944
			C23.08232,130.41377,22.25556,129.4765,21.14161,129.18893z" />
        <path id="XMLID_93_" class="cloud med" d="M34.83612,136.85361c0.09784-0.5614,0.15887-1.1355,0.15887-1.72491
			c0-5.52008-4.47491-9.99493-9.995-9.99493c-4.56415,0-8.4057,3.06244-9.60211,7.24225
			c-0.45056-0.09967-0.9173-0.15619-1.39789-0.15619c-2.9881,0-5.49451,2.03424-6.22821,4.79132
			c-0.48273-0.19263-1.00629-0.30554-1.55774-0.30554C3.88672,136.7056,2,138.59232,2,140.91971
			c0,2.32733,1.88672,4.15221,4.21405,4.15221C6.24829,145.07191,6.27991,145,6.3139,145H33.6861
			c0.034,0,0.06561,0.07191,0.09985,0.07191c2.32733,0,4.21405-1.85579,4.21405-4.18312
			C38,138.92621,36.65216,137.32242,34.83612,136.85361z" />
        <path id="XMLID_92_" class="rain med" d="M13.38277,155.85352c0.69036,1.19572,0.91073,2.36093,0.49223,2.60255
			s-1.31742-0.53183-2.00777-1.72755c-1.25-2.16507-1.74167-4.76666-2.99223-6.93269
			C10.12556,151.96185,12.13277,153.68845,13.38277,155.85352z" />
        <path id="XMLID_91_" class="rain med" d="M32.38277,153.85352c0.69036,1.19572,0.91074,2.36093,0.49223,2.60255
			s-1.31742-0.53183-2.00777-1.72755c-1.25-2.16507-1.74167-4.76666-2.99223-6.93269
			C29.12556,149.96185,31.13277,151.68845,32.38277,153.85352z" />
        <path id="XMLID_90_" class="rain med" d="M24.38277,155.85352c0.69036,1.19572,0.91073,2.36093,0.49223,2.60255
			s-1.31742-0.53183-2.00777-1.72755c-1.25-2.16507-1.74167-4.76666-2.99223-6.93269
			C21.12556,151.96185,23.13277,153.68845,24.38277,155.85352z" />
        <g id="XMLID_86_">
          <rect id="XMLID_89_" x="2.96827" y="150.88704" class="snow" width="4" height="0.5" />

          <rect id="XMLID_88_" x="2.96827" y="150.88704" transform="matrix(-0.5 -0.86603 0.86603 -0.5 -123.4361 231.00821)" class="snow" width="4" height="0.5" />

          <rect id="XMLID_87_" x="2.96827" y="150.88704" transform="matrix(0.5 -0.86603 0.86603 0.5 -128.40437 79.87117)" class="snow" width="4" height="0.5" />
        </g>
        <g id="XMLID_81_">
          <rect id="XMLID_84_" x="13.96828" y="149.74408" class="snow" width="4" height="0.5" />

          <rect id="XMLID_83_" x="13.96828" y="149.74408" transform="matrix(-0.5 -0.86603 0.86603 -0.5 -105.94627 238.82005)" class="snow" width="4" height="0.5" />

          <rect id="XMLID_82_" x="13.96828" y="149.74408" transform="matrix(0.5 -0.86603 0.86603 0.5 -121.91455 88.82597)" class="snow" width="4" height="0.5" />
        </g>
        <g id="XMLID_58_">
          <rect id="XMLID_80_" x="23.7072" y="151.65117" class="snow" width="4" height="0.5" />

          <rect id="XMLID_78_" x="23.7072" y="151.65117" transform="matrix(-0.5 -0.86603 0.86603 -0.5 -92.98946 250.11484)" class="snow" width="4" height="0.5" />

          <rect id="XMLID_59_" x="23.7072" y="151.65117" transform="matrix(0.5 -0.86603 0.86603 0.5 -118.69667 98.21367)" class="snow" width="4" height="0.5" />
        </g>
      </g>


      <g id="fog">

        <path id="XMLID_345_" class="cloud" d="M234.83612,176.85408c0.09784-0.5614,0.15887-1.1355,0.15887-1.72491
			c0-5.52008-4.47491-9.99493-9.995-9.99493c-4.56415,0-8.4057,3.06244-9.60211,7.24225
			c-0.45056-0.09967-0.9173-0.15619-1.39789-0.15619c-2.9881,0-5.49451,2.03424-6.22821,4.79132
			c-0.48273-0.19263-1.00629-0.30554-1.55774-0.30554c-2.32733,0-4.21405,1.88672-4.21405,4.21411
			c0,2.32733,1.88672,4.15196,4.21405,4.15196c0.03424,0,0.06586-0.07214,0.09985-0.07214h27.37219
			c0.034,0,0.06561,0.07214,0.09985,0.07214c2.32733,0,4.21405-1.85567,4.21405-4.183
			C238,178.92656,236.65216,177.32289,234.83612,176.85408z" />

        <path id="XMLID_344_" class="cloud" d="M221.1416,169.18939c0.06001-0.34436,0.09746-0.6965,0.09746-1.05806
			c0-3.386-2.7449-6.13086-6.13091-6.13086c-2.79964,0-5.15604,1.87849-5.88992,4.44237
			c-0.27637-0.06113-0.56267-0.09579-0.85745-0.09579c-1.8329,0-3.37032,1.24779-3.82037,2.93898
			c-0.29611-0.11816-0.61725-0.18742-0.95552-0.18742c-1.42758,0-2.58488,1.15732-2.58488,2.58493
			c0,1.42758,1.1573,2.45377,2.58488,2.45377c0.02101,0,0.04041-0.1373,0.06125-0.1373h16.79005
			c0.02084,0,0.04024,0.1373,0.06125,0.1373c1.42758,0,2.58488-1.09175,2.58488-2.51933
			C223.08232,170.41412,222.25555,169.47696,221.1416,169.18939z" />

        <path id="XMLID_342_" class="cloud" d="M232.1416,185.18939c0.06001-0.34436,0.09746-0.6965,0.09746-1.05806
			c0-3.386-2.7449-6.13086-6.13091-6.13086c-2.79964,0-5.15604,1.87849-5.88992,4.44237
			c-0.27637-0.06113-0.56267-0.09579-0.85745-0.09579c-1.8329,0-3.37032,1.24779-3.82037,2.93898
			c-0.29611-0.11816-0.61725-0.18742-0.95552-0.18742c-1.42758,0-2.58488,1.15732-2.58488,2.58493
			c0,1.42758,1.1573,2.45377,2.58488,2.45377c0.02101,0,0.04041-0.1373,0.06125-0.1373h16.79005
			c0.02084,0,0.04024,0.1373,0.06125,0.1373c1.42758,0,2.58488-1.09175,2.58488-2.51933
			C234.08232,186.41412,233.25555,185.47696,232.1416,185.18939z" />

        <rect id="XMLID_347_" x="205" y="188.5" class="cloud" width="30" height="2" />

        <rect id="XMLID_349_" x="205" y="191.5" class="cloud" width="30" height="2" />

        <rect id="XMLID_346_" x="205" y="195" class="cloud" width="30" height="2" />
      </g>
      <g id="drizzle">

        <path id="XMLID_35_" class="cloud" d="M74.83612,176.85361c0.09784-0.5614,0.15887-1.1355,0.15887-1.72491
			c0-5.52008-4.47491-9.99493-9.995-9.99493c-4.56415,0-8.4057,3.06244-9.60211,7.24225
			c-0.45056-0.09967-0.9173-0.15619-1.39789-0.15619c-2.9881,0-5.49451,2.03424-6.22821,4.79132
			c-0.48273-0.19263-1.00629-0.30554-1.55774-0.30554c-2.32733,0-4.21405,1.88672-4.21405,4.21411
			c0,2.32733,1.88672,4.15221,4.21405,4.15221c0.03424,0,0.06586-0.07191,0.09985-0.07191H73.6861
			c0.034,0,0.06561,0.07191,0.09985,0.07191c2.32733,0,4.21405-1.85579,4.21405-4.18312
			C78,178.92621,76.65216,177.32242,74.83612,176.85361z" />

        <path id="XMLID_34_" class="cloud" d="M61.14161,169.18893c0.06002-0.34436,0.09745-0.69652,0.09745-1.05806
			c0-3.386-2.7449-6.13087-6.13091-6.13087c-2.79964,0-5.15604,1.87849-5.88992,4.44238
			c-0.27637-0.06114-0.56267-0.09581-0.85746-0.09581c-1.83289,0-3.37032,1.2478-3.82037,2.93898
			c-0.2961-0.11815-0.61726-0.18741-0.95552-0.18741c-1.42758,0-2.58489,1.1573-2.58489,2.58493
			c0,1.42757,1.15731,2.45399,2.58489,2.45399c0.021,0,0.0404-0.13707,0.06125-0.13707h16.79004
			c0.02085,0,0.04025,0.13707,0.06125,0.13707c1.42758,0,2.58489-1.09187,2.58489-2.51944
			C63.08232,170.41377,62.25556,169.4765,61.14161,169.18893z" />
        <path id="XMLID_33_" class="rain" d="M52.38277,192.85352c0.69036,1.19572,0.91074,2.36093,0.49223,2.60255
			s-1.31742-0.53183-2.00777-1.72755c-1.25-2.16507-1.74167-4.76666-2.99223-6.93269
			C49.12556,188.96185,51.13277,190.68845,52.38277,192.85352z" />
        <path id="XMLID_32_" class="rain" d="M72.38277,193.85352c0.69035,1.19572,0.91073,2.36093,0.49223,2.60255
			s-1.31741-0.53183-2.00777-1.72755c-1.25-2.16507-1.74167-4.76666-2.99223-6.93269
			C69.12556,189.96185,71.13277,191.68845,72.38277,193.85352z" />
        <path id="XMLID_22_" class="rain" d="M62.38277,195.85352c0.69036,1.19572,0.91074,2.36093,0.49223,2.60255
			s-1.31742-0.53183-2.00777-1.72755c-1.25-2.16507-1.74167-4.76666-2.99223-6.93269
			C59.12556,191.96185,61.13277,193.68845,62.38277,195.85352z" />

        <path id="XMLID_11_" class="cloud" d="M72.14128,185.18886c0.06001-0.34436,0.09746-0.69652,0.09746-1.05806
			c0-3.386-2.7449-6.13087-6.13091-6.13087c-2.79964,0-5.15604,1.87849-5.88991,4.44238
			c-0.27637-0.06114-0.56267-0.09581-0.85746-0.09581c-1.83289,0-3.37032,1.2478-3.82037,2.939
			c-0.2961-0.11816-0.61726-0.18742-0.95552-0.18742c-1.42758,0-2.58489,1.1573-2.58489,2.58493
			c0,1.42758,1.15731,2.45403,2.58489,2.45403c0.021,0,0.0404-0.13702,0.06125-0.13702h16.79004
			c0.02085,0,0.04025,0.13702,0.06125,0.13702c1.42758,0,2.58489-1.09187,2.58489-2.51945
			C74.082,186.41373,73.25524,185.47643,72.14128,185.18886z" />
      </g>
      <g id="overcast">

        <path id="XMLID_16_" class="cloud" d="M154.83612,136.85361c0.09784-0.5614,0.15887-1.1355,0.15887-1.72491
			c0-5.52008-4.47491-9.99493-9.995-9.99493c-4.56415,0-8.4057,3.06244-9.60211,7.24225
			c-0.45056-0.09967-0.9173-0.15619-1.39789-0.15619c-2.9881,0-5.49451,2.03424-6.22821,4.79132
			c-0.48273-0.19263-1.00629-0.30554-1.55774-0.30554c-2.32733,0-4.21405,1.88672-4.21405,4.21411
			c0,2.32733,1.88672,4.15221,4.21405,4.15221c0.03424,0,0.06586-0.07191,0.09985-0.07191h27.37219
			c0.034,0,0.06561,0.07191,0.09985,0.07191c2.32733,0,4.21405-1.85579,4.21405-4.18312
			C158,138.92621,156.65216,137.32242,154.83612,136.85361z" />
        <path id="XMLID_18_" class="cloud" d="M141.1416,129.18893c0.06001-0.34436,0.09746-0.69652,0.09746-1.05806
			c0-3.38601-2.7449-6.13087-6.13091-6.13087c-2.79964,0-5.15604,1.87849-5.88992,4.44238
			c-0.27637-0.06114-0.56267-0.09581-0.85745-0.09581c-1.8329,0-3.37032,1.2478-3.82037,2.93898
			c-0.2961-0.11815-0.61726-0.18741-0.95551-0.18741c-1.42758,0-2.58489,1.1573-2.58489,2.58493
			c0,1.42757,1.15731,2.45399,2.58489,2.45399c0.021,0,0.04039-0.13707,0.06125-0.13707h16.79005
			c0.02084,0,0.04024,0.13707,0.06125,0.13707c1.42758,0,2.58488-1.09187,2.58488-2.51944
			C143.08232,130.41377,142.25555,129.4765,141.1416,129.18893z" />

        <path id="XMLID_19_" class="cloud" d="M152.1416,145.18893c0.06001-0.34436,0.09746-0.69652,0.09746-1.05806
			c0-3.386-2.7449-6.13087-6.13091-6.13087c-2.79964,0-5.15604,1.87849-5.88992,4.44238
			c-0.27637-0.06114-0.56267-0.09581-0.85745-0.09581c-1.8329,0-3.37032,1.2478-3.82037,2.93898
			c-0.29611-0.11815-0.61725-0.18741-0.95552-0.18741c-1.42758,0-2.58488,1.1573-2.58488,2.58493
			c0,1.42757,1.1573,2.45399,2.58488,2.45399c0.02101,0,0.04041-0.13707,0.06125-0.13707h16.79005
			c0.02084,0,0.04024,0.13707,0.06125,0.13707c1.42758,0,2.58488-1.09187,2.58488-2.51944
			C154.08232,146.41377,153.25555,145.4765,152.1416,145.18893z" />
      </g>
      <g id="heavySnowNight">
        <path id="XMLID_306_" class="moon glow" d="M135.12863,82c2.21295,1.4351,3.68024,3.92233,3.68024,6.75626
			c0,4.44731-3.60529,8.05257-8.05261,8.05257c-2.83395,0-5.32115-1.46729-6.75626-3.68018
			c0.59782,4.9517,4.80704,8.7913,9.91997,8.7913c5.5229,0,10.00006-4.47717,10.00006-10
			C143.92003,86.80701,140.0804,82.59778,135.12863,82z" />
        <g id="XMLID_274_">
          <rect id="XMLID_277_" x="122.968" y="110.88703" class="snow" width="4" height="0.5" />

          <rect id="XMLID_276_" x="122.968" y="110.88703" transform="matrix(-0.5 -0.86603 0.86603 -0.5 91.20451 274.931)" class="snow" width="4" height="0.5" />

          <rect id="XMLID_275_" x="122.968" y="110.88703" transform="matrix(0.5 -0.86603 0.86603 0.5 -33.76349 163.79398)" class="snow" width="4" height="0.5" />
        </g>
        <g id="XMLID_270_">
          <rect id="XMLID_273_" x="133.968" y="109.74408" class="snow" width="4" height="0.5" />

          <rect id="XMLID_272_" x="133.968" y="109.74408" transform="matrix(-0.5 -0.86603 0.86603 -0.5 108.69434 282.74286)" class="snow" width="4" height="0.5" />

          <rect id="XMLID_271_" x="133.968" y="109.74408" transform="matrix(0.5 -0.86603 0.86603 0.5 -27.27367 172.74878)" class="snow" width="4" height="0.5" />
        </g>
        <g id="XMLID_266_">
          <rect id="XMLID_269_" x="143.70692" y="111.65116" class="snow" width="4" height="0.5" />

          <rect id="XMLID_268_" x="143.70692" y="111.65116" transform="matrix(-0.5 -0.86603 0.86603 -0.5 121.65114 294.03766)" class="snow" width="4" height="0.5" />

          <rect id="XMLID_267_" x="143.70692" y="111.65116" transform="matrix(0.5 -0.86603 0.86603 0.5 -24.05579 182.13647)" class="snow" width="4" height="0.5" />
        </g>
        <g id="XMLID_262_">
          <rect id="XMLID_265_" x="130.61125" y="116.89805" class="snow" width="4" height="0.5" />

          <rect id="XMLID_264_" x="130.61125" y="116.89805" transform="matrix(-0.5 -0.86603 0.86603 -0.5 97.46368 290.56677)" class="snow" width="4" height="0.5" />

          <rect id="XMLID_263_" x="130.61125" y="116.89805" transform="matrix(0.5 -0.86603 0.86603 0.5 -35.14756 173.41873)" class="snow" width="4" height="0.5" />
        </g>
        <g id="XMLID_258_">
          <rect id="XMLID_261_" x="139.61125" y="115.7551" class="snow" width="4" height="0.5" />

          <rect id="XMLID_260_" x="139.61125" y="115.7551" transform="matrix(-0.5 -0.86603 0.86603 -0.5 111.95351 296.64658)" class="snow" width="4" height="0.5" />

          <rect id="XMLID_259_" x="139.61125" y="115.7551" transform="matrix(0.5 -0.86603 0.86603 0.5 -29.65773 180.64148)" class="snow" width="4" height="0.5" />
        </g>
        <g id="XMLID_254_">
          <rect id="XMLID_257_" x="151.35017" y="112.66218" class="snow" width="4" height="0.5" />

          <rect id="XMLID_256_" x="151.35017" y="112.66218" transform="matrix(-0.5 -0.86603 0.86603 -0.5 132.24045 302.1734)" class="snow" width="4" height="0.5" />

          <rect id="XMLID_255_" x="151.35017" y="112.66218" transform="matrix(0.5 -0.86603 0.86603 0.5 -21.10973 189.26123)" class="snow" width="4" height="0.5" />
        </g>

        <path id="XMLID_253_" class="cloud" d="M154.83612,96.85361c0.09784-0.5614,0.15887-1.1355,0.15887-1.72491
			c0-5.52008-4.47491-9.99493-9.995-9.99493c-4.56415,0-8.4057,3.06244-9.60211,7.24225
			c-0.45056-0.09967-0.9173-0.15619-1.39789-0.15619c-2.9881,0-5.49451,2.03424-6.22821,4.79132
			c-0.48273-0.19263-1.00629-0.30554-1.55774-0.30554c-2.32733,0-4.21405,1.88672-4.21405,4.21411
			c0,2.32733,1.88672,4.15221,4.21405,4.15221c0.03424,0,0.06586-0.07191,0.09985-0.07191h27.37219
			c0.034,0,0.06561,0.07191,0.09985,0.07191c2.32733,0,4.21405-1.8558,4.21405-4.18313
			C158,98.9262,156.65216,97.32242,154.83612,96.85361z" />

        <path id="XMLID_252_" class="cloud" d="M141.1416,89.18893c0.06001-0.34436,0.09746-0.69651,0.09746-1.05806
			c0-3.386-2.7449-6.13087-6.13091-6.13087c-2.79964,0-5.15604,1.87849-5.88992,4.44238
			c-0.27637-0.06113-0.56267-0.0958-0.85745-0.0958c-1.8329,0-3.37032,1.2478-3.82037,2.93899
			c-0.2961-0.11816-0.61726-0.18742-0.95551-0.18742c-1.42758,0-2.58489,1.15731-2.58489,2.58493
			c0,1.42758,1.15731,2.454,2.58489,2.454c0.021,0,0.04039-0.13707,0.06125-0.13707h16.79005
			c0.02084,0,0.04024,0.13707,0.06125,0.13707c1.42758,0,2.58488-1.09187,2.58488-2.51945
			C143.08232,90.41378,142.25555,89.47649,141.1416,89.18893z" />

        <path id="XMLID_251_" class="cloud" d="M152.14128,105.18886c0.06001-0.34436,0.09746-0.69651,0.09746-1.05806
			c0-3.38601-2.7449-6.13087-6.13091-6.13087c-2.79965,0-5.15605,1.87849-5.88992,4.44238
			c-0.27637-0.06113-0.56267-0.09581-0.85745-0.09581c-1.8329,0-3.37033,1.2478-3.82037,2.93899
			c-0.29611-0.11816-0.61726-0.18742-0.95552-0.18742c-1.42758,0-2.58488,1.15731-2.58488,2.58492
			c0,1.42758,1.1573,2.45404,2.58488,2.45404c0.02101,0,0.04041-0.13703,0.06125-0.13703h16.79005
			c0.02084,0,0.04024,0.13703,0.06125,0.13703c1.42758,0,2.58488-1.09188,2.58488-2.51946
			C154.082,106.41372,153.25523,105.47643,152.14128,105.18886z" />
      </g>
      <g id="heavySnowDay">
        <circle id="XMLID_127_" class="sun glow" cx="15.96828" cy="92" r="10" />
        <g id="XMLID_142_">
          <rect id="XMLID_145_" x="2.968" y="110.88703" class="snow" width="4" height="0.5" />

          <rect id="XMLID_144_" x="2.968" y="110.88703" transform="matrix(-0.5 -0.86603 0.86603 -0.5 -88.79549 171.00797)" class="snow" width="4" height="0.5" />

          <rect id="XMLID_143_" x="2.968" y="110.88703" transform="matrix(0.5 -0.86603 0.86603 0.5 -93.7635 59.87093)" class="snow" width="4" height="0.5" />
        </g>
        <g id="XMLID_123_">
          <rect id="XMLID_141_" x="13.968" y="109.74408" class="snow" width="4" height="0.5" />

          <rect id="XMLID_125_" x="13.968" y="109.74408" transform="matrix(-0.5 -0.86603 0.86603 -0.5 -71.30566 178.81981)" class="snow" width="4" height="0.5" />

          <rect id="XMLID_124_" x="13.968" y="109.74408" transform="matrix(0.5 -0.86603 0.86603 0.5 -87.27367 68.82574)" class="snow" width="4" height="0.5" />
        </g>
        <g id="XMLID_119_">
          <rect id="XMLID_122_" x="23.70693" y="111.65116" class="snow" width="4" height="0.5" />

          <rect id="XMLID_121_" x="23.70693" y="111.65116" transform="matrix(-0.5 -0.86603 0.86603 -0.5 -58.34886 190.11459)" class="snow" width="4" height="0.5" />

          <rect id="XMLID_120_" x="23.70693" y="111.65116" transform="matrix(0.5 -0.86603 0.86603 0.5 -84.05579 78.21343)" class="snow" width="4" height="0.5" />
        </g>
        <g id="XMLID_115_">
          <rect id="XMLID_118_" x="10.61125" y="116.89805" class="snow" width="4" height="0.5" />

          <rect id="XMLID_117_" x="10.61125" y="116.89805" transform="matrix(-0.5 -0.86603 0.86603 -0.5 -82.53632 186.64372)" class="snow" width="4" height="0.5" />

          <rect id="XMLID_116_" x="10.61125" y="116.89805" transform="matrix(0.5 -0.86603 0.86603 0.5 -95.14756 69.49568)" class="snow" width="4" height="0.5" />
        </g>
        <g id="XMLID_111_">
          <rect id="XMLID_114_" x="19.61125" y="115.7551" class="snow" width="4" height="0.5" />

          <rect id="XMLID_113_" x="19.61125" y="115.7551" transform="matrix(-0.5 -0.86603 0.86603 -0.5 -68.04649 192.72353)" class="snow" width="4" height="0.5" />

          <rect id="XMLID_112_" x="19.61125" y="115.7551" transform="matrix(0.5 -0.86603 0.86603 0.5 -89.65774 76.71844)" class="snow" width="4" height="0.5" />
        </g>
        <g id="XMLID_57_">
          <rect id="XMLID_109_" x="31.35017" y="112.66218" class="snow" width="4" height="0.5" />

          <rect id="XMLID_108_" x="31.35017" y="112.66218" transform="matrix(-0.5 -0.86603 0.86603 -0.5 -47.75956 198.25037)" class="snow" width="4" height="0.5" />

          <rect id="XMLID_107_" x="31.35017" y="112.66218" transform="matrix(0.5 -0.86603 0.86603 0.5 -81.10973 85.33819)" class="snow" width="4" height="0.5" />
        </g>

        <path id="XMLID_151_" class="cloud" d="M34.83612,96.85361c0.09784-0.5614,0.15887-1.1355,0.15887-1.72491
			c0-5.52008-4.47491-9.99493-9.995-9.99493c-4.56415,0-8.4057,3.06244-9.60211,7.24225
			c-0.45056-0.09967-0.9173-0.15619-1.39789-0.15619c-2.9881,0-5.49451,2.03424-6.22821,4.79132
			C7.28906,96.81851,6.7655,96.7056,6.21405,96.7056C3.88672,96.7056,2,98.59232,2,100.91971
			c0,2.32733,1.88672,4.15221,4.21405,4.15221C6.24829,105.07191,6.27991,105,6.3139,105H33.6861
			c0.034,0,0.06561,0.07191,0.09985,0.07191c2.32733,0,4.21405-1.8558,4.21405-4.18313
			C38,98.9262,36.65216,97.32242,34.83612,96.85361z" />

        <path id="XMLID_146_" class="cloud" d="M21.14161,89.18893c0.06001-0.34436,0.09745-0.69651,0.09745-1.05806
			c0-3.386-2.7449-6.13087-6.13091-6.13087c-2.79964,0-5.15604,1.87849-5.88992,4.44238
			c-0.27637-0.06113-0.56267-0.0958-0.85746-0.0958c-1.83289,0-3.37032,1.2478-3.82037,2.93899
			c-0.2961-0.11816-0.61725-0.18742-0.95551-0.18742C2.15731,89.09814,1,90.25545,1,91.68307c0,1.42758,1.15731,2.454,2.58489,2.454
			c0.021,0,0.0404-0.13707,0.06125-0.13707h16.79004c0.02085,0,0.04025,0.13707,0.06125,0.13707
			c1.42758,0,2.58489-1.09187,2.58489-2.51945C23.08232,90.41378,22.25556,89.47649,21.14161,89.18893z" />

        <path id="XMLID_128_" class="cloud" d="M32.14128,105.18886c0.06001-0.34436,0.09745-0.69651,0.09745-1.05806
			c0-3.38601-2.7449-6.13087-6.13091-6.13087c-2.79964,0-5.15604,1.87849-5.88992,4.44238
			c-0.27637-0.06113-0.56267-0.09581-0.85746-0.09581c-1.83289,0-3.37032,1.2478-3.82037,2.93899
			c-0.2961-0.11816-0.61725-0.18742-0.95551-0.18742c-1.42758,0-2.58489,1.15731-2.58489,2.58492
			c0,1.42758,1.15731,2.45404,2.58489,2.45404c0.021,0,0.0404-0.13703,0.06125-0.13703h16.79004
			c0.02085,0,0.04025,0.13703,0.06125,0.13703c1.42758,0,2.58489-1.09188,2.58489-2.51946
			C34.082,106.41372,33.25524,105.47643,32.14128,105.18886z" />
      </g>
      <g id="heavyRainNight">
        <path id="XMLID_278_" class="moon glow" d="M175.12863,42c2.21295,1.4351,3.68024,3.92232,3.68024,6.75627
			c0,4.4473-3.60529,8.05257-8.05261,8.05257c-2.83395,0-5.32115-1.46729-6.75626-3.68018
			c0.59782,4.9517,4.80704,8.7913,9.91997,8.7913c5.5229,0,10.00006-4.47717,10.00006-10
			C183.92003,46.80701,180.0804,42.59778,175.12863,42z" />

        <path id="XMLID_231_" class="cloud" d="M194.83612,56.76631c0.09784-0.5614,0.15887-1.1355,0.15887-1.72491
			c0-5.52008-4.47491-9.99493-9.995-9.99493c-4.56415,0-8.4057,3.06244-9.60211,7.24225
			c-0.45056-0.09967-0.9173-0.15619-1.39789-0.15619c-2.9881,0-5.49451,2.03424-6.22821,4.79132
			c-0.48273-0.19263-1.00629-0.30554-1.55774-0.30554c-2.32733,0-4.21405,1.88672-4.21405,4.21411
			c0,2.32733,1.88672,4.19586,4.21405,4.19586c0.03424,0,0.06586-0.02827,0.09985-0.02827h27.37219
			c0.034,0,0.06561,0.02827,0.09985,0.02827c2.32733,0,4.21405-1.87762,4.21405-4.20496
			C198,58.86073,196.65216,57.23512,194.83612,56.76631z" />

        <path id="XMLID_230_" class="cloud" d="M181.1416,49.18893c0.06001-0.34436,0.09746-0.69651,0.09746-1.05806
			c0-3.38601-2.7449-6.13087-6.13091-6.13087c-2.79964,0-5.15604,1.87849-5.88992,4.44238
			c-0.27637-0.06114-0.56267-0.09581-0.85745-0.09581c-1.8329,0-3.37032,1.2478-3.82037,2.93899
			c-0.29611-0.11816-0.61725-0.18742-0.95552-0.18742c-1.42758,0-2.58488,1.15731-2.58488,2.58493
			c0,1.42758,1.1573,2.454,2.58488,2.454c0.02101,0,0.04041-0.13707,0.06125-0.13707h16.79005
			c0.02084,0,0.04024,0.13707,0.06125,0.13707c1.42758,0,2.58488-1.09186,2.58488-2.51944
			C183.08232,50.41378,182.25555,49.4765,181.1416,49.18893z" />
        <path id="XMLID_229_" class="rain" d="M173.38277,75.85351c0.69037,1.19573,0.91074,2.36094,0.49223,2.60257
			c-0.4185,0.24162-1.31741-0.53184-2.00777-1.72757c-1.25-2.16506-1.74167-4.76665-2.99223-6.93269
			C170.12556,71.96185,172.13277,73.68845,173.38277,75.85351z" />
        <path id="XMLID_228_" class="rain" d="M192.38277,73.85351c0.69037,1.19573,0.91074,2.36094,0.49223,2.60257
			c-0.4185,0.24162-1.31741-0.53184-2.00777-1.72757c-1.25-2.16506-1.74167-4.76665-2.99223-6.93269
			C189.12556,69.96185,191.13277,71.68845,192.38277,73.85351z" />
        <path id="XMLID_227_" class="rain" d="M184.38277,75.85351c0.69037,1.19573,0.91074,2.36094,0.49223,2.60257
			c-0.4185,0.24162-1.31741-0.53184-2.00777-1.72757c-1.25-2.16506-1.74167-4.76665-2.99223-6.93269
			C181.12556,71.96185,183.13277,73.68845,184.38277,75.85351z" />
        <path id="XMLID_226_" class="rain" d="M167.38277,70.85351c0.69037,1.19573,0.91074,2.36094,0.49223,2.60257
			c-0.4185,0.24162-1.31741-0.53184-2.00777-1.72757c-1.25-2.16506-1.74167-4.76665-2.99223-6.93269
			C164.12556,66.96185,166.13277,68.68845,167.38277,70.85351z" />
        <path id="XMLID_225_" class="rain" d="M187.38277,71.85351c0.69037,1.19573,0.91074,2.36094,0.49223,2.60257
			c-0.4185,0.24162-1.31741-0.53184-2.00777-1.72757c-1.25-2.16506-1.74167-4.76665-2.99223-6.93269
			C184.12556,67.96185,186.13277,69.68845,187.38277,71.85351z" />
        <path id="XMLID_224_" class="rain" d="M177.38277,73.85351c0.69037,1.19573,0.91074,2.36094,0.49223,2.60257
			c-0.4185,0.24162-1.31741-0.53184-2.00777-1.72757c-1.25-2.16506-1.74167-4.76665-2.99223-6.93269
			C174.12556,69.96185,176.13277,71.68845,177.38277,73.85351z" />

        <path id="XMLID_223_" class="cloud" d="M192.14128,65.18886c0.06001-0.34436,0.09746-0.69651,0.09746-1.05806
			c0-3.38601-2.7449-6.13087-6.13091-6.13087c-2.79965,0-5.15605,1.87849-5.88992,4.44238
			c-0.27637-0.06114-0.56267-0.09581-0.85745-0.09581c-1.8329,0-3.37033,1.2478-3.82037,2.93898
			c-0.29611-0.11816-0.61726-0.18742-0.95552-0.18742c-1.42758,0-2.58488,1.15731-2.58488,2.58493
			c0,1.42757,1.1573,2.45403,2.58488,2.45403c0.02101,0,0.04041-0.13703,0.06125-0.13703h16.79005
			c0.02084,0,0.04024,0.13703,0.06125,0.13703c1.42758,0,2.58488-1.09188,2.58488-2.51946
			C194.082,66.41372,193.25523,65.47643,192.14128,65.18886z" />
      </g>
      <g id="heavyRainDay">
        <circle id="XMLID_169_" class="sun glow" cx="55.96828" cy="52" r="10" />

        <path id="XMLID_168_" class="cloud" d="M74.83612,56.76631c0.09784-0.5614,0.15887-1.1355,0.15887-1.72491
			c0-5.52008-4.47491-9.99493-9.995-9.99493c-4.56415,0-8.4057,3.06244-9.60211,7.24225
			c-0.45056-0.09967-0.9173-0.15619-1.39789-0.15619c-2.9881,0-5.49451,2.03424-6.22821,4.79132
			c-0.48273-0.19263-1.00629-0.30554-1.55774-0.30554C43.88672,56.6183,42,58.50502,42,60.83241
			c0,2.32733,1.88672,4.19586,4.21405,4.19586C46.24829,65.02827,46.27991,65,46.3139,65H73.6861
			c0.034,0,0.06561,0.02827,0.09985,0.02827c2.32733,0,4.21405-1.87762,4.21405-4.20496
			C78,58.86073,76.65216,57.23512,74.83612,56.76631z" />

        <path id="XMLID_167_" class="cloud" d="M61.14161,49.18893c0.06002-0.34436,0.09745-0.69651,0.09745-1.05806
			c0-3.38601-2.7449-6.13087-6.13091-6.13087c-2.79964,0-5.15604,1.87849-5.88992,4.44238
			c-0.27637-0.06114-0.56267-0.09581-0.85746-0.09581c-1.83289,0-3.37032,1.2478-3.82037,2.93899
			c-0.2961-0.11816-0.61726-0.18742-0.95552-0.18742C42.15731,49.09814,41,50.25545,41,51.68307
			c0,1.42758,1.15731,2.454,2.58489,2.454c0.021,0,0.0404-0.13707,0.06125-0.13707h16.79004
			c0.02085,0,0.04025,0.13707,0.06125,0.13707c1.42758,0,2.58489-1.09186,2.58489-2.51944
			C63.08232,50.41378,62.25556,49.4765,61.14161,49.18893z" />
        <path id="XMLID_166_" class="rain" d="M53.38277,75.85351c0.69036,1.19573,0.91074,2.36094,0.49223,2.60257
			c-0.41851,0.24162-1.31742-0.53184-2.00777-1.72757c-1.25-2.16506-1.74167-4.76665-2.99223-6.93269
			C50.12556,71.96185,52.13277,73.68845,53.38277,75.85351z" />
        <path id="XMLID_165_" class="rain" d="M72.38277,73.85351c0.69035,1.19573,0.91073,2.36094,0.49223,2.60257
			c-0.4185,0.24162-1.31741-0.53184-2.00777-1.72757c-1.25-2.16506-1.74167-4.76665-2.99223-6.93269
			C69.12556,69.96185,71.13277,71.68845,72.38277,73.85351z" />
        <path id="XMLID_164_" class="rain" d="M64.38277,75.85351c0.69035,1.19573,0.91073,2.36094,0.49223,2.60257
			c-0.4185,0.24162-1.31742-0.53184-2.00777-1.72757c-1.25-2.16506-1.74167-4.76665-2.99223-6.93269
			C61.12556,71.96185,63.13277,73.68845,64.38277,75.85351z" />
        <path id="XMLID_163_" class="rain" d="M47.38277,70.85351c0.69036,1.19573,0.91074,2.36094,0.49223,2.60257
			c-0.41851,0.24162-1.31742-0.53184-2.00777-1.72757c-1.25-2.16506-1.74167-4.76665-2.99223-6.93269
			C44.12556,66.96185,46.13277,68.68845,47.38277,70.85351z" />
        <path id="XMLID_162_" class="rain" d="M67.38277,71.85351c0.69035,1.19573,0.91073,2.36094,0.49223,2.60257
			c-0.4185,0.24162-1.31741-0.53184-2.00777-1.72757c-1.25-2.16506-1.74167-4.76665-2.99223-6.93269
			C64.12556,67.96185,66.13277,69.68845,67.38277,71.85351z" />
        <path id="XMLID_152_" class="rain" d="M57.38277,73.85351c0.69036,1.19573,0.91074,2.36094,0.49223,2.60257
			c-0.41851,0.24162-1.31742-0.53184-2.00777-1.72757c-1.25-2.16506-1.74167-4.76665-2.99223-6.93269
			C54.12556,69.96185,56.13277,71.68845,57.38277,73.85351z" />

        <path id="XMLID_126_" class="cloud" d="M72.14128,65.18886c0.06001-0.34436,0.09746-0.69651,0.09746-1.05806
			c0-3.38601-2.7449-6.13087-6.13091-6.13087c-2.79964,0-5.15604,1.87849-5.88991,4.44238
			c-0.27637-0.06114-0.56267-0.09581-0.85746-0.09581c-1.83289,0-3.37032,1.2478-3.82037,2.93898
			c-0.2961-0.11816-0.61726-0.18742-0.95552-0.18742c-1.42758,0-2.58489,1.15731-2.58489,2.58493
			c0,1.42757,1.15731,2.45403,2.58489,2.45403c0.021,0,0.0404-0.13703,0.06125-0.13703h16.79004
			c0.02085,0,0.04025,0.13703,0.06125,0.13703c1.42758,0,2.58489-1.09188,2.58489-2.51946
			C74.082,66.41372,73.25524,65.47643,72.14128,65.18886z" />
      </g>
      <g id="hailNight">
        <path id="XMLID_232_" class="moon glow" d="M215.12863,2c2.21295,1.4351,3.68024,3.92232,3.68024,6.75627
			c0,4.44731-3.60529,8.05257-8.05261,8.05257c-2.83395,0-5.32115-1.46729-6.75626-3.68018
			c0.59782,4.9517,4.80704,8.7913,9.91997,8.7913c5.5229,0,10.00006-4.47717,10.00006-10
			C223.92003,6.80701,220.0804,2.59778,215.12863,2z" />

        <path id="XMLID_216_" class="cloud" d="M234.83612,16.85361c0.09784-0.5614,0.15887-1.1355,0.15887-1.72491
			c0-5.52008-4.47491-9.99493-9.995-9.99493c-4.56415,0-8.4057,3.06244-9.60211,7.24225
			c-0.45056-0.09967-0.9173-0.15619-1.39789-0.15619c-2.9881,0-5.49451,2.03424-6.22821,4.79132
			c-0.48273-0.19263-1.00629-0.30554-1.55774-0.30554c-2.32733,0-4.21405,1.88672-4.21405,4.21411
			c0,2.32733,1.88672,4.15221,4.21405,4.15221c0.03424,0,0.06586-0.07192,0.09985-0.07192h27.37219
			c0.034,0,0.06561,0.07192,0.09985,0.07192c2.32733,0,4.21405-1.8558,4.21405-4.18313
			C238,18.9262,236.65216,17.32242,234.83612,16.85361z" />

        <path id="XMLID_215_" class="cloud" d="M221.1416,9.18893c0.06001-0.34436,0.09746-0.69651,0.09746-1.05806
			c0-3.38601-2.7449-6.13087-6.13091-6.13087c-2.79964,0-5.15604,1.87849-5.88992,4.44238
			c-0.27637-0.06114-0.56267-0.09581-0.85745-0.09581c-1.8329,0-3.37032,1.2478-3.82037,2.93899
			c-0.29611-0.11816-0.61725-0.18742-0.95552-0.18742c-1.42758,0-2.58488,1.15731-2.58488,2.58493
			c0,1.42758,1.1573,2.454,2.58488,2.454c0.02101,0,0.04041-0.13707,0.06125-0.13707h16.79005
			c0.02084,0,0.04024,0.13707,0.06125,0.13707c1.42758,0,2.58488-1.09186,2.58488-2.51944
			C223.08232,10.41378,222.25555,9.4765,221.1416,9.18893z" />
        <path id="XMLID_214_" class="rain" d="M207.38277,30.85351c0.69037,1.19573,0.91074,2.36094,0.49223,2.60256
			c-0.4185,0.24163-1.31741-0.53183-2.00777-1.72756c-1.25-2.16506-1.74167-4.76666-2.99223-6.93269
			C204.12556,26.96185,206.13277,28.68845,207.38277,30.85351z" />
        <path id="XMLID_213_" class="rain" d="M227.38277,31.85351c0.69037,1.19573,0.91074,2.36094,0.49223,2.60256
			c-0.4185,0.24163-1.31741-0.53183-2.00777-1.72756c-1.25-2.16506-1.74167-4.76666-2.99223-6.93269
			C224.12556,27.96185,226.13277,29.68845,227.38277,31.85351z" />
        <path id="XMLID_212_" class="rain" d="M217.38277,33.85351c0.69037,1.19573,0.91074,2.36094,0.49223,2.60256
			c-0.4185,0.24163-1.31741-0.53183-2.00777-1.72756c-1.25-2.16506-1.74167-4.76666-2.99223-6.93269
			C214.12556,29.96185,216.13277,31.68845,217.38277,33.85351z" />

        <path id="XMLID_211_" class="cloud" d="M232.14128,25.18886c0.06001-0.34436,0.09746-0.69651,0.09746-1.05806
			c0-3.38601-2.7449-6.13087-6.13091-6.13087c-2.79965,0-5.15605,1.87849-5.88992,4.44238
			c-0.27637-0.06114-0.56267-0.09581-0.85745-0.09581c-1.8329,0-3.37033,1.2478-3.82037,2.93899
			c-0.29611-0.11816-0.61726-0.18742-0.95552-0.18742c-1.42758,0-2.58488,1.15731-2.58488,2.58493
			c0,1.42758,1.1573,2.45404,2.58488,2.45404c0.02101,0,0.04041-0.13703,0.06125-0.13703h16.79005
			c0.02084,0,0.04024,0.13703,0.06125,0.13703c1.42758,0,2.58488-1.09188,2.58488-2.51946
			C234.082,26.41372,233.25523,25.47643,232.14128,25.18886z" />

        <rect id="XMLID_203_" x="211" y="30.20034" transform="matrix(0.86603 -0.5 0.5 0.86603 11.95181 110.00606)" class="snow light" width="0.5" height="5.00063" />
        <rect id="XMLID_198_" x="222" y="31.20034" transform="matrix(0.86603 -0.5 0.5 0.86603 12.92553 115.64003)" class="snow light" width="0.5" height="5.00063" />
        <rect id="XMLID_196_" x="231" y="30.20034" transform="matrix(0.86603 -0.5 0.5 0.86603 14.6313 120.00606)" class="snow light" width="0.5" height="5.00063" />
        <circle id="XMLID_204_" class="snow" cx="213.50015" cy="36.59803" r="1" />
        <circle id="XMLID_197_" class="snow" cx="233.50015" cy="36.59803" r="1" />
        <circle id="XMLID_202_" class="snow" cx="224.50015" cy="37.59803" r="1" />
      </g>
      <g id="hailNight_1_">
        <circle id="XMLID_201_" class="sun glow" cx="95.96828" cy="12" r="10" />

        <path id="XMLID_200_" class="cloud" d="M114.83612,16.78169c0.09784-0.5614,0.15887-1.1355,0.15887-1.72492
			c0-5.52008-4.47491-9.99493-9.995-9.99493c-4.56415,0-8.4057,3.06244-9.60211,7.24225
			C94.94733,12.20442,94.48059,12.1479,94,12.1479c-2.9881,0-5.49451,2.03424-6.22821,4.79132
			c-0.48273-0.19263-1.00629-0.30554-1.55774-0.30554C83.88672,16.63368,82,18.5204,82,20.8478
			c0,2.32733,1.88672,4.18816,4.21405,4.18816C86.24829,25.03596,86.27991,25,86.3139,25h27.37219
			c0.034,0,0.06561,0.03596,0.09985,0.03596c2.32733,0,4.21405-1.87378,4.21405-4.20111
			C118,18.87226,116.65216,17.25051,114.83612,16.78169z" />

        <path id="XMLID_199_" class="cloud" d="M101.14161,9.18893c0.06001-0.34436,0.09745-0.69651,0.09745-1.05806
			C101.23906,4.74487,98.49416,2,95.10815,2c-2.79964,0-5.15604,1.87849-5.88992,4.44238
			c-0.27637-0.06114-0.56267-0.09581-0.85747-0.09581c-1.83289,0-3.37032,1.2478-3.82037,2.93899
			c-0.2961-0.11816-0.61726-0.18742-0.95551-0.18742C82.15731,9.09814,81,10.25545,81,11.68307
			c0,1.42758,1.15731,2.454,2.58489,2.454c0.021,0,0.04039-0.13707,0.06125-0.13707h16.79005
			c0.02085,0,0.04025,0.13707,0.06125,0.13707c1.42757,0,2.58488-1.09186,2.58488-2.51944
			C103.08232,10.41378,102.25556,9.4765,101.14161,9.18893z" />
        <path id="XMLID_195_" class="rain" d="M87.38277,30.85351c0.69035,1.19573,0.91073,2.36094,0.49223,2.60256
			c-0.4185,0.24163-1.31741-0.53183-2.00777-1.72756c-1.25-2.16506-1.74167-4.76666-2.99223-6.93269
			C84.12556,26.96185,86.13277,28.68845,87.38277,30.85351z" />
        <path id="XMLID_194_" class="rain" d="M107.38277,31.85351c0.69035,1.19573,0.91073,2.36094,0.49223,2.60256
			c-0.4185,0.24163-1.31741-0.53183-2.00777-1.72756c-1.25-2.16506-1.74167-4.76666-2.99223-6.93269
			C104.12556,27.96185,106.13277,29.68845,107.38277,31.85351z" />
        <path id="XMLID_193_" class="rain" d="M97.38277,33.85351c0.69035,1.19573,0.91073,2.36094,0.49223,2.60256
			c-0.4185,0.24163-1.31741-0.53183-2.00777-1.72756c-1.25-2.16506-1.74167-4.76666-2.99223-6.93269
			C94.12556,29.96185,96.13277,31.68845,97.38277,33.85351z" />

        <path id="XMLID_192_" class="cloud" d="M112.14128,25.18886c0.06001-0.34436,0.09746-0.69651,0.09746-1.05806
			c0-3.38601-2.7449-6.13087-6.13091-6.13087c-2.79964,0-5.15604,1.87849-5.88992,4.44238
			c-0.27637-0.06114-0.56267-0.09581-0.85746-0.09581c-1.83289,0-3.37032,1.2478-3.82037,2.93899
			c-0.2961-0.11816-0.61725-0.18742-0.95551-0.18742c-1.42758,0-2.58488,1.15731-2.58488,2.58493
			c0,1.42758,1.1573,2.45404,2.58488,2.45404c0.021,0,0.0404-0.13703,0.06125-0.13703h16.79005
			c0.02085,0,0.04025,0.13703,0.06125,0.13703c1.42758,0,2.58489-1.09188,2.58489-2.51946
			C114.082,26.41372,113.25524,25.47643,112.14128,25.18886z" />
        <rect id="XMLID_205_" x="91" y="30.20034" transform="matrix(0.86603 -0.5 0.5 0.86603 -4.12514 50.00606)" class="snow light" width="0.5" height="5.00063" />

        <rect id="XMLID_207_" x="102" y="31.20034" transform="matrix(0.86603 -0.5 0.5 0.86603 -3.15142 55.64003)" class="snow light" width="0.5" height="5.00063" />
        <rect id="XMLID_209_" x="111" y="30.20034" transform="matrix(0.86603 -0.5 0.5 0.86603 -1.44565 60.00606)" class="snow light" width="0.5" height="5.00063" />
        <circle id="XMLID_206_" class="snow" cx="93.50015" cy="36.59803" r="1" />
        <circle id="XMLID_208_" class="snow" cx="104.50015" cy="37.59803" r="1" />

        <circle id="XMLID_210_" class="snow" cx="113.50015" cy="36.59803" r="1" />

      </g>

      <g id="hail">

        <path id="XMLID_329_" class="cloud" d="M194.83612,176.85361c0.09784-0.5614,0.15887-1.1355,0.15887-1.72491
			c0-5.52008-4.47491-9.99493-9.995-9.99493c-4.56415,0-8.4057,3.06244-9.60211,7.24225
			c-0.45056-0.09967-0.9173-0.15619-1.39789-0.15619c-2.9881,0-5.49451,2.03424-6.22821,4.79132
			c-0.48273-0.19263-1.00629-0.30554-1.55774-0.30554c-2.32733,0-4.21405,1.88672-4.21405,4.21411
			c0,2.32733,1.88672,4.15221,4.21405,4.15221c0.03424,0,0.06586-0.07191,0.09985-0.07191h27.37219
			c0.034,0,0.06561,0.07191,0.09985,0.07191c2.32733,0,4.21405-1.85579,4.21405-4.18312
			C198,178.92621,196.65216,177.32242,194.83612,176.85361z" />

        <path id="XMLID_328_" class="cloud" d="M181.1416,169.18893c0.06001-0.34436,0.09746-0.69652,0.09746-1.05806
			c0-3.386-2.7449-6.13087-6.13091-6.13087c-2.79964,0-5.15604,1.87849-5.88992,4.44238
			c-0.27637-0.06114-0.56267-0.09581-0.85745-0.09581c-1.8329,0-3.37032,1.2478-3.82037,2.93898
			c-0.29611-0.11815-0.61725-0.18741-0.95552-0.18741c-1.42758,0-2.58488,1.1573-2.58488,2.58493
			c0,1.42757,1.1573,2.45399,2.58488,2.45399c0.02101,0,0.04041-0.13707,0.06125-0.13707h16.79005
			c0.02084,0,0.04024,0.13707,0.06125,0.13707c1.42758,0,2.58488-1.09187,2.58488-2.51944
			C183.08232,170.41377,182.25555,169.4765,181.1416,169.18893z" />
>
        <path id="XMLID_327_" class="cloud" d="M197.1416,171.18893c0.06001-0.34436,0.09746-0.69652,0.09746-1.05806
			c0-3.386-2.7449-6.13087-6.13091-6.13087c-2.79964,0-5.15604,1.87849-5.88992,4.44238
			c-0.27637-0.06114-0.56267-0.09581-0.85745-0.09581c-1.8329,0-3.37032,1.2478-3.82037,2.93898
			c-0.29611-0.11815-0.61725-0.18741-0.95552-0.18741c-1.42758,0-2.58488,1.1573-2.58488,2.58493
			c0,1.42757,1.1573,2.45399,2.58488,2.45399c0.02101,0,0.04041-0.13707,0.06125-0.13707h16.79005
			c0.02084,0,0.04024,0.13707,0.06125,0.13707c1.42758,0,2.58488-1.09187,2.58488-2.51944
			C199.08232,172.41377,198.25555,171.4765,197.1416,171.18893z" />

        <path id="XMLID_326_" class="cloud" d="M192.14128,185.18886c0.06001-0.34436,0.09746-0.69652,0.09746-1.05806
			c0-3.386-2.7449-6.13087-6.13091-6.13087c-2.79965,0-5.15605,1.87849-5.88992,4.44238
			c-0.27637-0.06114-0.56267-0.09581-0.85745-0.09581c-1.8329,0-3.37033,1.2478-3.82037,2.939
			c-0.29611-0.11816-0.61726-0.18742-0.95552-0.18742c-1.42758,0-2.58488,1.1573-2.58488,2.58493
			c0,1.42758,1.1573,2.45403,2.58488,2.45403c0.02101,0,0.04041-0.13702,0.06125-0.13702h16.79005
			c0.02084,0,0.04024,0.13702,0.06125,0.13702c1.42758,0,2.58488-1.09187,2.58488-2.51945
			C194.082,186.41373,193.25523,185.47643,192.14128,185.18886z" />
        <path id="XMLID_338_" class="rain" d="M167.38277,190.85368c0.69037,1.19574,0.91074,2.36095,0.49223,2.60257
			s-1.31741-0.53183-2.00777-1.72757c-1.25-2.16505-1.74167-4.76665-2.99223-6.93268
			C164.12556,186.96204,166.13277,188.68863,167.38277,190.85368z" />
        <path id="XMLID_337_" class="rain" d="M187.38277,191.85368c0.69037,1.19574,0.91074,2.36095,0.49223,2.60257
			s-1.31741-0.53183-2.00777-1.72757c-1.25-2.16505-1.74167-4.76665-2.99223-6.93268
			C184.12556,187.96204,186.13277,189.68863,187.38277,191.85368z" />
        <path id="XMLID_336_" class="rain" d="M177.38277,193.85368c0.69037,1.19574,0.91074,2.36095,0.49223,2.60257
			s-1.31741-0.53183-2.00777-1.72757c-1.25-2.16505-1.74167-4.76665-2.99223-6.93268
			C174.12556,189.96204,176.13277,191.68863,177.38277,193.85368z" />

        <rect id="XMLID_334_" x="171" y="190.20052" transform="matrix(0.86603 -0.5 0.5 0.86603 -73.40726 111.44202)" class="snow light" width="0.5" height="5.00063" />

        <rect id="XMLID_332_" x="182" y="191.20052" transform="matrix(0.86603 -0.5 0.5 0.86603 -72.43354 117.07599)" class="snow light" width="0.5" height="5.00063" />

        <rect id="XMLID_330_" x="191" y="190.20052" transform="matrix(0.86603 -0.5 0.5 0.86603 -70.72778 121.44202)" class="snow light" width="0.5" height="5.00063" />
        <circle id="XMLID_335_" class="snow" cx="173.50015" cy="196.59822" r="1" />
        <circle id="XMLID_331_" class="snow" cx="193.50015" cy="196.59822" r="1" />
        <circle id="XMLID_333_" class="snow" cx="184.50015" cy="197.59822" r="1" />
      </g>
      <g id="thunder">
        <path id="XMLID_191_" class="rain" d="M133.38277,195.85352c0.69037,1.19572,0.91074,2.36093,0.49223,2.60255
			s-1.31741-0.53183-2.00777-1.72755c-1.25-2.16507-1.74167-4.76666-2.99223-6.93269
			C130.12556,191.96185,132.13277,193.68845,133.38277,195.85352z" />
        <path id="XMLID_190_" class="rain" d="M152.38277,193.85352c0.69037,1.19572,0.91074,2.36093,0.49223,2.60255
			s-1.31741-0.53183-2.00777-1.72755c-1.25-2.16507-1.74167-4.76666-2.99223-6.93269
			C149.12556,189.96185,151.13277,191.68845,152.38277,193.85352z" />
        <path id="XMLID_189_" class="rain" d="M144.38277,195.85352c0.69037,1.19572,0.91074,2.36093,0.49223,2.60255
			s-1.31741-0.53183-2.00777-1.72755c-1.25-2.16507-1.74167-4.76666-2.99223-6.93269
			C141.12556,191.96185,143.13277,193.68845,144.38277,195.85352z" />
        <path id="XMLID_188_" class="rain" d="M127.38277,190.85352c0.69036,1.19572,0.91073,2.36093,0.49223,2.60255
			s-1.31741-0.53183-2.00777-1.72755c-1.25-2.16507-1.74167-4.76666-2.99223-6.93269
			C124.12556,186.96185,126.13277,188.68845,127.38277,190.85352z" />
        <path id="XMLID_187_" class="rain" d="M147.38277,191.85352c0.69037,1.19572,0.91074,2.36093,0.49223,2.60255
			s-1.31741-0.53183-2.00777-1.72755c-1.25-2.16507-1.74167-4.76666-2.99223-6.93269
			C144.12556,187.96185,146.13277,189.68845,147.38277,191.85352z" />
        <path id="XMLID_186_" class="rain" d="M137.38277,193.85352c0.69037,1.19572,0.91074,2.36093,0.49223,2.60255
			s-1.31741-0.53183-2.00777-1.72755c-1.25-2.16507-1.74167-4.76666-2.99223-6.93269
			C134.12556,189.96185,136.13277,191.68845,137.38277,193.85352z" />

        <path id="XMLID_185_" class="cloud" d="M154.83612,176.85361c0.09784-0.5614,0.15887-1.1355,0.15887-1.72491
			c0-5.52008-4.47491-9.99493-9.995-9.99493c-4.56415,0-8.4057,3.06244-9.60211,7.24225
			c-0.45056-0.09967-0.9173-0.15619-1.39789-0.15619c-2.9881,0-5.49451,2.03424-6.22821,4.79132
			c-0.48273-0.19263-1.00629-0.30554-1.55774-0.30554c-2.32733,0-4.21405,1.88672-4.21405,4.21411
			c0,2.32733,1.88672,4.15221,4.21405,4.15221c0.03424,0,0.06586-0.07191,0.09985-0.07191h27.37219
			c0.034,0,0.06561,0.07191,0.09985,0.07191c2.32733,0,4.21405-1.85579,4.21405-4.18312
			C158,178.92621,156.65216,177.32242,154.83612,176.85361z" />

        <path id="XMLID_184_" class="cloud" d="M141.1416,169.18893c0.06001-0.34436,0.09746-0.69652,0.09746-1.05806
			c0-3.386-2.7449-6.13087-6.13091-6.13087c-2.79964,0-5.15604,1.87849-5.88992,4.44238
			c-0.27637-0.06114-0.56267-0.09581-0.85745-0.09581c-1.8329,0-3.37032,1.2478-3.82037,2.93898
			c-0.2961-0.11815-0.61726-0.18741-0.95551-0.18741c-1.42758,0-2.58489,1.1573-2.58489,2.58493
			c0,1.42757,1.15731,2.45399,2.58489,2.45399c0.021,0,0.04039-0.13707,0.06125-0.13707h16.79005
			c0.02084,0,0.04024,0.13707,0.06125,0.13707c1.42758,0,2.58488-1.09187,2.58488-2.51944
			C143.08232,170.41377,142.25555,169.4765,141.1416,169.18893z" />

        <path id="XMLID_183_" class="cloud" d="M157.1416,171.18893c0.06001-0.34436,0.09746-0.69652,0.09746-1.05806
			c0-3.386-2.7449-6.13087-6.13091-6.13087c-2.79964,0-5.15604,1.87849-5.88992,4.44238
			c-0.27637-0.06114-0.56267-0.09581-0.85745-0.09581c-1.8329,0-3.37032,1.2478-3.82037,2.93898
			c-0.29611-0.11815-0.61725-0.18741-0.95552-0.18741c-1.42758,0-2.58488,1.1573-2.58488,2.58493
			c0,1.42757,1.1573,2.45399,2.58488,2.45399c0.02101,0,0.04041-0.13707,0.06125-0.13707h16.79005
			c0.02084,0,0.04024,0.13707,0.06125,0.13707c1.42758,0,2.58488-1.09187,2.58488-2.51944
			C159.08232,172.41377,158.25555,171.4765,157.1416,171.18893z" />

        <path id="XMLID_42_" class="cloud" d="M152.14128,185.18886c0.06001-0.34436,0.09746-0.69652,0.09746-1.05806
			c0-3.386-2.7449-6.13087-6.13091-6.13087c-2.79965,0-5.15605,1.87849-5.88992,4.44238
			c-0.27637-0.06114-0.56267-0.09581-0.85745-0.09581c-1.8329,0-3.37033,1.2478-3.82037,2.939
			c-0.29611-0.11816-0.61726-0.18742-0.95552-0.18742c-1.42758,0-2.58488,1.1573-2.58488,2.58493
			c0,1.42758,1.1573,2.45403,2.58488,2.45403c0.02101,0,0.04041-0.13702,0.06125-0.13702h16.79005
			c0.02084,0,0.04024,0.13702,0.06125,0.13702c1.42758,0,2.58488-1.09187,2.58488-2.51945
			C154.082,186.41373,153.25523,185.47643,152.14128,185.18886z" />
        <polygon id="XMLID_37_" class="lightning glow" points="145.49388,176 149.16362,176 146.2997,187 147.34508,187 143.99112,197.5506
			145.16719,187 144.20892,187 		" />
      </g>
      <g id="heavyRain">

        <path id="XMLID_55_" class="cloud" d="M114.83612,176.85361c0.09784-0.5614,0.15887-1.1355,0.15887-1.72491
			c0-5.52008-4.47491-9.99493-9.995-9.99493c-4.56415,0-8.4057,3.06244-9.60211,7.24225
			c-0.45056-0.09967-0.9173-0.15619-1.39789-0.15619c-2.9881,0-5.49451,2.03424-6.22821,4.79132
			c-0.48273-0.19263-1.00629-0.30554-1.55774-0.30554c-2.32733,0-4.21405,1.88672-4.21405,4.21411
			c0,2.32733,1.88672,4.15221,4.21405,4.15221c0.03424,0,0.06586-0.07191,0.09985-0.07191h27.37219
			c0.034,0,0.06561,0.07191,0.09985,0.07191c2.32733,0,4.21405-1.85579,4.21405-4.18312
			C118,178.92621,116.65216,177.32242,114.83612,176.85361z" />

        <path id="XMLID_54_" class="cloud" d="M101.14161,169.18893c0.06001-0.34436,0.09745-0.69652,0.09745-1.05806
			c0-3.386-2.7449-6.13087-6.13091-6.13087c-2.79964,0-5.15604,1.87849-5.88992,4.44238
			c-0.27637-0.06114-0.56267-0.09581-0.85747-0.09581c-1.83289,0-3.37032,1.2478-3.82037,2.93898
			c-0.2961-0.11815-0.61726-0.18741-0.95551-0.18741c-1.42758,0-2.58489,1.1573-2.58489,2.58493
			c0,1.42757,1.15731,2.45399,2.58489,2.45399c0.021,0,0.04039-0.13707,0.06125-0.13707h16.79005
			c0.02085,0,0.04025,0.13707,0.06125,0.13707c1.42757,0,2.58488-1.09187,2.58488-2.51944
			C103.08232,170.41377,102.25556,169.4765,101.14161,169.18893z" />

        <path id="XMLID_56_" class="cloud" d="M117.14161,171.18893c0.06001-0.34436,0.09745-0.69652,0.09745-1.05806
			c0-3.386-2.7449-6.13087-6.13091-6.13087c-2.79964,0-5.15604,1.87849-5.88992,4.44238
			c-0.27637-0.06114-0.56267-0.09581-0.85747-0.09581c-1.83289,0-3.37032,1.2478-3.82037,2.93898
			c-0.2961-0.11815-0.61726-0.18741-0.95551-0.18741c-1.42758,0-2.58489,1.1573-2.58489,2.58493
			c0,1.42757,1.15731,2.45399,2.58489,2.45399c0.021,0,0.04039-0.13707,0.06125-0.13707h16.79005
			c0.02085,0,0.04025,0.13707,0.06125,0.13707c1.42757,0,2.58488-1.09187,2.58488-2.51944
			C119.08232,172.41377,118.25556,171.4765,117.14161,171.18893z" />
        <path id="XMLID_53_" class="rain" d="M93.38277,195.85352c0.69035,1.19572,0.91073,2.36093,0.49223,2.60255
			s-1.31741-0.53183-2.00777-1.72755c-1.25-2.16507-1.74167-4.76666-2.99223-6.93269
			C90.12556,191.96185,92.13277,193.68845,93.38277,195.85352z" />
        <path id="XMLID_52_" class="rain" d="M112.38277,193.85352c0.69035,1.19572,0.91073,2.36093,0.49223,2.60255
			s-1.31741-0.53183-2.00777-1.72755c-1.25-2.16507-1.74167-4.76666-2.99223-6.93269
			C109.12556,189.96185,111.13277,191.68845,112.38277,193.85352z" />
        <path id="XMLID_51_" class="rain" d="M104.38277,195.85352c0.69035,1.19572,0.91073,2.36093,0.49223,2.60255
			s-1.31741-0.53183-2.00777-1.72755c-1.25-2.16507-1.74167-4.76666-2.99223-6.93269
			C101.12556,191.96185,103.13277,193.68845,104.38277,195.85352z" />
        <path id="XMLID_50_" class="rain" d="M87.38277,190.85352c0.69035,1.19572,0.91073,2.36093,0.49223,2.60255
			s-1.31741-0.53183-2.00777-1.72755c-1.25-2.16507-1.74167-4.76666-2.99223-6.93269
			C84.12556,186.96185,86.13277,188.68845,87.38277,190.85352z" />
        <path id="XMLID_49_" class="rain" d="M107.38277,191.85352c0.69035,1.19572,0.91073,2.36093,0.49223,2.60255
			s-1.31741-0.53183-2.00777-1.72755c-1.25-2.16507-1.74167-4.76666-2.99223-6.93269
			C104.12556,187.96185,106.13277,189.68845,107.38277,191.85352z" />
        <path id="XMLID_48_" class="rain" d="M97.38277,193.85352c0.69035,1.19572,0.91073,2.36093,0.49223,2.60255
			s-1.31741-0.53183-2.00777-1.72755c-1.25-2.16507-1.74167-4.76666-2.99223-6.93269
			C94.12556,189.96185,96.13277,191.68845,97.38277,193.85352z" />

        <path id="XMLID_47_" class="cloud" d="M112.14128,185.18886c0.06001-0.34436,0.09746-0.69652,0.09746-1.05806
			c0-3.386-2.7449-6.13087-6.13091-6.13087c-2.79964,0-5.15604,1.87849-5.88992,4.44238
			c-0.27637-0.06114-0.56267-0.09581-0.85746-0.09581c-1.83289,0-3.37032,1.2478-3.82037,2.939
			c-0.2961-0.11816-0.61725-0.18742-0.95551-0.18742c-1.42758,0-2.58488,1.1573-2.58488,2.58493
			c0,1.42758,1.1573,2.45403,2.58488,2.45403c0.021,0,0.0404-0.13702,0.06125-0.13702h16.79005
			c0.02085,0,0.04025,0.13702,0.06125,0.13702c1.42758,0,2.58489-1.09187,2.58489-2.51945
			C114.082,186.41373,113.25524,185.47643,112.14128,185.18886z" />
      </g>
      <g id="heavyshonw">
        <g id="XMLID_103_">
          <rect id="XMLID_106_" x="2.96827" y="190.88704" class="snow" width="4" height="0.5" />

          <rect id="XMLID_105_" x="2.96827" y="190.88704" transform="matrix(-0.5 -0.86603 0.86603 -0.5 -158.07712 291.00821)" class="snow" width="4" height="0.5" />

          <rect id="XMLID_104_" x="2.96827" y="190.88704" transform="matrix(0.5 -0.86603 0.86603 0.5 -163.04539 99.87117)" class="snow" width="4" height="0.5" />
        </g>
        <g id="XMLID_99_">
          <rect id="XMLID_102_" x="13.96828" y="189.74408" class="snow" width="4" height="0.5" />

          <rect id="XMLID_101_" x="13.96828" y="189.74408" transform="matrix(-0.5 -0.86603 0.86603 -0.5 -140.58728 298.82007)" class="snow" width="4" height="0.5" />

          <rect id="XMLID_100_" x="13.96828" y="189.74408" transform="matrix(0.5 -0.86603 0.86603 0.5 -156.55556 108.82597)" class="snow" width="4" height="0.5" />
        </g>
        <g id="XMLID_94_">
          <rect id="XMLID_98_" x="23.7072" y="191.65117" class="snow" width="4" height="0.5" />

          <rect id="XMLID_97_" x="23.7072" y="191.65117" transform="matrix(-0.5 -0.86603 0.86603 -0.5 -127.63049 310.11484)" class="snow" width="4" height="0.5" />

          <rect id="XMLID_96_" x="23.7072" y="191.65117" transform="matrix(0.5 -0.86603 0.86603 0.5 -153.33768 118.21367)" class="snow" width="4" height="0.5" />
        </g>
        <g id="XMLID_137_">
          <rect id="XMLID_140_" x="10.61152" y="196.89804" class="snow" width="4" height="0.5" />

          <rect id="XMLID_139_" x="10.61152" y="196.89804" transform="matrix(-0.5 -0.86603 0.86603 -0.5 -151.81793 306.64398)" class="snow" width="4" height="0.5" />

          <rect id="XMLID_138_" x="10.61152" y="196.89804" transform="matrix(0.5 -0.86603 0.86603 0.5 -164.42946 109.49592)" class="snow" width="4" height="0.5" />
        </g>
        <g id="XMLID_133_">
          <rect id="XMLID_136_" x="19.61152" y="195.7551" class="snow" width="4" height="0.5" />

          <rect id="XMLID_135_" x="19.61152" y="195.7551" transform="matrix(-0.5 -0.86603 0.86603 -0.5 -137.32811 312.72375)" class="snow" width="4" height="0.5" />

          <rect id="XMLID_134_" x="19.61152" y="195.7551" transform="matrix(0.5 -0.86603 0.86603 0.5 -158.93964 116.71867)" class="snow" width="4" height="0.5" />
        </g>
        <g id="XMLID_129_">
          <rect id="XMLID_132_" x="31.35045" y="192.66217" class="snow" width="4" height="0.5" />

          <rect id="XMLID_131_" x="31.35044" y="192.66217" transform="matrix(-0.5 -0.86603 0.86603 -0.5 -117.04118 318.25061)" class="snow" width="4" height="0.5" />

          <rect id="XMLID_130_" x="31.35045" y="192.66217" transform="matrix(0.5 -0.86603 0.86603 0.5 -150.39162 125.33842)" class="snow" width="4" height="0.5" />
        </g>

        <path id="XMLID_150_" class="cloud" d="M34.83612,176.85361c0.09784-0.5614,0.15887-1.1355,0.15887-1.72491
			c0-5.52008-4.47491-9.99493-9.995-9.99493c-4.56415,0-8.4057,3.06244-9.60211,7.24225
			c-0.45056-0.09967-0.9173-0.15619-1.39789-0.15619c-2.9881,0-5.49451,2.03424-6.22821,4.79132
			c-0.48273-0.19263-1.00629-0.30554-1.55774-0.30554C3.88672,176.7056,2,178.59232,2,180.91971
			c0,2.32733,1.88672,4.15221,4.21405,4.15221C6.24829,185.07191,6.27991,185,6.3139,185H33.6861
			c0.034,0,0.06561,0.07191,0.09985,0.07191c2.32733,0,4.21405-1.85579,4.21405-4.18312
			C38,178.92621,36.65216,177.32242,34.83612,176.85361z" />

        <path id="XMLID_149_" class="cloud med" d="M21.14161,169.18893c0.06001-0.34436,0.09745-0.69652,0.09745-1.05806
			c0-3.386-2.7449-6.13087-6.13091-6.13087c-2.79964,0-5.15604,1.87849-5.88992,4.44238
			c-0.27637-0.06114-0.56267-0.09581-0.85746-0.09581c-1.83289,0-3.37032,1.2478-3.82037,2.93898
			c-0.2961-0.11815-0.61725-0.18741-0.95551-0.18741c-1.42758,0-2.58489,1.1573-2.58489,2.58493
			c0,1.42757,1.15731,2.45399,2.58489,2.45399c0.021,0,0.0404-0.13707,0.06125-0.13707h16.79004
			c0.02085,0,0.04025,0.13707,0.06125,0.13707c1.42758,0,2.58489-1.09187,2.58489-2.51944
			C23.08232,170.41377,22.25556,169.4765,21.14161,169.18893z" />

        <path id="XMLID_148_" class="cloud" d="M37.14161,171.18893c0.06002-0.34436,0.09745-0.69652,0.09745-1.05806
			c0-3.386-2.7449-6.13087-6.13091-6.13087c-2.79964,0-5.15604,1.87849-5.88991,4.44238
			c-0.27637-0.06114-0.56267-0.09581-0.85746-0.09581c-1.83289,0-3.37032,1.2478-3.82037,2.93898
			c-0.2961-0.11815-0.61725-0.18741-0.95551-0.18741c-1.42758,0-2.58489,1.1573-2.58489,2.58493
			c0,1.42757,1.15731,2.45399,2.58489,2.45399c0.021,0,0.0404-0.13707,0.06125-0.13707h16.79004
			c0.02085,0,0.04025,0.13707,0.06125,0.13707c1.42758,0,2.58489-1.09187,2.58489-2.51944
			C39.08232,172.41377,38.25556,171.4765,37.14161,171.18893z" />

        <path id="XMLID_147_" class="cloud" d="M32.14128,185.18886c0.06001-0.34436,0.09745-0.69652,0.09745-1.05806
			c0-3.386-2.7449-6.13087-6.13091-6.13087c-2.79964,0-5.15604,1.87849-5.88992,4.44238
			c-0.27637-0.06114-0.56267-0.09581-0.85746-0.09581c-1.83289,0-3.37032,1.2478-3.82037,2.939
			c-0.2961-0.11816-0.61725-0.18742-0.95551-0.18742c-1.42758,0-2.58489,1.1573-2.58489,2.58493
			c0,1.42758,1.15731,2.45403,2.58489,2.45403c0.021,0,0.0404-0.13702,0.06125-0.13702h16.79004
			c0.02085,0,0.04025,0.13702,0.06125,0.13702c1.42758,0,2.58489-1.09187,2.58489-2.51945
			C34.082,186.41373,33.25524,185.47643,32.14128,185.18886z" />
      </g>
      <g id="thunderNight">
        <path id="XMLID_307_" class="moon glow" d="M175.12863,82c2.21295,1.4351,3.68024,3.92233,3.68024,6.75626
			c0,4.44731-3.60529,8.05257-8.05261,8.05257c-2.83395,0-5.32115-1.46729-6.75626-3.68018
			c0.59782,4.9517,4.80704,8.7913,9.91997,8.7913c5.5229,0,10.00006-4.47717,10.00006-10
			C183.92003,86.80701,180.0804,82.59778,175.12863,82z" />
        <path id="XMLID_301_" class="rain" d="M173.38277,115.85351c0.69037,1.19573,0.91074,2.36094,0.49223,2.60257
			c-0.4185,0.24162-1.31741-0.53184-2.00777-1.72757c-1.25-2.16506-1.74167-4.76665-2.99223-6.93269
			C170.12556,111.96185,172.13277,113.68845,173.38277,115.85351z" />
        <path id="XMLID_300_" class="rain" d="M192.38277,113.85351c0.69037,1.19573,0.91074,2.36094,0.49223,2.60257
			c-0.4185,0.24162-1.31741-0.53184-2.00777-1.72757c-1.25-2.16506-1.74167-4.76665-2.99223-6.93269
			C189.12556,109.96185,191.13277,111.68845,192.38277,113.85351z" />
        <path id="XMLID_299_" class="rain" d="M184.38277,115.85351c0.69037,1.19573,0.91074,2.36094,0.49223,2.60257
			c-0.4185,0.24162-1.31741-0.53184-2.00777-1.72757c-1.25-2.16506-1.74167-4.76665-2.99223-6.93269
			C181.12556,111.96185,183.13277,113.68845,184.38277,115.85351z" />
        <path id="XMLID_298_" class="rain" d="M167.38277,110.85351c0.69037,1.19573,0.91074,2.36094,0.49223,2.60257
			c-0.4185,0.24162-1.31741-0.53184-2.00777-1.72757c-1.25-2.16506-1.74167-4.76665-2.99223-6.93269
			C164.12556,106.96185,166.13277,108.68845,167.38277,110.85351z" />
        <path id="XMLID_297_" class="rain" d="M187.38277,111.85351c0.69037,1.19573,0.91074,2.36094,0.49223,2.60257
			c-0.4185,0.24162-1.31741-0.53184-2.00777-1.72757c-1.25-2.16506-1.74167-4.76665-2.99223-6.93269
			C184.12556,107.96185,186.13277,109.68845,187.38277,111.85351z" />
        <path id="XMLID_296_" class="rain" d="M177.38277,113.85351c0.69037,1.19573,0.91074,2.36094,0.49223,2.60257
			c-0.4185,0.24162-1.31741-0.53184-2.00777-1.72757c-1.25-2.16506-1.74167-4.76665-2.99223-6.93269
			C174.12556,109.96185,176.13277,111.68845,177.38277,113.85351z" />
        <path id="XMLID_222_" class="cloud" d="M194.83612,96.85361c0.09784-0.5614,0.15887-1.1355,0.15887-1.72491
			c0-5.52008-4.47491-9.99493-9.995-9.99493c-4.56415,0-8.4057,3.06244-9.60211,7.24225
			c-0.45056-0.09967-0.9173-0.15619-1.39789-0.15619c-2.9881,0-5.49451,2.03424-6.22821,4.79132
			c-0.48273-0.19263-1.00629-0.30554-1.55774-0.30554c-2.32733,0-4.21405,1.88672-4.21405,4.21411
			c0,2.32733,1.88672,4.15221,4.21405,4.15221c0.03424,0,0.06586-0.07191,0.09985-0.07191h27.37219
			c0.034,0,0.06561,0.07191,0.09985,0.07191c2.32733,0,4.21405-1.8558,4.21405-4.18313
			C198,98.9262,196.65216,97.32242,194.83612,96.85361z" />

        <path id="XMLID_221_" class="cloud" d="M181.1416,89.18893c0.06001-0.34436,0.09746-0.69651,0.09746-1.05805
			c0-3.38601-2.7449-6.13087-6.13091-6.13087c-2.79964,0-5.15604,1.87849-5.88992,4.44238
			c-0.27637-0.06114-0.56267-0.09581-0.85745-0.09581c-1.8329,0-3.37032,1.2478-3.82037,2.93899
			c-0.29611-0.11816-0.61725-0.18742-0.95552-0.18742c-1.42758,0-2.58488,1.1573-2.58488,2.58492
			c0,1.42758,1.1573,2.454,2.58488,2.454c0.02101,0,0.04041-0.13707,0.06125-0.13707h16.79005
			c0.02084,0,0.04024,0.13707,0.06125,0.13707c1.42758,0,2.58488-1.09187,2.58488-2.51945
			C183.08232,90.41378,182.25555,89.4765,181.1416,89.18893z" />

        <path id="XMLID_220_" class="cloud" d="M197.1416,91.18893c0.06001-0.34436,0.09746-0.69651,0.09746-1.05805
			c0-3.38601-2.7449-6.13087-6.13091-6.13087c-2.79964,0-5.15604,1.87849-5.88992,4.44238
			c-0.27637-0.06114-0.56267-0.09581-0.85745-0.09581c-1.8329,0-3.37032,1.2478-3.82037,2.93899
			c-0.29611-0.11816-0.61725-0.18742-0.95552-0.18742c-1.42758,0-2.58488,1.1573-2.58488,2.58492
			c0,1.42758,1.1573,2.454,2.58488,2.454c0.02101,0,0.04041-0.13707,0.06125-0.13707h16.79005
			c0.02084,0,0.04024,0.13707,0.06125,0.13707c1.42758,0,2.58488-1.09187,2.58488-2.51945
			C199.08232,92.41378,198.25555,91.4765,197.1416,91.18893z" />

        <path id="XMLID_219_" class="cloud" d="M192.14128,105.18886c0.06001-0.34436,0.09746-0.69651,0.09746-1.05806
			c0-3.38601-2.7449-6.13087-6.13091-6.13087c-2.79965,0-5.15605,1.87849-5.88992,4.44238
			c-0.27637-0.06113-0.56267-0.0958-0.85745-0.0958c-1.8329,0-3.37033,1.2478-3.82037,2.93898
			c-0.29611-0.11816-0.61726-0.18742-0.95552-0.18742c-1.42758,0-2.58488,1.15731-2.58488,2.58493
			c0,1.42757,1.1573,2.45403,2.58488,2.45403c0.02101,0,0.04041-0.13703,0.06125-0.13703h16.79005
			c0.02084,0,0.04024,0.13703,0.06125,0.13703c1.42758,0,2.58488-1.09188,2.58488-2.51946
			C194.082,106.41372,193.25523,105.47643,192.14128,105.18886z" />
        <polygon id="XMLID_218_" class="lightning glow" points="185.49388,96 189.16362,96 186.2997,107 187.34508,107 183.99112,117.55061
			185.16719,107 184.20892,107 		" />
      </g>
      <g id="thunderDay">
        <circle id="XMLID_43_" class="sun glow" cx="55.96828" cy="92" r="10" />
        <path id="XMLID_40_" class="rain" d="M53.38277,115.85351c0.69036,1.19573,0.91074,2.36094,0.49223,2.60257
			c-0.41851,0.24162-1.31742-0.53184-2.00777-1.72757c-1.25-2.16506-1.74167-4.76665-2.99223-6.93269
			C50.12556,111.96185,52.13277,113.68845,53.38277,115.85351z" />
        <path id="XMLID_39_" class="rain" d="M72.38277,113.85351c0.69035,1.19573,0.91073,2.36094,0.49223,2.60257
			c-0.4185,0.24162-1.31741-0.53184-2.00777-1.72757c-1.25-2.16506-1.74167-4.76665-2.99223-6.93269
			C69.12556,109.96185,71.13277,111.68845,72.38277,113.85351z" />
        <path id="XMLID_38_" class="rain" d="M64.38277,115.85351c0.69035,1.19573,0.91073,2.36094,0.49223,2.60257
			c-0.4185,0.24162-1.31742-0.53184-2.00777-1.72757c-1.25-2.16506-1.74167-4.76665-2.99223-6.93269
			C61.12556,111.96185,63.13277,113.68845,64.38277,115.85351z" />
        <path id="XMLID_46_" class="rain" d="M47.38277,110.85351c0.69036,1.19573,0.91074,2.36094,0.49223,2.60257
			c-0.41851,0.24162-1.31742-0.53184-2.00777-1.72757c-1.25-2.16506-1.74167-4.76665-2.99223-6.93269
			C44.12556,106.96185,46.13277,108.68845,47.38277,110.85351z" />
        <path id="XMLID_45_" class="rain" d="M67.38277,111.85351c0.69035,1.19573,0.91073,2.36094,0.49223,2.60257
			c-0.4185,0.24162-1.31741-0.53184-2.00777-1.72757c-1.25-2.16506-1.74167-4.76665-2.99223-6.93269
			C64.12556,107.96185,66.13277,109.68845,67.38277,111.85351z" />
        <path id="XMLID_44_" class="rain" d="M57.38277,113.85351c0.69036,1.19573,0.91074,2.36094,0.49223,2.60257
			c-0.41851,0.24162-1.31742-0.53184-2.00777-1.72757c-1.25-2.16506-1.74167-4.76665-2.99223-6.93269
			C54.12556,109.96185,56.13277,111.68845,57.38277,113.85351z" />

        <path id="XMLID_182_" class="cloud" d="M74.83612,96.85361c0.09784-0.5614,0.15887-1.1355,0.15887-1.72491
			c0-5.52008-4.47491-9.99493-9.995-9.99493c-4.56415,0-8.4057,3.06244-9.60211,7.24225
			c-0.45056-0.09967-0.9173-0.15619-1.39789-0.15619c-2.9881,0-5.49451,2.03424-6.22821,4.79132
			c-0.48273-0.19263-1.00629-0.30554-1.55774-0.30554C43.88672,96.7056,42,98.59232,42,100.91971
			c0,2.32733,1.88672,4.15221,4.21405,4.15221c0.03424,0,0.06586-0.07191,0.09985-0.07191H73.6861
			c0.034,0,0.06561,0.07191,0.09985,0.07191c2.32733,0,4.21405-1.8558,4.21405-4.18313
			C78,98.9262,76.65216,97.32242,74.83612,96.85361z" />

        <path id="XMLID_181_" class="cloud" d="M61.14161,89.18893c0.06002-0.34436,0.09745-0.69651,0.09745-1.05805
			c0-3.38601-2.7449-6.13087-6.13091-6.13087c-2.79964,0-5.15604,1.87849-5.88992,4.44238
			c-0.27637-0.06114-0.56267-0.09581-0.85746-0.09581c-1.83289,0-3.37032,1.2478-3.82037,2.93899
			c-0.2961-0.11816-0.61726-0.18742-0.95552-0.18742c-1.42758,0-2.58489,1.1573-2.58489,2.58492
			c0,1.42758,1.15731,2.454,2.58489,2.454c0.021,0,0.0404-0.13707,0.06125-0.13707h16.79004
			c0.02085,0,0.04025,0.13707,0.06125,0.13707c1.42758,0,2.58489-1.09187,2.58489-2.51945
			C63.08232,90.41378,62.25556,89.4765,61.14161,89.18893z" />

        <path id="XMLID_180_" class="cloud" d="M77.14161,91.18893c0.06001-0.34436,0.09745-0.69651,0.09745-1.05805
			c0-3.38601-2.7449-6.13087-6.13091-6.13087c-2.79964,0-5.15604,1.87849-5.88992,4.44238
			c-0.27637-0.06114-0.56267-0.09581-0.85747-0.09581c-1.83289,0-3.37032,1.2478-3.82037,2.93899
			c-0.2961-0.11816-0.61726-0.18742-0.95552-0.18742c-1.42758,0-2.58489,1.1573-2.58489,2.58492
			c0,1.42758,1.15731,2.454,2.58489,2.454c0.021,0,0.0404-0.13707,0.06125-0.13707h16.79005
			c0.02085,0,0.04025,0.13707,0.06125,0.13707c1.42757,0,2.58488-1.09187,2.58488-2.51945
			C79.08232,92.41378,78.25556,91.4765,77.14161,91.18893z" />

        <path id="XMLID_179_" class="cloud" d="M72.14128,105.18886c0.06001-0.34436,0.09746-0.69651,0.09746-1.05806
			c0-3.38601-2.7449-6.13087-6.13091-6.13087c-2.79964,0-5.15604,1.87849-5.88991,4.44238
			c-0.27637-0.06113-0.56267-0.0958-0.85746-0.0958c-1.83289,0-3.37032,1.2478-3.82037,2.93898
			c-0.2961-0.11816-0.61726-0.18742-0.95552-0.18742c-1.42758,0-2.58489,1.15731-2.58489,2.58493
			c0,1.42757,1.15731,2.45403,2.58489,2.45403c0.021,0,0.0404-0.13703,0.06125-0.13703h16.79004
			c0.02085,0,0.04025,0.13703,0.06125,0.13703c1.42758,0,2.58489-1.09188,2.58489-2.51946
			C74.082,106.41372,73.25524,105.47643,72.14128,105.18886z" />
        <polygon id="XMLID_41_" class="lightning glow" points="65.49387,96 69.16363,96 66.2997,107 67.34509,107 63.99113,117.55061 65.16719,107
			64.20892,107 		" />
      </g>

  </svg>
