
<svg id="Layer_1" xmlns="http://www.w3.org/2000/svg" viewBox="0 0 240 200" enable-background="new 0 0 240 200">
  <style>
    .moon { fill: #CFE5FC; } .sun { fill: #FCEE88; } .glow { filter: url(#glow); } .snow { fill: #C4DFFF; } .light { opacity: 0.4 } .med { opacity: 0.8 } .cloud {fill: url(#clouded);} .rain { fill: #91CBF5; } .lightning { fill: #FCEEC7; }
  </style>
  <filter id="glow">
    <feGaussianBlur stdDeviation="1" result="blur"/>
    <feMerge>
      <feMergeNode in="blur"/>
      <feMergeNode in="SourceGraphic"/>
    </feMerge>
  </filter>
  <linearGradient id="clouded" gradientUnits="objectBoundingBox" y1="1" x2="0">
    <stop offset="0" stop-color="#404040"/>
    <stop offset="1" stop-color="#BFBFBF"/>
  </linearGradient>
  <g id="clearNight">
    <path id="XMLID_13_" class="moon glow" d="M141.8 5.12c3.33 2.15 5.53 5.88 5.53 10.13 0 6.68-5.4 12.08-12.08 12.08-4.25 0-7.98-2.2-10.13-5.52.9 7.5 7.2 13.2 14.88 13.2 8.28 0 15-6.7 15-15 0-7.6-5.76-13.9-13.2-14.8z"/>
  </g>
  <g id="clearDay">
    <circle id="XMLID_3_" class="sun glow" cx="20" cy="20" r="15"/>
  </g>
  <g id="lightSnowNight">
    <path id="XMLID_308_" class="moon glow" d="M215.13 82c2.2 1.44 3.68 3.92 3.68 6.76 0 4.44-3.6 8.05-8 8.05-2.8 0-5.3-1.4-6.7-3.6.6 5 4.8 8.8 10 8.8 5.5 0 10-4.5 10-10 0-5.1-3.8-9.3-8.8-9.9z"/>
    <g id="XMLID_246_">
      <path id="XMLID_249_" class="snow" d="M202.97 110.9h4v.5h-4z"/>
      <path id="XMLID_248_" class="snow" d="M205.75 113l-2-3.47.44-.25 2 3.46z"/>
      <path id="XMLID_247_" class="snow" d="M203.76 112.74l2-3.46.43.25-2 3.46z"/>
    </g>
    <g id="XMLID_242_">
      <path id="XMLID_245_" class="snow" d="M213.97 109.74h4v.5h-4z"/>
      <path id="XMLID_244_" class="snow" d="M216.75 111.85l-2-3.46.43-.3 2 3.4z"/>
      <path id="XMLID_243_" class="snow" d="M214.75 111.6l2-3.47.43.25-2 3.47z"/>
    </g>
    <g id="XMLID_238_">
      <path id="XMLID_241_" class="snow" d="M219.6 115.76h4v.5h-4z"/>
      <path id="XMLID_240_" class="snow" d="M222.4 117.86l-2-3.46.43-.25 2 3.46z"/>
      <path id="XMLID_239_" class="snow" d="M220.4 117.6l2-3.45.43.25-2 3.46z"/>
    </g>
    <g id="XMLID_234_">
      <path id="XMLID_237_" class="snow" d="M231.35 112.66h4v.5h-4z"/>
      <path id="XMLID_236_" class="snow" d="M234.13 114.77l-2-3.46.44-.2 2 3.5z"/>
      <path id="XMLID_235_" class="snow" d="M232.13 114.52l2-3.47.44.25-2 3.47z"/>
    </g>
    <path id="XMLID_233_" class="cloud light" d="M234.84 96.85c.1-.56.15-1.13.15-1.72 0-5.52-4.5-10-10-10-4.6 0-8.4 3.07-9.6 7.25-.5-.1-1-.16-1.4-.16-3 0-5.5 2.03-6.3 4.8-.5-.2-1-.3-1.6-.3-2.3 0-4.2 1.87-4.2 4.2s1.9 4.15 4.2 4.15c0 0 0-.07.1-.07h27.4s0 .07.1.07c2.3 0 4.2-1.85 4.2-4.18 0-2-1.4-3.6-3.2-4.1z"/>
  </g>
  <g id="lightSnowDay">
    <circle id="XMLID_178_" class="sun glow" cx="95.97" cy="92" r="10"/>
    <g id="XMLID_174_">
      <path id="XMLID_177_" class="snow" d="M82.97 110.9h4v.5h-4z"/>
      <path id="XMLID_176_" class="snow" d="M85.75 113l-2-3.47.44-.25 2 3.46z"/>
      <path id="XMLID_175_" class="snow" d="M83.76 112.74l2-3.46.43.25-2 3.46z"/>
    </g>
    <g id="XMLID_170_">
      <path id="XMLID_173_" class="snow" d="M93.97 109.74h4v.5h-4z"/>
      <path id="XMLID_172_" class="snow" d="M96.75 111.85l-2-3.46.43-.3 2 3.4z"/>
      <path id="XMLID_171_" class="snow" d="M94.75 111.6l2-3.47.43.25-2 3.47z"/>
    </g>
    <g id="XMLID_158_">
      <path id="XMLID_161_" class="snow" d="M99.6 115.76h4v.5h-4z"/>
      <path id="XMLID_160_" class="snow" d="M102.4 117.86l-2-3.46.43-.25 2 3.46z"/>
      <path id="XMLID_159_" class="snow" d="M100.4 117.62l2-3.47.43.25-2 3.47z"/>
    </g>
    <g id="XMLID_154_">
      <path id="XMLID_157_" class="snow" d="M111.35 112.66h4v.5h-4z"/>
      <path id="XMLID_156_" class="snow" d="M114.13 114.77l-2-3.46.44-.2 2 3.5z"/>
      <path id="XMLID_155_" class="snow" d="M112.13 114.52l2-3.47.44.25-2 3.47z"/>
    </g>
    <path id="XMLID_153_" class="cloud light" d="M114.84 96.85c.1-.56.15-1.13.15-1.72 0-5.52-4.5-10-10-10-4.6 0-8.4 3.07-9.6 7.25-.5-.1-1-.16-1.4-.16-3 0-5.5 2.03-6.3 4.8-.5-.2-1-.3-1.6-.3-2.3 0-4.2 1.87-4.2 4.2s1.9 4.15 4.2 4.15c0 0 0-.07.1-.07h27.4s0 .07.1.07c2.3 0 4.2-1.85 4.2-4.18 0-2-1.4-3.6-3.2-4.1z"/>
  </g>
  <g id="lightRainNight">
    <path id="XMLID_250_" class="moon glow" d="M215.13 42c2.2 1.44 3.68 3.92 3.68 6.76 0 4.44-3.6 8.05-8 8.05-2.8 0-5.3-1.4-6.7-3.6.6 5 4.8 8.8 10 8.8 5.5 0 10-4.5 10-10 0-5.1-3.8-9.3-8.8-9.9z"/>
    <path id="XMLID_305_" class="cloud light" d="M234.84 56.8c.1-.56.15-1.14.15-1.73 0-5.52-4.5-10-10-10-4.6 0-8.4 3.07-9.6 7.25-.5-.1-1-.16-1.4-.16-3 0-5.5 2.04-6.3 4.8-.5-.2-1-.3-1.6-.3-2.3 0-4.2 1.88-4.2 4.2 0 2.33 1.9 4.18 4.2 4.18 0 0 0-.04.1-.04h27.4s0 .04.1.04c2.3 0 4.2-1.87 4.2-4.2 0-1.96-1.4-3.57-3.2-4.04z"/>
    <path id="XMLID_304_" class="rain light" d="M212.38 72.88c.7 1.2.9 2.37.5 2.6-.42.25-1.32-.52-2-1.72-1.26-2.17-1.75-4.77-3-6.93 1.25 2.16 3.25 3.9 4.5 6.05z"/>
    <path id="XMLID_303_" class="rain light" d="M232.38 72.88c.7 1.2.9 2.37.5 2.6-.42.25-1.32-.52-2-1.72-1.26-2.17-1.75-4.77-3-6.93 1.25 2.16 3.25 3.9 4.5 6.05z"/>
    <path id="XMLID_302_" class="rain light" d="M222.38 75.88c.7 1.2.9 2.37.5 2.6-.42.25-1.32-.52-2-1.72-1.26-2.17-1.75-4.77-3-6.93 1.25 2.16 3.25 3.9 4.5 6.05z"/>
  </g>
  <g id="LightRainDay">
    <circle id="XMLID_30_" class="sun glow" cx="94.66" cy="52" r="10"/>
    <path id="XMLID_29_" class="cloud light" d="M114.84 56.8c.1-.56.15-1.14.15-1.73 0-5.52-4.5-10-10-10-4.6 0-8.4 3.07-9.6 7.25-.5-.1-1-.16-1.4-.16-3 0-5.5 2.04-6.3 4.8-.5-.2-1-.3-1.6-.3-2.3 0-4.2 1.88-4.2 4.2 0 2.33 1.9 4.18 4.2 4.18 0 0 0-.04.1-.04h27.4s0 .04.1.04c2.3 0 4.2-1.87 4.2-4.2 0-1.96-1.4-3.57-3.2-4.04z"/>
    <path id="XMLID_28_" class="rain light" d="M92.38 72.88c.7 1.2.9 2.37.5 2.6-.42.25-1.32-.52-2-1.72-1.26-2.17-1.75-4.77-3-6.93 1.25 2.16 3.25 3.9 4.5 6.05z"/>
    <path id="XMLID_27_" class="rain light" d="M112.38 72.88c.7 1.2.9 2.37.5 2.6-.42.25-1.32-.52-2-1.72-1.26-2.17-1.75-4.77-3-6.93 1.25 2.16 3.25 3.9 4.5 6.05z"/>
    <path id="XMLID_26_" class="rain light" d="M102.38 75.88c.7 1.2.9 2.37.5 2.6-.42.25-1.32-.52-2-1.72-1.26-2.17-1.75-4.77-3-6.93 1.25 2.16 3.25 3.9 4.5 6.05z"/>
  </g>
  <g id="sleetDay">
    <circle id="XMLID_66_" class="sun glow" cx="15.97" cy="52" r="10"/>
    <path id="XMLID_65_" class="cloud light" d="M34.84 56.77c.1-.57.15-1.14.15-1.73 0-5.52-4.5-10-10-10-4.6 0-8.4 3.07-9.6 7.25-.5-.1-1-.2-1.4-.2-3 0-5.5 2-6.3 4.8-.5-.2-1-.3-1.6-.3-2.3 0-4.2 1.9-4.2 4.2.1 2.3 2 4.2 4.3 4.2l.1-.1h27.5c2.3 0 4.2-1.9 4.2-4.2 0-2-1.4-3.6-3.2-4.1z"/>
    <path id="XMLID_63_" class="rain light" d="M13.38 75.85c.7 1.2.9 2.36.5 2.6-.42.25-1.32-.53-2-1.72-1.26-2.17-1.75-4.77-3-6.93 1.25 2.16 3.25 3.9 4.5 6.05z"/>
    <path id="XMLID_62_" class="rain light" d="M32.38 73.85c.7 1.2.9 2.36.5 2.6-.42.25-1.32-.53-2-1.72-1.26-2.17-1.75-4.77-3-6.93 1.25 2.16 3.25 3.9 4.5 6.05z"/>
    <path id="XMLID_61_" class="rain light" d="M24.38 75.85c.7 1.2.9 2.36.5 2.6-.42.25-1.32-.53-2-1.72-1.26-2.17-1.75-4.77-3-6.93 1.25 2.16 3.25 3.9 4.5 6.05z"/>
    <g id="XMLID_68_">
      <path id="XMLID_36_" class="snow" d="M2.97 70.9h4v.5h-4z"/>
      <path id="XMLID_64_" class="snow" d="M5.75 73l-2-3.47.44-.25 2 3.46z"/>
      <path id="XMLID_67_" class="snow" d="M3.76 72.74l2-3.46.43.25-2 3.46z"/>
    </g>
    <g id="XMLID_70_">
      <path id="XMLID_73_" class="snow" d="M13.97 69.74h4v.5h-4z"/>
      <path id="XMLID_72_" class="snow" d="M16.75 71.85l-2-3.46.43-.3 2 3.4z"/>
      <path id="XMLID_71_" class="snow" d="M14.75 71.6l2-3.47.43.25-2 3.47z"/>
    </g>
    <g id="XMLID_60_">
      <path id="XMLID_77_" class="snow" d="M23.7 71.65h4v.5h-4z"/>
      <path id="XMLID_75_" class="snow" d="M26.5 73.76l-2-3.47.42-.3 2 3.4z"/>
      <path id="XMLID_74_" class="snow" d="M24.5 73.5l2-3.46.42.25-2 3.4z"/>
    </g>
  </g>
  <g id="cloudyNight">
    <path id="XMLID_15_" class="moon glow" d="M175.13 2c2.2 1.44 3.68 3.92 3.68 6.76 0 4.44-3.6 8.05-8 8.05-2.8 0-5.3-1.4-6.7-3.6.6 5 4.8 8.8 10 8.8 5.5 0 10-4.5 10-10 0-5.1-3.8-9.3-8.8-9.9z"/>
    <path id="XMLID_14_" class="cloud light" d="M194.84 16.63c.1-.56.15-1.14.15-1.73 0-5.52-4.5-10-10-10-4.6 0-8.4 3.07-9.6 7.25-.5-.1-1-.16-1.4-.16-3 0-5.5 2-6.3 4.8-.5-.2-1-.4-1.6-.4-2.3 0-4.2 1.9-4.2 4.2 0 2.3 1.9 4.3 4.2 4.3h27.5s0-.1.1-.1c2.3 0 4.2-1.9 4.2-4.3 0-2-1.4-3.6-3.2-4.1z"/>
  </g>
  <g id="cloudyDay">
    <circle id="XMLID_31_" class="sun glow" cx="55.97" cy="12" r="10"/>
    <path id="XMLID_17_" class="cloud light" d="M74.84 16.68c.1-.56.15-1.13.15-1.72 0-5.52-4.5-10-10-10-4.6 0-8.4 3.07-9.6 7.25-.5-.1-1-.1-1.4-.1-3 0-5.5 2.1-6.3 4.8-.5-.2-1-.3-1.6-.3-2.3 0-4.2 1.9-4.2 4.2.1 2.3 2 4.2 4.3 4.2h27.6c2.3 0 4.2-1.9 4.2-4.2 0-1.9-1.4-3.6-3.2-4.1z"/>
  </g>
  <g id="sleetNight">
    <path id="XMLID_295_" class="moon glow" d="M135.13 42c2.2 1.44 3.68 3.92 3.68 6.76 0 4.44-3.6 8.05-8 8.05-2.8 0-5.3-1.4-6.7-3.6.6 5 4.8 8.8 10 8.8 5.5 0 10-4.5 10-10 0-5.1-3.8-9.3-8.8-9.9z"/>
    <path id="XMLID_294_" class="cloud light" d="M154.84 56.77c.1-.57.15-1.14.15-1.73 0-5.52-4.5-10-10-10-4.6 0-8.4 3.07-9.6 7.25-.5-.1-1-.2-1.4-.2-3 0-5.5 2-6.3 4.8-.5-.2-1-.3-1.6-.3-2.3 0-4.2 1.9-4.2 4.2 0 2.3 1.9 4.2 4.2 4.2l.1-.1h27.5c2.3 0 4.2-1.9 4.2-4.2 0-2-1.4-3.6-3.2-4.1z"/>
    <path id="XMLID_293_" class="rain med" d="M133.38 75.85c.7 1.2.9 2.36.5 2.6-.42.25-1.32-.53-2-1.72-1.26-2.17-1.75-4.77-3-6.93 1.25 2.16 3.25 3.9 4.5 6.05z"/>
    <path id="XMLID_292_" class="rain med" d="M152.38 73.85c.7 1.2.9 2.36.5 2.6-.42.25-1.32-.53-2-1.72-1.26-2.17-1.75-4.77-3-6.93 1.25 2.16 3.25 3.9 4.5 6.05z"/>
    <path id="XMLID_291_" class="rain med" d="M144.38 75.85c.7 1.2.9 2.36.5 2.6-.42.25-1.32-.53-2-1.72-1.26-2.17-1.75-4.77-3-6.93 1.25 2.16 3.25 3.9 4.5 6.05z"/>
    <g id="XMLID_287_">
      <path id="XMLID_290_" class="snow" d="M122.97 70.9h4v.5h-4z"/>
      <path id="XMLID_289_" class="snow" d="M125.75 73l-2-3.47.44-.25 2 3.46z"/>
      <path id="XMLID_288_" class="snow" d="M123.76 72.74l2-3.46.43.25-2 3.46z"/>
    </g>
    <g id="XMLID_283_">
      <path id="XMLID_286_" class="snow" d="M133.97 69.74h4v.5h-4z"/>
      <path id="XMLID_285_" class="snow" d="M136.75 71.85l-2-3.46.43-.3 2 3.4z"/>
      <path id="XMLID_284_" class="snow" d="M134.75 71.6l2-3.47.43.25-2 3.47z"/>
    </g>
    <g id="XMLID_279_">
      <path id="XMLID_282_" class="snow" d="M143.7 71.65h4v.5h-4z"/>
      <path id="XMLID_281_" class="snow" d="M146.5 73.76l-2-3.47.42-.3 2 3.4z"/>
      <path id="XMLID_280_" class="snow" d="M144.5 73.5l2-3.46.42.25-2 3.4z"/>
    </g>
  </g>
  <g id="mist">
    <path id="XMLID_340_" class="cloud med" d="M234.84 136.85c.1-.56.15-1.13.15-1.72 0-5.52-4.5-10-10-10-4.6 0-8.4 3.07-9.6 7.25-.5-.1-1-.16-1.4-.16-3 0-5.5 2.03-6.3 4.8-.5-.2-1-.3-1.6-.3-2.3 0-4.2 1.87-4.2 4.2s1.9 4.15 4.2 4.15c0 0 0-.07.1-.07h27.4s0 .07.1.07c2.3 0 4.2-1.85 4.2-4.18 0-2-1.4-3.6-3.2-4.1z"/>
    <path id="XMLID_339_" class="cloud med" d="M221.14 129.2c.06-.36.1-.7.1-1.07 0-3.4-2.75-6.13-6.13-6.13-2.8 0-5.1 1.88-5.8 4.44-.3-.06-.5-.1-.8-.1-1.8 0-3.3 1.25-3.8 2.95-.3-.2-.6-.2-.9-.2-1.4 0-2.6 1.1-2.6 2.5s1.2 2.4 2.6 2.4c.1 0 .1-.2.1-.2h16.8l.1.1c1.5 0 2.6-1.1 2.6-2.5 0-1.2-.8-2.2-1.9-2.5z"/>
    <path id="XMLID_341_" class="cloud med" d="M205 148.5h30v2h-30z"/>
    <path id="XMLID_343_" class="cloud med" d="M205 155h30v2h-30z"/>
  </g>
  <g id="lightSnow">
    <path id="XMLID_310_" class="cloud med" d="M194.84 136.85c.1-.56.15-1.13.15-1.72 0-5.52-4.5-10-10-10-4.6 0-8.4 3.07-9.6 7.25-.5-.1-1-.16-1.4-.16-3 0-5.5 2.03-6.3 4.8-.5-.2-1-.3-1.6-.3-2.3 0-4.2 1.87-4.2 4.2s1.9 4.15 4.2 4.15c0 0 0-.07.1-.07h27.4s0 .07.1.07c2.3 0 4.2-1.85 4.2-4.18 0-2-1.4-3.6-3.2-4.1z"/>
    <path id="XMLID_309_" class="cloud med" d="M181.14 129.2c.06-.36.1-.7.1-1.07 0-3.4-2.75-6.13-6.13-6.13-2.8 0-5.1 1.88-5.8 4.44-.3-.06-.5-.1-.8-.1-1.8 0-3.3 1.25-3.8 2.95-.3-.2-.6-.2-.9-.2-1.4 0-2.6 1.1-2.6 2.5s1.2 2.4 2.6 2.4c.1 0 .1-.2.1-.2h16.8l.1.1c1.5 0 2.6-1.1 2.6-2.5 0-1.2-.8-2.2-1.9-2.5z"/>
    <g id="XMLID_322_">
      <path id="XMLID_325_" class="snow" d="M162.97 150.9h4v.5h-4z"/>
      <path id="XMLID_324_" class="snow" d="M165.75 153l-2-3.47.44-.25 2 3.46z"/>
      <path id="XMLID_323_" class="snow" d="M163.76 152.74l2-3.46.43.25-2 3.46z"/>
    </g>
    <g id="XMLID_318_">
      <path id="XMLID_321_" class="snow" d="M173.97 149.74h4v.5h-4z"/>
      <path id="XMLID_320_" class="snow" d="M176.75 151.85l-2-3.46.43-.3 2 3.4z"/>
      <path id="XMLID_319_" class="snow" d="M174.75 151.6l2-3.47.43.25-2 3.47z"/>
    </g>
    <g id="XMLID_314_">
      <path id="XMLID_317_" class="snow" d="M179.6 155.76h4v.5h-4z"/>
      <path id="XMLID_316_" class="snow" d="M182.4 157.86l-2-3.46.43-.25 2 3.46z"/>
      <path id="XMLID_315_" class="snow" d="M180.4 157.6l2-3.45.43.25-2 3.46z"/>
    </g>
    <g id="XMLID_217_">
      <path id="XMLID_313_" class="snow" d="M191.35 152.66h4v.5h-4z"/>
      <path id="XMLID_312_" class="snow" d="M194.13 154.77l-2-3.46.44-.2 2 3.5z"/>
      <path id="XMLID_311_" class="snow" d="M192.13 154.52l2-3.47.44.25-2 3.47z"/>
    </g>
  </g>
  <g id="cloudy">
    <path id="XMLID_12_" class="cloud med" d="M114.84 136.85c.1-.56.15-1.13.15-1.72 0-5.52-4.5-10-10-10-4.6 0-8.4 3.07-9.6 7.25-.5-.1-1-.16-1.4-.16-3 0-5.5 2.03-6.3 4.8-.5-.2-1-.3-1.6-.3-2.3 0-4.2 1.87-4.2 4.2s1.9 4.15 4.2 4.15c0 0 0-.07.1-.07h27.4s0 .07.1.07c2.3 0 4.2-1.85 4.2-4.18 0-2-1.4-3.6-3.2-4.1z"/>
    <path id="XMLID_23_" class="cloud med" d="M101.14 129.2c.06-.36.1-.7.1-1.07 0-3.4-2.75-6.13-6.13-6.13-2.8 0-5.1 1.88-5.8 4.44-.3-.06-.5-.1-.8-.1-1.8 0-3.3 1.25-3.8 2.95-.3-.2-.6-.2-.9-.2-1.4 0-2.6 1.1-2.6 2.5s1.2 2.4 2.6 2.4c.1 0 .1-.2.1-.2h16.8l.1.1c1.5 0 2.6-1.1 2.6-2.5 0-1.2-.8-2.2-1.9-2.5z"/>
  </g>
  <g id="lightRain">
    <path id="XMLID_21_" class="cloud med" d="M74.84 136.85c.1-.56.15-1.13.15-1.72 0-5.52-4.5-10-10-10-4.6 0-8.4 3.07-9.6 7.25-.5-.1-1-.16-1.4-.16-3 0-5.5 2.03-6.3 4.8-.5-.2-1-.3-1.6-.3-2.3 0-4.2 1.87-4.2 4.2s1.9 4.15 4.2 4.15c0 0 0-.07.1-.07h27.4s0 .07.1.07c2.3 0 4.2-1.85 4.2-4.18 0-2-1.4-3.6-3.2-4.1z"/>
    <path id="XMLID_20_" class="cloud med" d="M61.14 129.2c.06-.36.1-.7.1-1.07 0-3.4-2.75-6.13-6.13-6.13-2.8 0-5.1 1.88-5.8 4.44-.3-.06-.5-.1-.8-.1-1.8 0-3.3 1.25-3.8 2.95-.3-.2-.6-.2-.9-.2-1.4 0-2.6 1.1-2.6 2.5s1.2 2.4 2.6 2.4c.1 0 .1-.2.1-.2h16.8l.1.1c1.5 0 2.6-1.1 2.6-2.5 0-1.2-.8-2.2-1.9-2.5z"/>
    <path id="XMLID_10_" class="rain light" d="M52.38 152.85c.7 1.2.9 2.36.5 2.6s-1.32-.53-2-1.72c-1.26-2.17-1.75-4.77-3-6.93 1.25 2.16 3.25 3.9 4.5 6.05z"/>
    <path id="XMLID_24_" class="rain light" d="M72.38 152.85c.7 1.2.9 2.36.5 2.6s-1.32-.53-2-1.72c-1.26-2.17-1.75-4.77-3-6.93 1.25 2.16 3.25 3.9 4.5 6.05z"/>
    <path id="XMLID_25_" class="rain light" d="M62.38 155.85c.7 1.2.9 2.36.5 2.6s-1.32-.53-2-1.72c-1.26-2.17-1.75-4.77-3-6.93 1.25 2.16 3.25 3.9 4.5 6.05z"/>
  </g>
  <g id="sleet">
    <path id="XMLID_95_" class="cloud med" d="M21.14 129.2c.06-.36.1-.7.1-1.07 0-3.4-2.75-6.13-6.13-6.13-2.8 0-5.1 1.88-5.8 4.44-.3-.06-.5-.1-.8-.1-1.8 0-3.3 1.25-3.8 2.95-.3-.2-.6-.2-.9-.2-1.4 0-2.6 1.1-2.6 2.5s1.1 2.4 2.5 2.4c.1 0 .1-.2.1-.2h16.8l.1.1c1.5 0 2.6-1.1 2.6-2.5 0-1.2-.8-2.2-1.9-2.5z"/>
    <path id="XMLID_93_" class="cloud med" d="M34.84 136.85c.1-.56.15-1.13.15-1.72 0-5.52-4.5-10-10-10-4.6 0-8.4 3.07-9.6 7.25-.5-.1-1-.16-1.4-.16-3 0-5.5 2.03-6.3 4.8-.5-.2-1-.3-1.6-.3-2.3 0-4.2 1.87-4.2 4.2s1.9 4.15 4.2 4.15c0 0 0-.07.1-.07h27.4s0 .07.1.07c2.3 0 4.2-1.85 4.2-4.18 0-2-1.4-3.6-3.2-4.1z"/>
    <path id="XMLID_92_" class="rain med" d="M13.38 155.85c.7 1.2.9 2.36.5 2.6s-1.32-.53-2-1.72c-1.26-2.17-1.75-4.77-3-6.93 1.25 2.16 3.25 3.9 4.5 6.05z"/>
    <path id="XMLID_91_" class="rain med" d="M32.38 153.85c.7 1.2.9 2.36.5 2.6s-1.32-.53-2-1.72c-1.26-2.17-1.75-4.77-3-6.93 1.25 2.16 3.25 3.9 4.5 6.05z"/>
    <path id="XMLID_90_" class="rain med" d="M24.38 155.85c.7 1.2.9 2.36.5 2.6s-1.32-.53-2-1.72c-1.26-2.17-1.75-4.77-3-6.93 1.25 2.16 3.25 3.9 4.5 6.05z"/>
    <g id="XMLID_86_">
      <path id="XMLID_89_" class="snow" d="M2.97 150.9h4v.5h-4z"/>
      <path id="XMLID_88_" class="snow" d="M5.75 153l-2-3.47.44-.25 2 3.46z"/>
      <path id="XMLID_87_" class="snow" d="M3.76 152.74l2-3.46.43.25-2 3.46z"/>
    </g>
    <g id="XMLID_81_">
      <path id="XMLID_84_" class="snow" d="M13.97 149.74h4v.5h-4z"/>
      <path id="XMLID_83_" class="snow" d="M16.75 151.85l-2-3.46.43-.3 2 3.4z"/>
      <path id="XMLID_82_" class="snow" d="M14.75 151.6l2-3.47.43.25-2 3.47z"/>
    </g>
    <g id="XMLID_58_">
      <path id="XMLID_80_" class="snow" d="M23.7 151.65h4v.5h-4z"/>
      <path id="XMLID_78_" class="snow" d="M26.5 153.76l-2-3.47.42-.3 2 3.4z"/>
      <path id="XMLID_59_" class="snow" d="M24.5 153.5l2-3.46.42.25-2 3.4z"/>
    </g>
  </g>
  <g id="fog">
    <path id="XMLID_345_" class="cloud" d="M234.84 176.85c.1-.56.15-1.13.15-1.72 0-5.52-4.5-10-10-10-4.6 0-8.4 3.07-9.6 7.25-.5-.1-1-.16-1.4-.16-3 0-5.5 2.03-6.3 4.8-.5-.2-1-.3-1.6-.3-2.3 0-4.2 1.87-4.2 4.2s1.9 4.15 4.2 4.15c0 0 0-.07.1-.07h27.4s0 .07.1.07c2.3 0 4.2-1.85 4.2-4.18 0-2-1.4-3.6-3.2-4.1z"/>
    <path id="XMLID_344_" class="cloud" d="M221.14 169.2c.06-.35.1-.7.1-1.07 0-3.38-2.75-6.13-6.13-6.13-2.8 0-5.1 1.88-5.8 4.44-.3-.06-.5-.1-.8-.1-1.8 0-3.3 1.25-3.8 2.95-.3-.2-.6-.2-.9-.2-1.4 0-2.6 1.1-2.6 2.5s1.2 2.4 2.6 2.4c.1 0 .1-.2.1-.2h16.8l.1.1c1.5 0 2.6-1.1 2.6-2.5 0-1.2-.8-2.2-1.9-2.5z"/>
    <path id="XMLID_342_" class="cloud" d="M232.14 185.2c.06-.35.1-.7.1-1.07 0-3.38-2.75-6.13-6.13-6.13-2.8 0-5.1 1.88-5.8 4.44-.3-.06-.5-.1-.8-.1-1.8 0-3.3 1.25-3.8 2.95-.3-.2-.6-.2-.9-.2-1.4 0-2.6 1.1-2.6 2.5s1.2 2.4 2.6 2.4c.1 0 .1-.2.1-.2h16.8l.1.1c1.5 0 2.6-1.1 2.6-2.5 0-1.2-.8-2.2-1.9-2.5z"/>
    <path id="XMLID_347_" class="cloud" d="M205 188.5h30v2h-30z"/>
    <path id="XMLID_349_" class="cloud" d="M205 191.5h30v2h-30z"/>
    <path id="XMLID_346_" class="cloud" d="M205 195h30v2h-30z"/>
  </g>
  <g id="drizzle">
    <path id="XMLID_35_" class="cloud" d="M74.84 176.85c.1-.56.15-1.13.15-1.72 0-5.52-4.5-10-10-10-4.6 0-8.4 3.07-9.6 7.25-.5-.1-1-.16-1.4-.16-3 0-5.5 2.03-6.3 4.8-.5-.2-1-.3-1.6-.3-2.3 0-4.2 1.87-4.2 4.2s1.9 4.15 4.2 4.15c0 0 0-.07.1-.07h27.4s0 .07.1.07c2.3 0 4.2-1.85 4.2-4.18 0-2-1.4-3.6-3.2-4.1z"/>
    <path id="XMLID_34_" class="cloud" d="M61.14 169.2c.06-.36.1-.7.1-1.07 0-3.4-2.75-6.13-6.13-6.13-2.8 0-5.1 1.88-5.8 4.44-.3-.06-.5-.1-.8-.1-1.8 0-3.3 1.25-3.8 2.95-.3-.2-.6-.2-.9-.2-1.4 0-2.6 1.1-2.6 2.5s1.2 2.4 2.6 2.4c.1 0 .1-.2.1-.2h16.8l.1.1c1.5 0 2.6-1.1 2.6-2.5 0-1.2-.8-2.2-1.9-2.5z"/>
    <path id="XMLID_33_" class="rain" d="M52.38 192.85c.7 1.2.9 2.36.5 2.6s-1.32-.53-2-1.72c-1.26-2.17-1.75-4.77-3-6.93 1.25 2.16 3.25 3.9 4.5 6.05z"/>
    <path id="XMLID_32_" class="rain" d="M72.38 193.85c.7 1.2.9 2.36.5 2.6s-1.32-.53-2-1.72c-1.26-2.17-1.75-4.77-3-6.93 1.25 2.16 3.25 3.9 4.5 6.05z"/>
    <path id="XMLID_22_" class="rain" d="M62.38 195.85c.7 1.2.9 2.36.5 2.6s-1.32-.53-2-1.72c-1.26-2.17-1.75-4.77-3-6.93 1.25 2.16 3.25 3.9 4.5 6.05z"/>
    <path id="XMLID_11_" class="cloud" d="M72.14 185.2c.06-.36.1-.7.1-1.07 0-3.4-2.75-6.13-6.13-6.13-2.8 0-5.1 1.88-5.8 4.44-.3-.06-.5-.1-.8-.1-1.8 0-3.3 1.25-3.8 2.95-.3-.2-.6-.2-.9-.2-1.4 0-2.6 1.1-2.6 2.5s1.2 2.4 2.6 2.4c.1 0 .1-.2.1-.2h16.8l.1.1c1.5 0 2.6-1.1 2.6-2.5 0-1.2-.8-2.2-1.9-2.5z"/>
  </g>
  <g id="overcast">
    <path id="XMLID_16_" class="cloud" d="M154.84 136.85c.1-.56.15-1.13.15-1.72 0-5.52-4.5-10-10-10-4.6 0-8.4 3.07-9.6 7.25-.5-.1-1-.16-1.4-.16-3 0-5.5 2.03-6.3 4.8-.5-.2-1-.3-1.6-.3-2.3 0-4.2 1.87-4.2 4.2s1.9 4.15 4.2 4.15c0 0 0-.07.1-.07h27.4s0 .07.1.07c2.3 0 4.2-1.85 4.2-4.18 0-2-1.4-3.6-3.2-4.1z"/>
    <path id="XMLID_18_" class="cloud" d="M141.14 129.2c.06-.36.1-.7.1-1.07 0-3.4-2.75-6.13-6.13-6.13-2.8 0-5.1 1.88-5.8 4.44-.3-.06-.5-.1-.8-.1-1.8 0-3.3 1.25-3.8 2.95-.3-.2-.6-.2-.9-.2-1.4 0-2.6 1.1-2.6 2.5s1.2 2.4 2.6 2.4c.1 0 .1-.2.1-.2h16.8l.1.1c1.5 0 2.6-1.1 2.6-2.5 0-1.2-.8-2.2-1.9-2.5z"/>
    <path id="XMLID_19_" class="cloud" d="M152.14 145.2c.06-.36.1-.7.1-1.07 0-3.4-2.75-6.13-6.13-6.13-2.8 0-5.1 1.88-5.8 4.44-.3-.06-.5-.1-.8-.1-1.8 0-3.3 1.25-3.8 2.95-.3-.2-.6-.2-.9-.2-1.4 0-2.6 1.1-2.6 2.5s1.2 2.4 2.6 2.4c.1 0 .1-.2.1-.2h16.8l.1.1c1.5 0 2.6-1.1 2.6-2.5 0-1.2-.8-2.2-1.9-2.5z"/>
  </g>
  <g id="heavySnowNight">
    <path id="XMLID_306_" class="moon glow" d="M135.13 82c2.2 1.44 3.68 3.92 3.68 6.76 0 4.44-3.6 8.05-8 8.05-2.8 0-5.3-1.4-6.7-3.6.6 5 4.8 8.8 10 8.8 5.5 0 10-4.5 10-10 0-5.1-3.8-9.3-8.8-9.9z"/>
    <g id="XMLID_274_">
      <path id="XMLID_277_" class="snow" d="M122.97 110.9h4v.5h-4z"/>
      <path id="XMLID_276_" class="snow" d="M125.75 113l-2-3.47.44-.25 2 3.46z"/>
      <path id="XMLID_275_" class="snow" d="M123.76 112.74l2-3.46.43.25-2 3.46z"/>
    </g>
    <g id="XMLID_270_">
      <path id="XMLID_273_" class="snow" d="M133.97 109.74h4v.5h-4z"/>
      <path id="XMLID_272_" class="snow" d="M136.75 111.85l-2-3.46.43-.3 2 3.4z"/>
      <path id="XMLID_271_" class="snow" d="M134.75 111.6l2-3.47.43.25-2 3.47z"/>
    </g>
    <g id="XMLID_266_">
      <path id="XMLID_269_" class="snow" d="M143.7 111.65h4v.5h-4z"/>
      <path id="XMLID_268_" class="snow" d="M146.5 113.76l-2-3.47.42-.3 2 3.4z"/>
      <path id="XMLID_267_" class="snow" d="M144.5 113.5l2-3.46.42.25-2 3.4z"/>
    </g>
    <g id="XMLID_262_">
      <path id="XMLID_265_" class="snow" d="M130.6 116.9h4v.5h-4z"/>
      <path id="XMLID_264_" class="snow" d="M133.4 119l-2-3.46.43-.25 2 3.4z"/>
      <path id="XMLID_263_" class="snow" d="M131.4 118.76l2-3.47.43.2-2 3.4z"/>
    </g>
    <g id="XMLID_258_">
      <path id="XMLID_261_" class="snow" d="M139.6 115.76h4v.5h-4z"/>
      <path id="XMLID_260_" class="snow" d="M142.4 117.86l-2-3.46.43-.25 2 3.46z"/>
      <path id="XMLID_259_" class="snow" d="M140.4 117.62l2-3.47.43.25-2 3.47z"/>
    </g>
    <g id="XMLID_254_">
      <path id="XMLID_257_" class="snow" d="M151.35 112.66h4v.5h-4z"/>
      <path id="XMLID_256_" class="snow" d="M154.13 114.77l-2-3.46.44-.2 2 3.5z"/>
      <path id="XMLID_255_" class="snow" d="M152.13 114.52l2-3.47.44.25-2 3.47z"/>
    </g>
    <path id="XMLID_253_" class="cloud" d="M154.84 96.85c.1-.56.15-1.13.15-1.72 0-5.52-4.5-10-10-10-4.6 0-8.4 3.07-9.6 7.25-.5-.1-1-.16-1.4-.16-3 0-5.5 2.03-6.3 4.8-.5-.2-1-.3-1.6-.3-2.3 0-4.2 1.87-4.2 4.2s1.9 4.15 4.2 4.15c0 0 0-.07.1-.07h27.4s0 .07.1.07c2.3 0 4.2-1.85 4.2-4.18 0-2-1.4-3.6-3.2-4.1z"/>
    <path id="XMLID_252_" class="cloud" d="M141.14 89.2c.06-.36.1-.7.1-1.07 0-3.4-2.75-6.13-6.13-6.13-2.8 0-5.1 1.88-5.8 4.44-.3-.06-.5-.1-.8-.1-1.8 0-3.3 1.25-3.8 2.95-.3-.2-.6-.2-.9-.2-1.4 0-2.6 1.1-2.6 2.5s1.2 2.4 2.6 2.4c.1 0 .1-.2.1-.2h16.8l.1.1c1.5 0 2.6-1.1 2.6-2.5 0-1.2-.8-2.2-1.9-2.5z"/>
    <path id="XMLID_251_" class="cloud" d="M152.14 105.2c.06-.36.1-.7.1-1.07 0-3.4-2.75-6.13-6.13-6.13-2.8 0-5.1 1.88-5.8 4.44-.3-.06-.5-.1-.8-.1-1.8 0-3.3 1.25-3.8 2.95-.3-.2-.6-.2-.9-.2-1.4 0-2.6 1.1-2.6 2.5s1.2 2.4 2.6 2.4c.1 0 .1-.2.1-.2h16.8l.1.1c1.5 0 2.6-1.1 2.6-2.5 0-1.2-.8-2.2-1.9-2.5z"/>
  </g>
  <g id="heavySnowDay">
    <circle id="XMLID_127_" class="sun glow" cx="15.97" cy="92" r="10"/>
    <g id="XMLID_142_">
      <path id="XMLID_145_" class="snow" d="M2.97 110.9h4v.5h-4z"/>
      <path id="XMLID_144_" class="snow" d="M5.75 113l-2-3.47.44-.25 2 3.46z"/>
      <path id="XMLID_143_" class="snow" d="M3.76 112.74l2-3.46.43.25-2 3.46z"/>
    </g>
    <g id="XMLID_123_">
      <path id="XMLID_141_" class="snow" d="M13.97 109.74h4v.5h-4z"/>
      <path id="XMLID_125_" class="snow" d="M16.75 111.85l-2-3.46.43-.3 2 3.4z"/>
      <path id="XMLID_124_" class="snow" d="M14.75 111.6l2-3.47.43.25-2 3.47z"/>
    </g>
    <g id="XMLID_119_">
      <path id="XMLID_122_" class="snow" d="M23.7 111.65h4v.5h-4z"/>
      <path id="XMLID_121_" class="snow" d="M26.5 113.76l-2-3.47.42-.3 2 3.4z"/>
      <path id="XMLID_120_" class="snow" d="M24.5 113.5l2-3.46.42.25-2 3.4z"/>
    </g>
    <g id="XMLID_115_">
      <path id="XMLID_118_" class="snow" d="M10.6 116.9h4v.5h-4z"/>
      <path id="XMLID_117_" class="snow" d="M13.4 119l-2-3.46.43-.25 2 3.4z"/>
      <path id="XMLID_116_" class="snow" d="M11.4 118.76l2-3.47.43.2-2 3.4z"/>
    </g>
    <g id="XMLID_111_">
      <path id="XMLID_114_" class="snow" d="M19.6 115.76h4v.5h-4z"/>
      <path id="XMLID_113_" class="snow" d="M22.4 117.86l-2-3.46.43-.25 2 3.46z"/>
      <path id="XMLID_112_" class="snow" d="M20.4 117.62l2-3.47.43.25-2 3.47z"/>
    </g>
    <g id="XMLID_57_">
      <path id="XMLID_109_" class="snow" d="M31.35 112.66h4v.5h-4z"/>
      <path id="XMLID_108_" class="snow" d="M34.13 114.77l-2-3.46.44-.2 2 3.5z"/>
      <path id="XMLID_107_" class="snow" d="M32.13 114.52l2-3.47.44.25-2 3.47z"/>
    </g>
    <path id="XMLID_151_" class="cloud" d="M34.84 96.85c.1-.56.15-1.13.15-1.72 0-5.52-4.5-10-10-10-4.6 0-8.4 3.07-9.6 7.25-.5-.1-1-.16-1.4-.16-3 0-5.5 2.03-6.3 4.8-.5-.2-1-.3-1.6-.3-2.3 0-4.2 1.87-4.2 4.2s1.9 4.15 4.2 4.15c0 0 0-.07.1-.07h27.4s0 .07.1.07c2.3 0 4.2-1.85 4.2-4.18 0-2-1.4-3.6-3.2-4.1z"/>
    <path id="XMLID_146_" class="cloud" d="M21.14 89.2c.06-.36.1-.7.1-1.07 0-3.4-2.75-6.13-6.13-6.13-2.8 0-5.1 1.88-5.8 4.44-.3-.06-.5-.1-.8-.1-1.8 0-3.3 1.25-3.8 2.95-.3-.2-.6-.2-.9-.2-1.4 0-2.6 1.1-2.6 2.5S2.3 94 3.8 94v-.14h16.8V94c1.45 0 2.6-1.1 2.6-2.5 0-1.2-.8-2.18-1.94-2.47z"/>
    <path id="XMLID_128_" class="cloud" d="M32.14 105.2c.06-.36.1-.7.1-1.07 0-3.4-2.75-6.13-6.13-6.13-2.8 0-5.1 1.88-5.8 4.44-.3-.06-.5-.1-.8-.1-1.8 0-3.3 1.25-3.8 2.95-.3-.2-.6-.2-.9-.2-1.4 0-2.6 1.1-2.6 2.5s1.2 2.4 2.6 2.4c.1 0 .1-.2.1-.2h16.8l.1.1c1.5 0 2.6-1.1 2.6-2.5 0-1.2-.8-2.2-1.9-2.5z"/>
  </g>
  <g id="heavyRainNight">
    <path id="XMLID_278_" class="moon glow" d="M175.13 42c2.2 1.44 3.68 3.92 3.68 6.76 0 4.44-3.6 8.05-8 8.05-2.8 0-5.3-1.4-6.7-3.6.6 5 4.8 8.8 10 8.8 5.5 0 10-4.5 10-10 0-5.1-3.8-9.3-8.8-9.9z"/>
    <path id="XMLID_231_" class="cloud" d="M194.84 56.77c.1-.57.15-1.14.15-1.73 0-5.52-4.5-10-10-10-4.6 0-8.4 3.07-9.6 7.25-.5-.1-1-.2-1.4-.2-3 0-5.5 2-6.3 4.8-.5-.2-1-.3-1.6-.3-2.3 0-4.2 1.9-4.2 4.2 0 2.3 1.9 4.2 4.2 4.2l.1-.1h27.5c2.3 0 4.2-1.9 4.2-4.2 0-2-1.4-3.6-3.2-4.1z"/>
    <path id="XMLID_230_" class="cloud" d="M181.14 49.2c.06-.36.1-.7.1-1.07 0-3.4-2.75-6.13-6.13-6.13-2.8 0-5.1 1.88-5.8 4.44-.3-.06-.5-.1-.8-.1-1.8 0-3.3 1.25-3.8 2.95-.3-.2-.6-.2-.9-.2-1.4 0-2.6 1.1-2.6 2.5s1.2 2.4 2.6 2.4c.1 0 .1-.2.1-.2h16.8l.1.1c1.5 0 2.6-1.1 2.6-2.5 0-1.2-.8-2.2-1.9-2.5z"/>
    <path id="XMLID_229_" class="rain" d="M173.38 75.85c.7 1.2.9 2.36.5 2.6-.42.25-1.32-.53-2-1.72-1.26-2.17-1.75-4.77-3-6.93 1.25 2.16 3.25 3.9 4.5 6.05z"/>
    <path id="XMLID_228_" class="rain" d="M192.38 73.85c.7 1.2.9 2.36.5 2.6-.42.25-1.32-.53-2-1.72-1.26-2.17-1.75-4.77-3-6.93 1.25 2.16 3.25 3.9 4.5 6.05z"/>
    <path id="XMLID_227_" class="rain" d="M184.38 75.85c.7 1.2.9 2.36.5 2.6-.42.25-1.32-.53-2-1.72-1.26-2.17-1.75-4.77-3-6.93 1.25 2.16 3.25 3.9 4.5 6.05z"/>
    <path id="XMLID_226_" class="rain" d="M167.38 70.85c.7 1.2.9 2.36.5 2.6-.42.25-1.32-.53-2-1.72-1.26-2.17-1.75-4.77-3-6.93 1.25 2.16 3.25 3.9 4.5 6.05z"/>
    <path id="XMLID_225_" class="rain" d="M187.38 71.85c.7 1.2.9 2.36.5 2.6-.42.25-1.32-.53-2-1.72-1.26-2.17-1.75-4.77-3-6.93 1.25 2.16 3.25 3.9 4.5 6.05z"/>
    <path id="XMLID_224_" class="rain" d="M177.38 73.85c.7 1.2.9 2.36.5 2.6-.42.25-1.32-.53-2-1.72-1.26-2.17-1.75-4.77-3-6.93 1.25 2.16 3.25 3.9 4.5 6.05z"/>
    <path id="XMLID_223_" class="cloud" d="M192.14 65.2c.06-.36.1-.7.1-1.07 0-3.4-2.75-6.13-6.13-6.13-2.8 0-5.1 1.88-5.8 4.44-.3-.06-.5-.1-.8-.1-1.8 0-3.3 1.25-3.8 2.95-.3-.2-.6-.2-.9-.2-1.4 0-2.6 1.1-2.6 2.5s1.2 2.4 2.6 2.4c.1 0 .1-.2.1-.2h16.8l.1.1c1.5 0 2.6-1.1 2.6-2.5 0-1.2-.8-2.2-1.9-2.5z"/>
  </g>
  <g id="heavyRainDay">
    <circle id="XMLID_169_" class="sun glow" cx="55.97" cy="52" r="10"/>
    <path id="XMLID_168_" class="cloud" d="M74.84 56.77c.1-.57.15-1.14.15-1.73 0-5.52-4.5-10-10-10-4.6 0-8.4 3.07-9.6 7.25-.5-.1-1-.2-1.4-.2-3 0-5.5 2-6.3 4.8-.5-.2-1-.3-1.6-.3-2.3 0-4.2 1.9-4.2 4.2 0 2.3 1.9 4.2 4.2 4.2l.1-.1h27.5c2.3 0 4.2-1.9 4.2-4.2 0-2-1.4-3.6-3.2-4.1z"/>
    <path id="XMLID_167_" class="cloud" d="M61.14 49.2c.06-.36.1-.7.1-1.07 0-3.4-2.75-6.13-6.13-6.13-2.8 0-5.1 1.88-5.8 4.44-.3-.06-.5-.1-.8-.1-1.8 0-3.3 1.25-3.8 2.95-.3-.2-.6-.2-.9-.2-1.4 0-2.6 1.1-2.6 2.5s1.1 2.4 2.5 2.4c.1 0 .1-.2.1-.2h16.8l.1.1c1.5 0 2.6-1.1 2.6-2.5 0-1.2-.8-2.2-1.9-2.5z"/>
    <path id="XMLID_166_" class="rain" d="M53.38 75.85c.7 1.2.9 2.36.5 2.6-.42.25-1.32-.53-2-1.72-1.26-2.17-1.75-4.77-3-6.93 1.25 2.16 3.25 3.9 4.5 6.05z"/>
    <path id="XMLID_165_" class="rain" d="M72.38 73.85c.7 1.2.9 2.36.5 2.6-.42.25-1.32-.53-2-1.72-1.26-2.17-1.75-4.77-3-6.93 1.25 2.16 3.25 3.9 4.5 6.05z"/>
    <path id="XMLID_164_" class="rain" d="M64.38 75.85c.7 1.2.9 2.36.5 2.6-.42.25-1.32-.53-2-1.72-1.26-2.17-1.75-4.77-3-6.93 1.25 2.16 3.25 3.9 4.5 6.05z"/>
    <path id="XMLID_163_" class="rain" d="M47.38 70.85c.7 1.2.9 2.36.5 2.6-.42.25-1.32-.53-2-1.72-1.26-2.17-1.75-4.77-3-6.93 1.25 2.16 3.25 3.9 4.5 6.05z"/>
    <path id="XMLID_162_" class="rain" d="M67.38 71.85c.7 1.2.9 2.36.5 2.6-.42.25-1.32-.53-2-1.72-1.26-2.17-1.75-4.77-3-6.93 1.25 2.16 3.25 3.9 4.5 6.05z"/>
    <path id="XMLID_152_" class="rain" d="M57.38 73.85c.7 1.2.9 2.36.5 2.6-.42.25-1.32-.53-2-1.72-1.26-2.17-1.75-4.77-3-6.93 1.25 2.16 3.25 3.9 4.5 6.05z"/>
    <path id="XMLID_126_" class="cloud" d="M72.14 65.2c.06-.36.1-.7.1-1.07 0-3.4-2.75-6.13-6.13-6.13-2.8 0-5.1 1.88-5.8 4.44-.3-.06-.5-.1-.8-.1-1.8 0-3.3 1.25-3.8 2.95-.3-.2-.6-.2-.9-.2-1.4 0-2.6 1.1-2.6 2.5s1.1 2.4 2.5 2.4c.1 0 .1-.2.1-.2h16.8l.1.1c1.5 0 2.6-1.1 2.6-2.5 0-1.2-.8-2.2-1.9-2.5z"/>
  </g>
  <g id="hailNight">
    <path id="XMLID_232_" class="moon glow" d="M215.13 2c2.2 1.44 3.68 3.92 3.68 6.76 0 4.44-3.6 8.05-8 8.05-2.8 0-5.3-1.4-6.7-3.6.6 5 4.8 8.8 10 8.8 5.5 0 10-4.5 10-10 0-5.1-3.8-9.3-8.8-9.9z"/>
    <path id="XMLID_216_" class="cloud" d="M234.84 16.85c.1-.56.15-1.13.15-1.72 0-5.52-4.5-10-10-10-4.6 0-8.4 3.07-9.6 7.25-.5-.1-1-.16-1.4-.16-3 0-5.5 2.03-6.3 4.8-.5-.2-1-.3-1.6-.3-2.3 0-4.2 1.87-4.2 4.2s1.9 4.15 4.2 4.15c0 0 0-.07.1-.07h27.4s0 .07.1.07c2.3 0 4.2-1.85 4.2-4.18 0-2-1.4-3.6-3.2-4.1z"/>
    <path id="XMLID_215_" class="cloud" d="M221.14 9.2c.06-.36.1-.7.1-1.07 0-3.4-2.75-6.13-6.13-6.13-2.8 0-5.1 1.88-5.8 4.44-.3-.06-.5-.1-.8-.1-1.8 0-3.3 1.25-3.8 2.95-.3-.2-.6-.2-.9-.2-1.4 0-2.6 1.1-2.6 2.5s1.2 2.4 2.6 2.4c.1 0 .1-.2.1-.2h16.8l.1.1c1.5 0 2.6-1.1 2.6-2.5 0-1.2-.8-2.2-1.9-2.5z"/>
    <path id="XMLID_214_" class="rain" d="M207.38 30.85c.7 1.2.9 2.36.5 2.6-.42.25-1.32-.53-2-1.72-1.26-2.17-1.75-4.77-3-6.93 1.25 2.16 3.25 3.9 4.5 6.05z"/>
    <path id="XMLID_213_" class="rain" d="M227.38 31.85c.7 1.2.9 2.36.5 2.6-.42.25-1.32-.53-2-1.72-1.26-2.17-1.75-4.77-3-6.93 1.25 2.16 3.25 3.9 4.5 6.05z"/>
    <path id="XMLID_212_" class="rain" d="M217.38 33.85c.7 1.2.9 2.36.5 2.6-.42.25-1.32-.53-2-1.72-1.26-2.17-1.75-4.77-3-6.93 1.25 2.16 3.25 3.9 4.5 6.05z"/>
    <path id="XMLID_211_" class="cloud" d="M232.14 25.2c.06-.36.1-.7.1-1.07 0-3.4-2.75-6.13-6.13-6.13-2.8 0-5.1 1.88-5.8 4.44-.3-.06-.5-.1-.8-.1-1.8 0-3.3 1.25-3.8 2.95-.3-.2-.6-.2-.9-.2-1.4 0-2.6 1.1-2.6 2.5s1.2 2.4 2.6 2.4c.1 0 .1-.2.1-.2h16.8l.1.1c1.5 0 2.6-1.1 2.6-2.5 0-1.2-.8-2.2-1.9-2.5z"/>
    <path id="XMLID_203_" class="snow light" d="M209.78 30.66l.44-.25 2.5 4.4-.44.3z"/>
    <path id="XMLID_198_" class="snow light" d="M220.78 31.66l.44-.25 2.5 4.4-.44.3z"/>
    <path id="XMLID_196_" class="snow light" d="M229.78 30.66l.44-.25 2.5 4.4-.44.3z"/>
    <circle id="XMLID_204_" class="snow" cx="213.5" cy="36.6" r="1"/>
    <circle id="XMLID_197_" class="snow" cx="233.5" cy="36.6" r="1"/>
    <circle id="XMLID_202_" class="snow" cx="224.5" cy="37.6" r="1"/>
  </g>
  <g id="hailNight_1_">
    <circle id="XMLID_201_" class="sun glow" cx="95.97" cy="12" r="10"/>
    <path id="XMLID_200_" class="cloud" d="M114.84 16.78c.1-.56.15-1.13.15-1.72 0-5.52-4.5-10-10-10-4.6 0-8.4 3.06-9.6 7.24-.5-.1-1-.15-1.4-.15-3 0-5.5 2.03-6.3 4.8-.5-.2-1-.32-1.6-.32-2.3 0-4.2 1.9-4.2 4.22 0 2.33 1.9 4.2 4.2 4.2 0 0 0-.05.1-.05h27.4s0 .04.1.04c2.3 0 4.2-1.88 4.2-4.2 0-1.97-1.4-3.6-3.2-4.06z"/>
    <path id="XMLID_199_" class="cloud" d="M101.14 9.2c.06-.36.1-.7.1-1.07 0-3.4-2.75-6.13-6.13-6.13-2.8 0-5.1 1.88-5.8 4.44-.3-.06-.5-.1-.8-.1-1.8 0-3.3 1.25-3.8 2.95-.3-.2-.6-.2-.9-.2-1.4 0-2.6 1.1-2.6 2.5s1.1 2.4 2.5 2.4c.1 0 .1-.2.1-.2h16.8l.1.1c1.5 0 2.6-1.1 2.6-2.5 0-1.2-.8-2.2-1.9-2.5z"/>
    <path id="XMLID_195_" class="rain" d="M87.38 30.85c.7 1.2.9 2.36.5 2.6-.42.25-1.32-.53-2-1.72-1.26-2.17-1.75-4.77-3-6.93 1.25 2.16 3.25 3.9 4.5 6.05z"/>
    <path id="XMLID_194_" class="rain" d="M107.38 31.85c.7 1.2.9 2.36.5 2.6-.42.25-1.32-.53-2-1.72-1.26-2.17-1.75-4.77-3-6.93 1.25 2.16 3.25 3.9 4.5 6.05z"/>
    <path id="XMLID_193_" class="rain" d="M97.38 33.85c.7 1.2.9 2.36.5 2.6-.42.25-1.32-.53-2-1.72-1.26-2.17-1.75-4.77-3-6.93 1.25 2.16 3.25 3.9 4.5 6.05z"/>
    <path id="XMLID_192_" class="cloud" d="M112.14 25.2c.06-.36.1-.7.1-1.07 0-3.4-2.75-6.13-6.13-6.13-2.8 0-5.1 1.88-5.8 4.44-.3-.06-.5-.1-.8-.1-1.8 0-3.3 1.25-3.8 2.95-.3-.2-.6-.2-.9-.2-1.4 0-2.6 1.1-2.6 2.5s1.1 2.4 2.5 2.4c.1 0 .1-.2.1-.2h16.8l.1.1c1.5 0 2.6-1.1 2.6-2.5 0-1.2-.8-2.2-1.9-2.5z"/>
    <path id="XMLID_205_" class="snow light" d="M89.78 30.66l.44-.25 2.5 4.4-.44.3z"/>
    <path id="XMLID_207_" class="snow light" d="M100.78 31.66l.44-.25 2.5 4.4-.44.3z"/>
    <path id="XMLID_209_" class="snow light" d="M109.78 30.66l.44-.25 2.5 4.4-.44.3z"/>
    <circle id="XMLID_206_" class="snow" cx="93.5" cy="36.6" r="1"/>
    <circle id="XMLID_208_" class="snow" cx="104.5" cy="37.6" r="1"/>
    <circle id="XMLID_210_" class="snow" cx="113.5" cy="36.6" r="1"/>
  </g>
  <g id="hail">
    <path id="XMLID_329_" class="cloud" d="M194.84 176.85c.1-.56.15-1.13.15-1.72 0-5.52-4.5-10-10-10-4.6 0-8.4 3.07-9.6 7.25-.5-.1-1-.16-1.4-.16-3 0-5.5 2.03-6.3 4.8-.5-.2-1-.3-1.6-.3-2.3 0-4.2 1.87-4.2 4.2s1.9 4.15 4.2 4.15c0 0 0-.07.1-.07h27.4s0 .07.1.07c2.3 0 4.2-1.85 4.2-4.18 0-2-1.4-3.6-3.2-4.1z"/>
    <path id="XMLID_328_" class="cloud" d="M181.14 169.2c.06-.36.1-.7.1-1.07 0-3.4-2.75-6.13-6.13-6.13-2.8 0-5.1 1.88-5.8 4.44-.3-.06-.5-.1-.8-.1-1.8 0-3.3 1.25-3.8 2.95-.3-.2-.6-.2-.9-.2-1.4 0-2.6 1.1-2.6 2.5s1.2 2.4 2.6 2.4c.1 0 .1-.2.1-.2h16.8l.1.1c1.5 0 2.6-1.1 2.6-2.5 0-1.2-.8-2.2-1.9-2.5z"/>
    &gt;
    <path id="XMLID_327_" class="cloud" d="M197.14 171.2c.06-.36.1-.7.1-1.07 0-3.4-2.75-6.13-6.13-6.13-2.8 0-5.1 1.88-5.8 4.44-.3-.06-.5-.1-.8-.1-1.8 0-3.3 1.25-3.8 2.95-.3-.2-.6-.2-.9-.2-1.4 0-2.6 1.1-2.6 2.5s1.2 2.4 2.6 2.4c.1 0 .1-.2.1-.2h16.8l.1.1c1.5 0 2.6-1.1 2.6-2.5 0-1.2-.8-2.2-1.9-2.5z"/>
    <path id="XMLID_326_" class="cloud" d="M192.14 185.2c.06-.36.1-.7.1-1.07 0-3.4-2.75-6.13-6.13-6.13-2.8 0-5.1 1.88-5.8 4.44-.3-.06-.5-.1-.8-.1-1.8 0-3.3 1.25-3.8 2.95-.3-.2-.6-.2-.9-.2-1.4 0-2.6 1.1-2.6 2.5s1.2 2.4 2.6 2.4c.1 0 .1-.2.1-.2h16.8l.1.1c1.5 0 2.6-1.1 2.6-2.5 0-1.2-.8-2.2-1.9-2.5z"/>
    <path id="XMLID_338_" class="rain" d="M167.38 190.85c.7 1.2.9 2.36.5 2.6s-1.32-.53-2-1.72c-1.26-2.17-1.75-4.77-3-6.93 1.25 2.16 3.25 3.9 4.5 6.05z"/>
    <path id="XMLID_337_" class="rain" d="M187.38 191.85c.7 1.2.9 2.36.5 2.6s-1.32-.53-2-1.72c-1.26-2.17-1.75-4.77-3-6.93 1.25 2.16 3.25 3.9 4.5 6.05z"/>
    <path id="XMLID_336_" class="rain" d="M177.38 193.85c.7 1.2.9 2.36.5 2.6s-1.32-.53-2-1.72c-1.26-2.17-1.75-4.77-3-6.93 1.25 2.16 3.25 3.9 4.5 6.05z"/>
    <path id="XMLID_334_" class="snow light" d="M169.78 190.66l.44-.25 2.5 4.4-.44.3z"/>
    <path id="XMLID_332_" class="snow light" d="M180.78 191.66l.44-.25 2.5 4.4-.44.3z"/>
    <path id="XMLID_330_" class="snow light" d="M189.78 190.66l.44-.25 2.5 4.4-.44.3z"/>
    <circle id="XMLID_335_" class="snow" cx="173.5" cy="196.6" r="1"/>
    <circle id="XMLID_331_" class="snow" cx="193.5" cy="196.6" r="1"/>
    <circle id="XMLID_333_" class="snow" cx="184.5" cy="197.6" r="1"/>
  </g>
  <g id="thunder">
    <path id="XMLID_191_" class="rain" d="M133.38 195.85c.7 1.2.9 2.36.5 2.6s-1.32-.53-2-1.72c-1.26-2.17-1.75-4.77-3-6.93 1.25 2.16 3.25 3.9 4.5 6.05z"/>
    <path id="XMLID_190_" class="rain" d="M152.38 193.85c.7 1.2.9 2.36.5 2.6s-1.32-.53-2-1.72c-1.26-2.17-1.75-4.77-3-6.93 1.25 2.16 3.25 3.9 4.5 6.05z"/>
    <path id="XMLID_189_" class="rain" d="M144.38 195.85c.7 1.2.9 2.36.5 2.6s-1.32-.53-2-1.72c-1.26-2.17-1.75-4.77-3-6.93 1.25 2.16 3.25 3.9 4.5 6.05z"/>
    <path id="XMLID_188_" class="rain" d="M127.38 190.85c.7 1.2.9 2.36.5 2.6s-1.32-.53-2-1.72c-1.26-2.17-1.75-4.77-3-6.93 1.25 2.16 3.25 3.9 4.5 6.05z"/>
    <path id="XMLID_187_" class="rain" d="M147.38 191.85c.7 1.2.9 2.36.5 2.6s-1.32-.53-2-1.72c-1.26-2.17-1.75-4.77-3-6.93 1.25 2.16 3.25 3.9 4.5 6.05z"/>
    <path id="XMLID_186_" class="rain" d="M137.38 193.85c.7 1.2.9 2.36.5 2.6s-1.32-.53-2-1.72c-1.26-2.17-1.75-4.77-3-6.93 1.25 2.16 3.25 3.9 4.5 6.05z"/>
    <path id="XMLID_185_" class="cloud" d="M154.84 176.85c.1-.56.15-1.13.15-1.72 0-5.52-4.5-10-10-10-4.6 0-8.4 3.07-9.6 7.25-.5-.1-1-.16-1.4-.16-3 0-5.5 2.03-6.3 4.8-.5-.2-1-.3-1.6-.3-2.3 0-4.2 1.87-4.2 4.2s1.9 4.15 4.2 4.15c0 0 0-.07.1-.07h27.4s0 .07.1.07c2.3 0 4.2-1.85 4.2-4.18 0-2-1.4-3.6-3.2-4.1z"/>
    <path id="XMLID_184_" class="cloud" d="M141.14 169.2c.06-.36.1-.7.1-1.07 0-3.4-2.75-6.13-6.13-6.13-2.8 0-5.1 1.88-5.8 4.44-.3-.06-.5-.1-.8-.1-1.8 0-3.3 1.25-3.8 2.95-.3-.2-.6-.2-.9-.2-1.4 0-2.6 1.1-2.6 2.5s1.2 2.4 2.6 2.4c.1 0 .1-.2.1-.2h16.8l.1.1c1.5 0 2.6-1.1 2.6-2.5 0-1.2-.8-2.2-1.9-2.5z"/>
    <path id="XMLID_183_" class="cloud" d="M157.14 171.2c.06-.36.1-.7.1-1.07 0-3.4-2.75-6.13-6.13-6.13-2.8 0-5.1 1.88-5.8 4.44-.3-.06-.5-.1-.8-.1-1.8 0-3.3 1.25-3.8 2.95-.3-.2-.6-.2-.9-.2-1.4 0-2.6 1.1-2.6 2.5s1.2 2.4 2.6 2.4c.1 0 .1-.2.1-.2h16.8l.1.1c1.5 0 2.6-1.1 2.6-2.5 0-1.2-.8-2.2-1.9-2.5z"/>
    <path id="XMLID_42_" class="cloud" d="M152.14 185.2c.06-.36.1-.7.1-1.07 0-3.4-2.75-6.13-6.13-6.13-2.8 0-5.1 1.88-5.8 4.44-.3-.06-.5-.1-.8-.1-1.8 0-3.3 1.25-3.8 2.95-.3-.2-.6-.2-.9-.2-1.4 0-2.6 1.1-2.6 2.5s1.2 2.4 2.6 2.4c.1 0 .1-.2.1-.2h16.8l.1.1c1.5 0 2.6-1.1 2.6-2.5 0-1.2-.8-2.2-1.9-2.5z"/>
    <path id="XMLID_37_" class="lightning glow" d="M145.5 176h3.66l-2.86 11h1.05L144 197.55l1.17-10.55h-.96z"/>
  </g>
  <g id="heavyRain">
    <path id="XMLID_55_" class="cloud" d="M114.84 176.85c.1-.56.15-1.13.15-1.72 0-5.52-4.5-10-10-10-4.6 0-8.4 3.07-9.6 7.25-.5-.1-1-.16-1.4-.16-3 0-5.5 2.03-6.3 4.8-.5-.2-1-.3-1.6-.3-2.3 0-4.2 1.87-4.2 4.2s1.9 4.15 4.2 4.15c0 0 0-.07.1-.07h27.4s0 .07.1.07c2.3 0 4.2-1.85 4.2-4.18 0-2-1.4-3.6-3.2-4.1z"/>
    <path id="XMLID_54_" class="cloud" d="M101.14 169.2c.06-.36.1-.7.1-1.07 0-3.4-2.75-6.13-6.13-6.13-2.8 0-5.1 1.88-5.8 4.44-.3-.06-.5-.1-.8-.1-1.8 0-3.3 1.25-3.8 2.95-.3-.2-.6-.2-.9-.2-1.4 0-2.6 1.1-2.6 2.5s1.2 2.4 2.6 2.4c.1 0 .1-.2.1-.2h16.8l.1.1c1.5 0 2.6-1.1 2.6-2.5 0-1.2-.8-2.2-1.9-2.5z"/>
    <path id="XMLID_56_" class="cloud" d="M117.14 171.2c.06-.36.1-.7.1-1.07 0-3.4-2.75-6.13-6.13-6.13-2.8 0-5.1 1.88-5.8 4.44-.3-.06-.5-.1-.8-.1-1.8 0-3.3 1.25-3.8 2.95-.3-.2-.6-.2-.9-.2-1.4 0-2.6 1.1-2.6 2.5s1.2 2.4 2.6 2.4c.1 0 .1-.2.1-.2h16.8l.1.1c1.5 0 2.6-1.1 2.6-2.5 0-1.2-.8-2.2-1.9-2.5z"/>
    <path id="XMLID_53_" class="rain" d="M93.38 195.85c.7 1.2.9 2.36.5 2.6s-1.32-.53-2-1.72c-1.26-2.17-1.75-4.77-3-6.93 1.25 2.16 3.25 3.9 4.5 6.05z"/>
    <path id="XMLID_52_" class="rain" d="M112.38 193.85c.7 1.2.9 2.36.5 2.6s-1.32-.53-2-1.72c-1.26-2.17-1.75-4.77-3-6.93 1.25 2.16 3.25 3.9 4.5 6.05z"/>
    <path id="XMLID_51_" class="rain" d="M104.38 195.85c.7 1.2.9 2.36.5 2.6s-1.32-.53-2-1.72c-1.26-2.17-1.75-4.77-3-6.93 1.25 2.16 3.25 3.9 4.5 6.05z"/>
    <path id="XMLID_50_" class="rain" d="M87.38 190.85c.7 1.2.9 2.36.5 2.6s-1.32-.53-2-1.72c-1.26-2.17-1.75-4.77-3-6.93 1.25 2.16 3.25 3.9 4.5 6.05z"/>
    <path id="XMLID_49_" class="rain" d="M107.38 191.85c.7 1.2.9 2.36.5 2.6s-1.32-.53-2-1.72c-1.26-2.17-1.75-4.77-3-6.93 1.25 2.16 3.25 3.9 4.5 6.05z"/>
    <path id="XMLID_48_" class="rain" d="M97.38 193.85c.7 1.2.9 2.36.5 2.6s-1.32-.53-2-1.72c-1.26-2.17-1.75-4.77-3-6.93 1.25 2.16 3.25 3.9 4.5 6.05z"/>
    <path id="XMLID_47_" class="cloud" d="M112.14 185.2c.06-.36.1-.7.1-1.07 0-3.4-2.75-6.13-6.13-6.13-2.8 0-5.1 1.88-5.8 4.44-.3-.06-.5-.1-.8-.1-1.8 0-3.3 1.25-3.8 2.95-.3-.2-.6-.2-.9-.2-1.4 0-2.6 1.1-2.6 2.5s1.2 2.4 2.6 2.4c.1 0 .1-.2.1-.2h16.8l.1.1c1.5 0 2.6-1.1 2.6-2.5 0-1.2-.8-2.2-1.9-2.5z"/>
  </g>
  <g id="heavyshonw">
    <g id="XMLID_103_">
      <path id="XMLID_106_" class="snow" d="M2.97 190.9h4v.5h-4z"/>
      <path id="XMLID_105_" class="snow" d="M5.75 193l-2-3.47.44-.25 2 3.46z"/>
      <path id="XMLID_104_" class="snow" d="M3.76 192.74l2-3.46.43.25-2 3.46z"/>
    </g>
    <g id="XMLID_99_">
      <path id="XMLID_102_" class="snow" d="M13.97 189.74h4v.5h-4z"/>
      <path id="XMLID_101_" class="snow" d="M16.75 191.85l-2-3.46.43-.3 2 3.4z"/>
      <path id="XMLID_100_" class="snow" d="M14.75 191.6l2-3.47.43.25-2 3.47z"/>
    </g>
    <g id="XMLID_94_">
      <path id="XMLID_98_" class="snow" d="M23.7 191.65h4v.5h-4z"/>
      <path id="XMLID_97_" class="snow" d="M26.5 193.76l-2-3.47.42-.3 2 3.4z"/>
      <path id="XMLID_96_" class="snow" d="M24.5 193.5l2-3.46.42.25-2 3.4z"/>
    </g>
    <g id="XMLID_137_">
      <path id="XMLID_140_" class="snow" d="M10.6 196.9h4v.5h-4z"/>
      <path id="XMLID_139_" class="snow" d="M13.4 199l-2-3.46.43-.25 2 3.4z"/>
      <path id="XMLID_138_" class="snow" d="M11.4 198.76l2-3.47.43.2-2 3.4z"/>
    </g>
    <g id="XMLID_133_">
      <path id="XMLID_136_" class="snow" d="M19.6 195.76h4v.5h-4z"/>
      <path id="XMLID_135_" class="snow" d="M22.4 197.86l-2-3.46.43-.25 2 3.46z"/>
      <path id="XMLID_134_" class="snow" d="M20.4 197.62l2-3.47.43.25-2 3.47z"/>
    </g>
    <g id="XMLID_129_">
      <path id="XMLID_132_" class="snow" d="M31.35 192.66h4v.5h-4z"/>
      <path id="XMLID_131_" class="snow" d="M34.13 194.77l-2-3.46.44-.2 2 3.5z"/>
      <path id="XMLID_130_" class="snow" d="M32.13 194.52l2-3.47.44.25-2 3.47z"/>
    </g>
    <path id="XMLID_150_" class="cloud" d="M34.84 176.85c.1-.56.15-1.13.15-1.72 0-5.52-4.5-10-10-10-4.6 0-8.4 3.07-9.6 7.25-.5-.1-1-.16-1.4-.16-3 0-5.5 2.03-6.3 4.8-.5-.2-1-.3-1.6-.3-2.3 0-4.2 1.87-4.2 4.2s1.9 4.15 4.2 4.15c0 0 0-.07.1-.07h27.4s0 .07.1.07c2.3 0 4.2-1.85 4.2-4.18 0-2-1.4-3.6-3.2-4.1z"/>
    <path id="XMLID_149_" class="cloud med" d="M21.14 169.2c.06-.36.1-.7.1-1.07 0-3.4-2.75-6.13-6.13-6.13-2.8 0-5.1 1.88-5.8 4.44-.3-.06-.5-.1-.8-.1-1.8 0-3.3 1.25-3.8 2.95-.3-.2-.6-.2-.9-.2-1.4 0-2.6 1.1-2.6 2.5s1.1 2.4 2.5 2.4c.1 0 .1-.2.1-.2h16.8l.1.1c1.5 0 2.6-1.1 2.6-2.5 0-1.2-.8-2.2-1.9-2.5z"/>
    <path id="XMLID_148_" class="cloud" d="M37.14 171.2c.06-.36.1-.7.1-1.07 0-3.4-2.75-6.13-6.13-6.13-2.8 0-5.1 1.88-5.8 4.44-.3-.06-.5-.1-.8-.1-1.8 0-3.3 1.25-3.8 2.95-.3-.2-.6-.2-.9-.2-1.4 0-2.6 1.1-2.6 2.5s1.2 2.4 2.6 2.4c.1 0 .1-.2.1-.2h16.8l.1.1c1.5 0 2.6-1.1 2.6-2.5 0-1.2-.8-2.2-1.9-2.5z"/>
    <path id="XMLID_147_" class="cloud" d="M32.14 185.2c.06-.36.1-.7.1-1.07 0-3.4-2.75-6.13-6.13-6.13-2.8 0-5.1 1.88-5.8 4.44-.3-.06-.5-.1-.8-.1-1.8 0-3.3 1.25-3.8 2.95-.3-.2-.6-.2-.9-.2-1.4 0-2.6 1.1-2.6 2.5s1.2 2.4 2.6 2.4c.1 0 .1-.2.1-.2h16.8l.1.1c1.5 0 2.6-1.1 2.6-2.5 0-1.2-.8-2.2-1.9-2.5z"/>
  </g>
  <g id="thunderNight">
    <path id="XMLID_307_" class="moon glow" d="M175.13 82c2.2 1.44 3.68 3.92 3.68 6.76 0 4.44-3.6 8.05-8 8.05-2.8 0-5.3-1.4-6.7-3.6.6 5 4.8 8.8 10 8.8 5.5 0 10-4.5 10-10 0-5.1-3.8-9.3-8.8-9.9z"/>
    <path id="XMLID_301_" class="rain" d="M173.38 115.85c.7 1.2.9 2.36.5 2.6-.42.25-1.32-.53-2-1.72-1.26-2.17-1.75-4.77-3-6.93 1.25 2.16 3.25 3.9 4.5 6.05z"/>
    <path id="XMLID_300_" class="rain" d="M192.38 113.85c.7 1.2.9 2.36.5 2.6-.42.25-1.32-.53-2-1.72-1.26-2.17-1.75-4.77-3-6.93 1.25 2.16 3.25 3.9 4.5 6.05z"/>
    <path id="XMLID_299_" class="rain" d="M184.38 115.85c.7 1.2.9 2.36.5 2.6-.42.25-1.32-.53-2-1.72-1.26-2.17-1.75-4.77-3-6.93 1.25 2.16 3.25 3.9 4.5 6.05z"/>
    <path id="XMLID_298_" class="rain" d="M167.38 110.85c.7 1.2.9 2.36.5 2.6-.42.25-1.32-.53-2-1.72-1.26-2.17-1.75-4.77-3-6.93 1.25 2.16 3.25 3.9 4.5 6.05z"/>
    <path id="XMLID_297_" class="rain" d="M187.38 111.85c.7 1.2.9 2.36.5 2.6-.42.25-1.32-.53-2-1.72-1.26-2.17-1.75-4.77-3-6.93 1.25 2.16 3.25 3.9 4.5 6.05z"/>
    <path id="XMLID_296_" class="rain" d="M177.38 113.85c.7 1.2.9 2.36.5 2.6-.42.25-1.32-.53-2-1.72-1.26-2.17-1.75-4.77-3-6.93 1.25 2.16 3.25 3.9 4.5 6.05z"/>
    <path id="XMLID_222_" class="cloud" d="M194.84 96.85c.1-.56.15-1.13.15-1.72 0-5.52-4.5-10-10-10-4.6 0-8.4 3.07-9.6 7.25-.5-.1-1-.16-1.4-.16-3 0-5.5 2.03-6.3 4.8-.5-.2-1-.3-1.6-.3-2.3 0-4.2 1.87-4.2 4.2s1.9 4.15 4.2 4.15c0 0 0-.07.1-.07h27.4s0 .07.1.07c2.3 0 4.2-1.85 4.2-4.18 0-2-1.4-3.6-3.2-4.1z"/>
    <path id="XMLID_221_" class="cloud" d="M181.14 89.2c.06-.36.1-.7.1-1.07 0-3.4-2.75-6.13-6.13-6.13-2.8 0-5.1 1.88-5.8 4.44-.3-.06-.5-.1-.8-.1-1.8 0-3.3 1.25-3.8 2.95-.3-.2-.6-.2-.9-.2-1.4 0-2.6 1.1-2.6 2.5s1.2 2.4 2.6 2.4c.1 0 .1-.2.1-.2h16.8l.1.1c1.5 0 2.6-1.1 2.6-2.5 0-1.2-.8-2.2-1.9-2.5z"/>
    <path id="XMLID_220_" class="cloud" d="M197.14 91.2c.06-.36.1-.7.1-1.07 0-3.4-2.75-6.13-6.13-6.13-2.8 0-5.1 1.88-5.8 4.44-.3-.06-.5-.1-.8-.1-1.8 0-3.3 1.25-3.8 2.95-.3-.2-.6-.2-.9-.2-1.4 0-2.6 1.1-2.6 2.5s1.2 2.4 2.6 2.4c.1 0 .1-.2.1-.2h16.8l.1.1c1.5 0 2.6-1.1 2.6-2.5 0-1.2-.8-2.2-1.9-2.5z"/>
    <path id="XMLID_219_" class="cloud" d="M192.14 105.2c.06-.36.1-.7.1-1.07 0-3.4-2.75-6.13-6.13-6.13-2.8 0-5.1 1.88-5.8 4.44-.3-.06-.5-.1-.8-.1-1.8 0-3.3 1.25-3.8 2.95-.3-.2-.6-.2-.9-.2-1.4 0-2.6 1.1-2.6 2.5s1.2 2.4 2.6 2.4c.1 0 .1-.2.1-.2h16.8l.1.1c1.5 0 2.6-1.1 2.6-2.5 0-1.2-.8-2.2-1.9-2.5z"/>
    <path id="XMLID_218_" class="lightning glow" d="M185.5 96h3.66l-2.86 11h1.05L184 117.55l1.17-10.55h-.96z"/>
  </g>
  <g id="thunderDay">
    <circle id="XMLID_43_" class="sun glow" cx="55.97" cy="92" r="10"/>
    <path id="XMLID_40_" class="rain" d="M53.38 115.85c.7 1.2.9 2.36.5 2.6-.42.25-1.32-.53-2-1.72-1.26-2.17-1.75-4.77-3-6.93 1.25 2.16 3.25 3.9 4.5 6.05z"/>
    <path id="XMLID_39_" class="rain" d="M72.38 113.85c.7 1.2.9 2.36.5 2.6-.42.25-1.32-.53-2-1.72-1.26-2.17-1.75-4.77-3-6.93 1.25 2.16 3.25 3.9 4.5 6.05z"/>
    <path id="XMLID_38_" class="rain" d="M64.38 115.85c.7 1.2.9 2.36.5 2.6-.42.25-1.32-.53-2-1.72-1.26-2.17-1.75-4.77-3-6.93 1.25 2.16 3.25 3.9 4.5 6.05z"/>
    <path id="XMLID_46_" class="rain" d="M47.38 110.85c.7 1.2.9 2.36.5 2.6-.42.25-1.32-.53-2-1.72-1.26-2.17-1.75-4.77-3-6.93 1.25 2.16 3.25 3.9 4.5 6.05z"/>
    <path id="XMLID_45_" class="rain" d="M67.38 111.85c.7 1.2.9 2.36.5 2.6-.42.25-1.32-.53-2-1.72-1.26-2.17-1.75-4.77-3-6.93 1.25 2.16 3.25 3.9 4.5 6.05z"/>
    <path id="XMLID_44_" class="rain" d="M57.38 113.85c.7 1.2.9 2.36.5 2.6-.42.25-1.32-.53-2-1.72-1.26-2.17-1.75-4.77-3-6.93 1.25 2.16 3.25 3.9 4.5 6.05z"/>
    <path id="XMLID_182_" class="cloud" d="M74.84 96.85c.1-.56.15-1.13.15-1.72 0-5.52-4.5-10-10-10-4.6 0-8.4 3.07-9.6 7.25-.5-.1-1-.16-1.4-.16-3 0-5.5 2.03-6.3 4.8-.5-.2-1-.3-1.6-.3-2.3 0-4.2 1.87-4.2 4.2s1.9 4.15 4.2 4.15c0 0 0-.07.1-.07h27.4s0 .07.1.07c2.3 0 4.2-1.85 4.2-4.18 0-2-1.4-3.6-3.2-4.1z"/>
    <path id="XMLID_181_" class="cloud" d="M61.14 89.2c.06-.36.1-.7.1-1.07 0-3.4-2.75-6.13-6.13-6.13-2.8 0-5.1 1.88-5.8 4.44-.3-.06-.5-.1-.8-.1-1.8 0-3.3 1.25-3.8 2.95-.3-.2-.6-.2-.9-.2-1.4 0-2.6 1.1-2.6 2.5s1.1 2.4 2.5 2.4c.1 0 .1-.2.1-.2h16.8l.1.1c1.5 0 2.6-1.1 2.6-2.5 0-1.2-.8-2.2-1.9-2.5z"/>
    <path id="XMLID_180_" class="cloud" d="M77.14 91.2c.06-.36.1-.7.1-1.07 0-3.4-2.75-6.13-6.13-6.13-2.8 0-5.1 1.88-5.8 4.44-.3-.06-.5-.1-.8-.1-1.8 0-3.3 1.25-3.8 2.95-.3-.2-.6-.2-.9-.2-1.4 0-2.6 1.1-2.6 2.5s1.1 2.4 2.5 2.4c.1 0 .1-.2.1-.2h16.8l.1.1c1.5 0 2.6-1.1 2.6-2.5 0-1.2-.8-2.2-1.9-2.5z"/>
    <path id="XMLID_179_" class="cloud" d="M72.14 105.2c.06-.36.1-.7.1-1.07 0-3.4-2.75-6.13-6.13-6.13-2.8 0-5.1 1.88-5.8 4.44-.3-.06-.5-.1-.8-.1-1.8 0-3.3 1.25-3.8 2.95-.3-.2-.6-.2-.9-.2-1.4 0-2.6 1.1-2.6 2.5s1.2 2.4 2.6 2.4c.1 0 .1-.2.1-.2h16.8l.1.1c1.5 0 2.6-1.1 2.6-2.5 0-1.2-.8-2.2-1.9-2.5z"/>
    <path id="XMLID_41_" class="lightning glow" d="M65.5 96h3.66l-2.86 11h1.05L64 117.55 65.16 107h-.96z"/>
  </g>
</svg>
